<svg xmlns="http://www.w3.org/2000/svg" width="16" height="16" viewBox="0 0 16 16" fill="none">
  <path d="M13.9596 8.45962C14.0815 8.33772 14.15 8.17239 14.15 8C14.15 7.82761 14.0815 7.66228 13.9596 7.54038C13.8377 7.41848 13.6724 7.35 13.5 7.35H8.65V2.5C8.65 2.32761 8.58152 2.16228 8.45962 2.04038C8.33772 1.91848 8.17239 1.85 8 1.85C7.82761 1.85 7.66228 1.91848 7.54038 2.04038C7.41848 2.16228 7.35 2.32761 7.35 2.5V7.35H2.5C2.32761 7.35 2.16228 7.41848 2.04038 7.54038C1.91848 7.66228 1.85 7.82761 1.85 8C1.85 8.17239 1.91848 8.33772 2.04038 8.45962C2.16228 8.58152 2.32761 8.65 2.5 8.65H7.35V13.5C7.35 13.6724 7.41848 13.8377 7.54038 13.9596C7.66228 14.0815 7.82761 14.15 8 14.15C8.17239 14.15 8.33772 14.0815 8.45962 13.9596C8.58152 13.8377 8.65 13.6724 8.65 13.5V8.65H13.5C13.6724 8.65 13.8377 8.58152 13.9596 8.45962Z" fill="white" stroke="white" stroke-width="0.3"/>
</svg>