<svg xmlns="http://www.w3.org/2000/svg" width="14" height="14" viewBox="0 0 14 14" fill="none">
  <path d="M12.0537 10.9497C12.0537 10.9497 11.3778 11.6136 11.2122 11.8082C10.9424 12.0961 10.6245 12.2321 10.2077 12.2321C10.1677 12.2321 10.1249 12.2321 10.0848 12.2294C9.29141 12.1788 8.55408 11.8695 8.00108 11.6056C6.48902 10.8751 5.16128 9.83799 4.05796 8.52364C3.14698 7.4279 2.53788 6.41481 2.13449 5.32707C1.88604 4.66322 1.79521 4.14601 1.83528 3.65813C1.86199 3.3462 1.98221 3.0876 2.20394 2.86632L3.11492 1.9572C3.24583 1.83456 3.38474 1.76791 3.52099 1.76791C3.68929 1.76791 3.82554 1.86922 3.91103 1.95454C3.9137 1.9572 3.91637 1.95987 3.91904 1.96253C4.082 2.1145 4.23695 2.27179 4.39991 2.43975C4.48273 2.52507 4.56821 2.61038 4.6537 2.69836L5.38302 3.42619C5.6662 3.70879 5.6662 3.97006 5.38302 4.25266C5.30554 4.32997 5.23074 4.40728 5.15327 4.48193C4.92886 4.71121 5.10515 4.53529 4.87273 4.74324C4.86739 4.74857 4.86204 4.75124 4.85937 4.75657C4.62962 4.98585 4.67237 5.2098 4.72045 5.36176C4.72312 5.36976 4.7258 5.37776 4.72847 5.38575C4.91814 5.84431 5.18529 6.27621 5.59136 6.79075L5.59403 6.79342C6.33136 7.69987 7.10877 8.40637 7.96631 8.94757C8.07585 9.01689 8.18805 9.07287 8.29491 9.1262C8.39108 9.17418 8.48191 9.21951 8.55938 9.2675C8.57007 9.27283 8.58076 9.28083 8.59144 9.28616C8.68227 9.33148 8.76776 9.35281 8.85592 9.35281C9.07765 9.35281 9.21657 9.21417 9.26199 9.16885L9.78563 8.64628C9.87646 8.55563 10.0207 8.44632 10.189 8.44632C10.3547 8.44632 10.4909 8.5503 10.5737 8.64094C10.5764 8.64361 10.5764 8.64361 10.5791 8.64628L12.0511 10.1153C12.3262 10.3872 12.0537 10.9497 12.0537 10.9497Z" stroke="black" stroke-opacity="0.8" stroke-width="1.16667" stroke-linecap="round" stroke-linejoin="round"/>
</svg>