<svg width="32" height="30" viewBox="0 0 32 30" fill="none" xmlns="http://www.w3.org/2000/svg">
<rect x="1.01704" y="0.665479" width="30.3167" height="28.669" rx="2.34165" fill="#F9F9F9"/>
<rect x="1.01704" y="0.665479" width="30.3167" height="28.669" rx="2.34165" stroke="#D94841" stroke-width="0.669042"/>
<path d="M22.6699 20.5479C22.732 20.6101 22.7814 20.6839 22.815 20.7651C22.8486 20.8463 22.866 20.9333 22.866 21.0212C22.866 21.1092 22.8486 21.1962 22.815 21.2774C22.7814 21.3586 22.732 21.4324 22.6699 21.4946C22.6077 21.5568 22.5339 21.6061 22.4527 21.6397C22.3715 21.6733 22.2844 21.6907 22.1965 21.6907C22.1086 21.6907 22.0216 21.6733 21.9404 21.6397C21.8591 21.6061 21.7854 21.5568 21.7232 21.4946L16.1752 15.9457L10.6271 21.4946C10.5016 21.6201 10.3313 21.6907 10.1538 21.6907C9.97625 21.6907 9.80598 21.6201 9.68044 21.4946C9.5549 21.3691 9.48438 21.1988 9.48438 21.0212C9.48437 20.8437 9.5549 20.6734 9.68044 20.5479L15.2293 14.9999L9.68044 9.45184C9.5549 9.3263 9.48438 9.15604 9.48438 8.9785C9.48438 8.80096 9.5549 8.63069 9.68044 8.50515C9.80598 8.37961 9.97625 8.30908 10.1538 8.30908C10.3313 8.30908 10.5016 8.37961 10.6271 8.50515L16.1752 14.054L21.7232 8.50515C21.8487 8.37961 22.019 8.30908 22.1965 8.30908C22.3741 8.30908 22.5443 8.37961 22.6699 8.50515C22.7954 8.63069 22.866 8.80096 22.866 8.9785C22.866 9.15604 22.7954 9.3263 22.6699 9.45184L17.121 14.9999L22.6699 20.5479Z" fill="#D94841"/>
</svg>
