<svg width="38" height="36" viewBox="0 0 38 36" fill="none" xmlns="http://www.w3.org/2000/svg">
<rect x="0.605665" y="0.593946" width="36.7996" height="34.7996" rx="2.84238" fill="#F2F4FF"/>
<rect x="0.605665" y="0.593946" width="36.7996" height="34.7996" rx="2.84238" stroke="#1B2459" stroke-width="0.812108"/>
<path d="M26.8879 24.7281C26.9633 24.8036 27.0232 24.8932 27.064 24.9917C27.1049 25.0903 27.1259 25.196 27.1259 25.3027C27.1259 25.4094 27.1049 25.5151 27.064 25.6137C27.0232 25.7122 26.9633 25.8018 26.8879 25.8773C26.8124 25.9527 26.7229 26.0126 26.6243 26.0534C26.5257 26.0942 26.42 26.1153 26.3133 26.1153C26.2066 26.1153 26.101 26.0942 26.0024 26.0534C25.9038 26.0126 25.8142 25.9527 25.7388 25.8773L19.0043 19.1418L12.2699 25.8773C12.1176 26.0297 11.9109 26.1153 11.6954 26.1153C11.4799 26.1153 11.2732 26.0297 11.1208 25.8773C10.9684 25.7249 10.8828 25.5182 10.8828 25.3027C10.8828 25.0872 10.9684 24.8805 11.1208 24.7281L17.8562 17.9937L11.1208 11.2593C10.9684 11.1069 10.8828 10.9003 10.8828 10.6848C10.8828 10.4692 10.9684 10.2626 11.1208 10.1102C11.2732 9.9578 11.4799 9.87219 11.6954 9.87219C11.9109 9.87219 12.1176 9.9578 12.2699 10.1102L19.0043 16.8456L25.7388 10.1102C25.8911 9.9578 26.0978 9.87219 26.3133 9.87219C26.5288 9.87219 26.7355 9.9578 26.8879 10.1102C27.0403 10.2626 27.1259 10.4692 27.1259 10.6848C27.1259 10.9003 27.0403 11.1069 26.8879 11.2593L20.1525 17.9937L26.8879 24.7281Z" fill="#1B2459"/>
</svg>
