<svg xmlns="http://www.w3.org/2000/svg" width="63" height="63" viewBox="0 0 63 63" fill="none">
  <g clip-path="url(#clip0_709_273)">
    <path opacity="0.15" d="M41.5762 13.6478C40.1698 13.6464 38.8212 13.0871 37.8266 12.0925C36.8321 11.098 36.2728 9.7495 36.2715 8.34303V0.977661H12.5674C10.7314 0.977661 8.97051 1.70706 7.6722 3.00535C6.37391 4.30364 5.64453 6.06447 5.64453 7.90054V49.6335C5.64726 51.4678 6.37784 53.2259 7.67584 54.522C8.97383 55.8181 10.7332 56.5461 12.5674 56.5461H41.0205C41.93 56.5464 42.8304 56.3676 43.6706 56.02C44.5108 55.6722 45.2744 55.1623 45.9175 54.5194C46.5607 53.8765 47.0708 53.1132 47.4189 52.273C47.767 51.4331 47.946 50.5326 47.946 49.6232V13.6375L41.5762 13.6478Z" fill="#00C650"/>
    <path d="M47.946 13.6478H41.5762C40.1698 13.6464 38.8212 13.0871 37.8266 12.0925C36.8321 11.098 36.2728 9.7495 36.2715 8.34303V0.977661L47.946 13.6478Z" fill="#00C650"/>
    <path d="M53.0066 44.9696H20.8387C18.5568 44.9696 16.707 46.8193 16.707 49.1012V58.6919C16.707 60.9738 18.5568 62.8235 20.8387 62.8235H53.0066C55.2885 62.8235 57.1382 60.9738 57.1382 58.6919V49.1012C57.1382 46.8193 55.2885 44.9696 53.0066 44.9696Z" fill="#00C650"/>
    <path d="M27.1069 58.249C26.1054 58.249 25.3641 58.0105 24.883 57.5338C24.4063 57.0527 24.168 56.3115 24.168 55.31V52.2923C24.168 51.2821 24.4063 50.5386 24.883 50.0619C25.3597 49.5808 26.0967 49.3446 27.0938 49.3534H28.6814C29.5036 49.3534 30.1312 49.524 30.5641 49.8651C30.9971 50.2018 31.2486 50.7354 31.3185 51.4658C31.3448 51.6494 31.3098 51.7894 31.2136 51.8856C31.1174 51.9818 30.9774 52.0299 30.7937 52.0299C30.4614 52.0299 30.2689 51.8462 30.2164 51.4789C30.1727 51.0765 30.0328 50.8054 29.7966 50.6654C29.5648 50.5255 29.1931 50.4555 28.6814 50.4555H27.0938C26.6302 50.4511 26.265 50.5036 25.9983 50.6129C25.7358 50.7223 25.5478 50.9124 25.4341 51.1835C25.3247 51.4503 25.2701 51.82 25.2701 52.2923V55.31C25.2701 55.778 25.3247 56.1453 25.4341 56.4121C25.5478 56.6789 25.738 56.869 26.0048 56.9827C26.2716 57.0921 26.639 57.1469 27.1069 57.1469H28.6814C29.1931 57.1469 29.5648 57.0769 29.7966 56.9369C30.0328 56.7926 30.1727 56.5215 30.2164 56.1235C30.2689 55.7561 30.4614 55.5724 30.7937 55.5724C30.9774 55.5724 31.1174 55.6205 31.2136 55.7167C31.3098 55.813 31.3448 55.9529 31.3185 56.1366C31.2486 56.8713 30.9971 57.407 30.5641 57.7437C30.1312 58.0805 29.5036 58.249 28.6814 58.249H27.1069Z" fill="white"/>
    <path d="M35.8409 58.2487C35.0931 58.2487 34.5094 58.0977 34.0895 57.796C33.674 57.4942 33.4137 57.0285 33.3087 56.3988C33.2912 56.2063 33.3306 56.062 33.4268 55.9658C33.523 55.8696 33.663 55.8215 33.8467 55.8215C34.0303 55.8215 34.1639 55.8652 34.247 55.9527C34.3344 56.0401 34.3933 56.1757 34.424 56.3594C34.4896 56.6612 34.6295 56.8688 34.8438 56.9825C35.0625 57.0918 35.3949 57.1466 35.8409 57.1466H37.7303C38.2944 57.1466 38.6773 57.046 38.8784 56.8449C39.084 56.6393 39.1866 56.2588 39.1866 55.7034C39.1866 55.1392 39.0817 54.7544 38.8717 54.5488C38.6618 54.3389 38.2813 54.2339 37.7303 54.2339H36.1034C35.2768 54.2339 34.6624 54.0327 34.2601 53.6304C33.8621 53.2236 33.663 52.607 33.663 51.7804C33.663 50.9582 33.8598 50.348 34.2534 49.95C34.6514 49.552 35.2637 49.3531 36.0902 49.3531H37.6516C38.3469 49.3531 38.8916 49.4952 39.2852 49.7794C39.6831 50.0637 39.9345 50.499 40.0395 51.085C40.0657 51.2731 40.0307 51.4174 39.9345 51.518C39.8383 51.6142 39.694 51.6623 39.5015 51.6623C39.3266 51.6623 39.1954 51.6163 39.1079 51.5244C39.0204 51.4326 38.9636 51.2993 38.9373 51.1244C38.8674 50.8664 38.7341 50.6914 38.5373 50.5996C38.3405 50.5034 38.0452 50.4553 37.6516 50.4553H36.0902C35.5654 50.4553 35.2135 50.5492 35.0342 50.7372C34.8549 50.9209 34.7651 51.2687 34.7651 51.7804C34.7651 52.2965 34.8569 52.6507 35.0406 52.8432C35.2243 53.0356 35.5785 53.1318 36.1034 53.1318H37.7303C38.5918 53.1318 39.2327 53.3417 39.6525 53.7616C40.0768 54.1814 40.2887 54.8287 40.2887 55.7034C40.2887 56.5737 40.0788 57.2166 39.659 57.6321C39.2391 58.0432 38.5962 58.2487 37.7303 58.2487H35.8409Z" fill="white"/>
    <path d="M45.4981 58.2491C45.2707 58.2491 45.0914 58.1047 44.9602 57.8161L41.7194 50.1407C41.6538 49.9876 41.6363 49.852 41.667 49.734C41.6976 49.6115 41.7982 49.5109 41.9687 49.4322C42.3273 49.2529 42.581 49.3447 42.7297 49.7077L45.7934 56.9633H45.4129L48.3977 49.7077C48.542 49.3491 48.7957 49.2573 49.1587 49.4322C49.3117 49.5109 49.4059 49.6115 49.4409 49.734C49.4802 49.852 49.4692 49.9876 49.408 50.1407L46.141 57.8161C46.0054 58.1047 45.8086 58.2491 45.5506 58.2491H45.4981Z" fill="white"/>
    <path d="M36.2296 39.7725H17.3595C15.7259 39.7725 14.3984 38.1466 14.3984 36.1451V22.4614C14.3984 20.4625 15.7259 18.8365 17.3595 18.8365H36.2296C37.8633 18.8365 39.1907 20.4625 39.1907 22.4614V36.1451C39.1907 38.1466 37.8633 39.7725 36.2296 39.7725ZM17.3595 20.6889C16.562 20.6889 15.9111 21.4838 15.9111 22.4614V36.1451C15.9111 37.1227 16.562 37.9177 17.3595 37.9177H36.2296C37.0272 37.9177 37.6755 37.1227 37.6755 36.1451V22.4614C37.6755 21.4838 37.0272 20.6889 36.2296 20.6889H17.3595Z" fill="#00C650"/>
    <path d="M38.4339 31.5325H15.1543V33.3873H38.4339V31.5325Z" fill="#00C650"/>
    <path d="M38.4339 25.1725H15.1543V27.0273H38.4339V25.1725Z" fill="#00C650"/>
    <path d="M32.474 19.7628H30.6191V38.8439H32.474V19.7628Z" fill="#00C650"/>
    <path d="M22.972 19.7628H21.1172V38.8439H22.972V19.7628Z" fill="#00C650"/>
  </g>
  <defs>
    <clipPath id="clip0_709_273">
      <rect width="62" height="62" fill="white" transform="translate(0.5 0.987427)"/>
    </clipPath>
  </defs>
</svg>