<svg xmlns="http://www.w3.org/2000/svg" width="20" height="21" viewBox="0 0 20 21" fill="none">
  <path d="M10 2.86243C8.39303 2.86243 6.82214 3.33895 5.486 4.23174C4.14985 5.12452 3.10844 6.39347 2.49348 7.87812C1.87852 9.36277 1.71762 10.9964 2.03112 12.5725C2.34463 14.1486 3.11846 15.5964 4.25476 16.7327C5.39106 17.869 6.8388 18.6428 8.4149 18.9563C9.99099 19.2698 11.6247 19.1089 13.1093 18.4939C14.594 17.879 15.8629 16.8376 16.7557 15.5014C17.6485 14.1653 18.125 12.5944 18.125 10.9874C18.1227 8.83324 17.266 6.76794 15.7427 5.2447C14.2195 3.72146 12.1542 2.8647 10 2.86243ZM10 17.8624C8.64026 17.8624 7.31105 17.4592 6.18046 16.7038C5.04987 15.9483 4.16868 14.8746 3.64833 13.6184C3.12798 12.3621 2.99183 10.9798 3.2571 9.64618C3.52238 8.31256 4.17716 7.08755 5.13864 6.12607C6.10013 5.16458 7.32514 4.5098 8.65876 4.24453C9.99238 3.97925 11.3747 4.1154 12.631 4.63575C13.8872 5.15611 14.9609 6.03729 15.7164 7.16788C16.4718 8.29847 16.875 9.62768 16.875 10.9874C16.8729 12.8102 16.1479 14.5576 14.8591 15.8465C13.5702 17.1354 11.8227 17.8604 10 17.8624ZM11.25 14.7374C11.25 14.9032 11.1842 15.0622 11.0669 15.1794C10.9497 15.2966 10.7908 15.3624 10.625 15.3624C10.2935 15.3624 9.97554 15.2307 9.74112 14.9963C9.5067 14.7619 9.375 14.4439 9.375 14.1124V10.9874C9.20924 10.9874 9.05027 10.9216 8.93306 10.8044C8.81585 10.6872 8.75 10.5282 8.75 10.3624C8.75 10.1967 8.81585 10.0377 8.93306 9.92049C9.05027 9.80328 9.20924 9.73743 9.375 9.73743C9.70652 9.73743 10.0245 9.86912 10.2589 10.1035C10.4933 10.338 10.625 10.6559 10.625 10.9874V14.1124C10.7908 14.1124 10.9497 14.1783 11.0669 14.2955C11.1842 14.4127 11.25 14.5717 11.25 14.7374ZM8.75 7.54993C8.75 7.36451 8.80499 7.18325 8.908 7.02908C9.01101 6.87491 9.15743 6.75475 9.32874 6.68379C9.50004 6.61283 9.68854 6.59427 9.8704 6.63044C10.0523 6.66661 10.2193 6.7559 10.3504 6.88701C10.4815 7.01813 10.5708 7.18517 10.607 7.36703C10.6432 7.54889 10.6246 7.73739 10.5536 7.90869C10.4827 8.08 10.3625 8.22642 10.2084 8.32943C10.0542 8.43244 9.87292 8.48743 9.6875 8.48743C9.43886 8.48743 9.20041 8.38865 9.02459 8.21284C8.84878 8.03702 8.75 7.79857 8.75 7.54993Z" fill="black"/>
</svg>