<svg xmlns="http://www.w3.org/2000/svg" width="12" height="12" viewBox="0 0 12 12" fill="none">
  <g clip-path="url(#clip0_125_756)">
    <path d="M8.00334 7.92855C9.28029 5.92481 9.11977 6.1748 9.15656 6.12255C9.62147 5.46682 9.86719 4.69505 9.86719 3.89062C9.86719 1.75734 8.13607 0 6 0C3.87089 0 2.13281 1.75388 2.13281 3.89062C2.13281 4.69453 2.38369 5.48651 2.86383 6.15108L3.99661 7.92858C2.78548 8.1147 0.726562 8.66934 0.726562 9.89062C0.726562 10.3358 1.01714 10.9703 2.40145 11.4647C3.36806 11.8099 4.64604 12 6 12C8.53184 12 11.2734 11.2858 11.2734 9.89062C11.2734 8.66913 9.21694 8.11507 8.00334 7.92855ZM3.45115 5.76434C3.44728 5.75829 3.44325 5.75238 3.43903 5.74657C3.03949 5.19691 2.83594 4.54549 2.83594 3.89062C2.83594 2.13239 4.2517 0.703125 6 0.703125C7.74466 0.703125 9.16406 2.13302 9.16406 3.89062C9.16406 4.54655 8.96435 5.17587 8.58642 5.71104C8.55255 5.75571 8.72925 5.48121 6 9.7638L3.45115 5.76434ZM6 11.2969C3.23452 11.2969 1.42969 10.484 1.42969 9.89062C1.42969 9.49181 2.35706 8.83605 4.41206 8.58045L5.70352 10.6069C5.76806 10.7082 5.87986 10.7695 5.99998 10.7695C6.12009 10.7695 6.23191 10.7082 6.29644 10.6069L7.58787 8.58045C9.64291 8.83605 10.5703 9.49181 10.5703 9.89062C10.5703 10.479 8.78173 11.2969 6 11.2969Z" fill="#034A75"/>
    <path d="M6 2.13281C5.03074 2.13281 4.24219 2.92137 4.24219 3.89062C4.24219 4.85988 5.03074 5.64844 6 5.64844C6.96926 5.64844 7.75781 4.85988 7.75781 3.89062C7.75781 2.92137 6.96926 2.13281 6 2.13281ZM6 4.94531C5.41845 4.94531 4.94531 4.47218 4.94531 3.89062C4.94531 3.30907 5.41845 2.83594 6 2.83594C6.58155 2.83594 7.05469 3.30907 7.05469 3.89062C7.05469 4.47218 6.58155 4.94531 6 4.94531Z" fill="#034A75"/>
  </g>
  <defs>
    <clipPath id="clip0_125_756">
      <rect width="12" height="12" fill="white"/>
    </clipPath>
  </defs>
</svg>