<svg width="18" height="18" viewBox="0 0 18 18" fill="none" xmlns="http://www.w3.org/2000/svg">
<rect width="18" height="18" rx="2" fill="#CDCDCD"/>
<path d="M11.0599 13.0659C11.1005 13.1066 11.1328 13.1548 11.1548 13.2079C11.1768 13.261 11.1881 13.318 11.1881 13.3754C11.1881 13.4329 11.1768 13.4899 11.1548 13.543C11.1328 13.5961 11.1005 13.6443 11.0599 13.685C11.0192 13.7256 10.971 13.7579 10.9179 13.7799C10.8648 13.8019 10.8078 13.8132 10.7503 13.8132C10.6929 13.8132 10.6359 13.8019 10.5828 13.7799C10.5297 13.7579 10.4815 13.7256 10.4408 13.685L6.06581 9.30997C6.02514 9.26934 5.99287 9.22109 5.97085 9.16798C5.94883 9.11487 5.9375 9.05794 5.9375 9.00044C5.9375 8.94295 5.94883 8.88602 5.97085 8.83291C5.99287 8.77979 6.02514 8.73154 6.06581 8.69091L10.4408 4.31591C10.5229 4.23382 10.6342 4.1877 10.7503 4.1877C10.8664 4.1877 10.9778 4.23382 11.0599 4.31591C11.142 4.398 11.1881 4.50934 11.1881 4.62544C11.1881 4.74154 11.142 4.85288 11.0599 4.93497L6.99386 9.00044L11.0599 13.0659Z" fill="black"/>
</svg>
