<svg width="32" height="32" viewBox="0 0 32 32" fill="none" xmlns="http://www.w3.org/2000/svg">
<rect width="32" height="32" rx="16" fill="#FF7A00"/>
<g clip-path="url(#clip0_132_1921)">
<path d="M16.0072 8C13.0664 8 10.6738 10.3926 10.6738 13.3333C10.6738 14.2162 10.8945 15.0915 11.3141 15.8678L15.7155 23.8281C15.7741 23.9342 15.8858 24 16.0072 24C16.1286 24 16.2402 23.9342 16.2988 23.8281L20.7018 15.8652C21.1198 15.0915 21.3405 14.2161 21.3405 13.3333C21.3405 10.3926 18.9479 8 16.0072 8ZM16.0072 16C14.5368 16 13.3405 14.8037 13.3405 13.3333C13.3405 11.863 14.5368 10.6667 16.0072 10.6667C17.4775 10.6667 18.6738 11.863 18.6738 13.3333C18.6738 14.8037 17.4775 16 16.0072 16Z" fill="white"/>
</g>
<defs>
<clipPath id="clip0_132_1921">
<rect width="16" height="16" fill="white" transform="translate(8 8)"/>
</clipPath>
</defs>
</svg>
