<svg width="28" height="24" viewBox="0 0 28 24" fill="none" xmlns="http://www.w3.org/2000/svg">
<rect width="28" height="24" rx="2" fill="#E1E1E1"/>
<path d="M16.1875 12C16.1875 12.4326 16.0592 12.8556 15.8188 13.2153C15.5785 13.575 15.2368 13.8554 14.8371 14.021C14.4374 14.1866 13.9976 14.2299 13.5732 14.1455C13.1489 14.0611 12.7591 13.8527 12.4532 13.5468C12.1473 13.2409 11.9389 12.8511 11.8545 12.4268C11.7701 12.0024 11.8134 11.5626 11.979 11.1629C12.1446 10.7632 12.425 10.4215 12.7847 10.1812C13.1444 9.94079 13.5674 9.8125 14 9.8125C14.5802 9.8125 15.1366 10.043 15.5468 10.4532C15.957 10.8634 16.1875 11.4198 16.1875 12ZM7.75 9.8125C7.31735 9.8125 6.89442 9.94079 6.53469 10.1812C6.17496 10.4215 5.89458 10.7632 5.72901 11.1629C5.56345 11.5626 5.52013 12.0024 5.60453 12.4268C5.68894 12.8511 5.89728 13.2409 6.2032 13.5468C6.50913 13.8527 6.89891 14.0611 7.32324 14.1455C7.74757 14.2299 8.18741 14.1866 8.58712 14.021C8.98683 13.8554 9.32848 13.575 9.56884 13.2153C9.80921 12.8556 9.9375 12.4326 9.9375 12C9.9375 11.4198 9.70703 10.8634 9.2968 10.4532C8.88656 10.043 8.33016 9.8125 7.75 9.8125ZM20.25 9.8125C19.8174 9.8125 19.3944 9.94079 19.0347 10.1812C18.675 10.4215 18.3946 10.7632 18.229 11.1629C18.0634 11.5626 18.0201 12.0024 18.1045 12.4268C18.1889 12.8511 18.3973 13.2409 18.7032 13.5468C19.0091 13.8527 19.3989 14.0611 19.8232 14.1455C20.2476 14.2299 20.6874 14.1866 21.0871 14.021C21.4868 13.8554 21.8285 13.575 22.0688 13.2153C22.3092 12.8556 22.4375 12.4326 22.4375 12C22.4375 11.7127 22.3809 11.4283 22.271 11.1629C22.1611 10.8975 21.9999 10.6563 21.7968 10.4532C21.5937 10.2501 21.3525 10.0889 21.0871 9.97901C20.8217 9.86908 20.5373 9.8125 20.25 9.8125Z" fill="black"/>
</svg>
