<svg width="36" height="32" viewBox="0 0 36 32" fill="none" xmlns="http://www.w3.org/2000/svg">
<g filter="url(#filter0_d_1024_1677)">
<rect x="4" y="4" width="28" height="24" rx="2" fill="#5D5D5D" shape-rendering="crispEdges"/>
<path d="M20.1875 16C20.1875 16.4326 20.0592 16.8556 19.8188 17.2153C19.5785 17.575 19.2368 17.8554 18.8371 18.021C18.4374 18.1866 17.9976 18.2299 17.5732 18.1455C17.1489 18.0611 16.7591 17.8527 16.4532 17.5468C16.1473 17.2409 15.9389 16.8511 15.8545 16.4268C15.7701 16.0024 15.8134 15.5626 15.979 15.1629C16.1446 14.7632 16.425 14.4215 16.7847 14.1812C17.1444 13.9408 17.5674 13.8125 18 13.8125C18.5802 13.8125 19.1366 14.043 19.5468 14.4532C19.957 14.8634 20.1875 15.4198 20.1875 16ZM11.75 13.8125C11.3174 13.8125 10.8944 13.9408 10.5347 14.1812C10.175 14.4215 9.89458 14.7632 9.72901 15.1629C9.56345 15.5626 9.52013 16.0024 9.60453 16.4268C9.68894 16.8511 9.89728 17.2409 10.2032 17.5468C10.5091 17.8527 10.8989 18.0611 11.3232 18.1455C11.7476 18.2299 12.1874 18.1866 12.5871 18.021C12.9868 17.8554 13.3285 17.575 13.5688 17.2153C13.8092 16.8556 13.9375 16.4326 13.9375 16C13.9375 15.4198 13.707 14.8634 13.2968 14.4532C12.8866 14.043 12.3302 13.8125 11.75 13.8125ZM24.25 13.8125C23.8174 13.8125 23.3944 13.9408 23.0347 14.1812C22.675 14.4215 22.3946 14.7632 22.229 15.1629C22.0634 15.5626 22.0201 16.0024 22.1045 16.4268C22.1889 16.8511 22.3973 17.2409 22.7032 17.5468C23.0091 17.8527 23.3989 18.0611 23.8232 18.1455C24.2476 18.2299 24.6874 18.1866 25.0871 18.021C25.4868 17.8554 25.8285 17.575 26.0688 17.2153C26.3092 16.8556 26.4375 16.4326 26.4375 16C26.4375 15.7127 26.3809 15.4283 26.271 15.1629C26.1611 14.8975 25.9999 14.6563 25.7968 14.4532C25.5937 14.2501 25.3525 14.0889 25.0871 13.979C24.8217 13.8691 24.5373 13.8125 24.25 13.8125Z" fill="white"/>
</g>
<defs>
<filter id="filter0_d_1024_1677" x="0" y="0" width="36" height="32" filterUnits="userSpaceOnUse" color-interpolation-filters="sRGB">
<feFlood flood-opacity="0" result="BackgroundImageFix"/>
<feColorMatrix in="SourceAlpha" type="matrix" values="0 0 0 0 0 0 0 0 0 0 0 0 0 0 0 0 0 0 127 0" result="hardAlpha"/>
<feOffset/>
<feGaussianBlur stdDeviation="2"/>
<feComposite in2="hardAlpha" operator="out"/>
<feColorMatrix type="matrix" values="0 0 0 0 0 0 0 0 0 0 0 0 0 0 0 0 0 0 0.25 0"/>
<feBlend mode="normal" in2="BackgroundImageFix" result="effect1_dropShadow_1024_1677"/>
<feBlend mode="normal" in="SourceGraphic" in2="effect1_dropShadow_1024_1677" result="shape"/>
</filter>
</defs>
</svg>
