<svg width="25" height="24" viewBox="0 0 25 24" fill="none" xmlns="http://www.w3.org/2000/svg">
<g id="redo-arrow 1" clip-path="url(#clip0_757_1813)">
<g id="Group">
<g id="Group_2">
<g id="Group_3">
<path id="Vector" d="M0.842867 19.6875C0.599353 19.6365 0.427734 19.4255 0.427734 19.182C0.427734 10.7715 10.4118 8.9799 12.731 8.67725V4.81814C12.731 4.62797 12.8353 4.45403 13.0035 4.36242C13.1739 4.27429 13.3757 4.28705 13.5322 4.39025L24.2028 11.5727C24.3431 11.6678 24.4277 11.8255 24.4277 12.0006C24.4277 12.1711 24.3431 12.33 24.2028 12.425L13.538 19.6064C13.3792 19.7107 13.1751 19.7223 13.0081 19.633C12.8388 19.5426 12.7344 19.3675 12.7344 19.1762V15.0248C11.0565 15.0353 9.66733 15.1095 8.51122 15.2486C2.96259 15.9061 1.47948 19.2376 1.41918 19.3802C1.33685 19.5716 1.149 19.6945 0.943751 19.6945C0.908964 19.6968 0.874176 19.6945 0.842867 19.6875Z" fill="#BF1B39"/>
</g>
</g>
</g>
</g>
<defs>
<clipPath id="clip0_757_1813">
<rect width="24" height="24" fill="white" transform="translate(0.427734)"/>
</clipPath>
</defs>
</svg>
