<svg xmlns="http://www.w3.org/2000/svg" width="14" height="14" viewBox="0 0 14 14" fill="none">
  <path d="M12.6002 10.6C12.6044 10.8871 12.5467 11.1718 12.4311 11.4346C12.3155 11.6974 12.1447 11.9323 11.9302 12.1232C11.7157 12.3141 11.4626 12.4566 11.1882 12.541C10.9137 12.6254 10.6243 12.6497 10.3396 12.6123C10.0549 12.5748 9.78165 12.4765 9.53834 12.3241C9.29503 12.1716 9.08741 11.9685 8.92958 11.7286C8.77176 11.4888 8.66744 11.2177 8.62371 10.9339C8.57998 10.6501 8.59787 10.3603 8.67616 10.084L4.96416 8.232C4.70771 8.55996 4.3553 8.79971 3.95608 8.91782C3.55687 9.03593 3.13074 9.02652 2.73713 8.8909C2.34352 8.75527 2.00204 8.50019 1.76032 8.16123C1.51859 7.82227 1.38867 7.41632 1.38867 7C1.38867 6.58368 1.51859 6.17773 1.76032 5.83877C2.00204 5.49981 2.34352 5.24473 2.73713 5.1091C3.13074 4.97348 3.55687 4.96406 3.95608 5.08218C4.3553 5.20029 4.70771 5.44004 4.96416 5.768L8.67616 3.916C8.62842 3.74805 8.60287 3.57458 8.60016 3.4C8.5947 2.92065 8.75955 2.45491 9.06536 2.08574C9.37117 1.71657 9.7981 1.46793 10.2701 1.3841C10.7421 1.30027 11.2285 1.38669 11.6428 1.62797C12.057 1.86926 12.3721 2.24974 12.5321 2.70166C12.692 3.15358 12.6863 3.6476 12.5161 4.09573C12.3458 4.54386 12.022 4.91702 11.6024 5.14874C11.1827 5.38047 10.6944 5.45571 10.2245 5.36108C9.75454 5.26645 9.33343 5.00809 9.03616 4.632L5.32416 6.484C5.4256 6.82052 5.4256 7.17948 5.32416 7.516L9.03616 9.368C9.29388 9.04462 9.6455 8.80908 10.0426 8.69379C10.4397 8.5785 10.8628 8.58914 11.2536 8.72424C11.6445 8.85934 11.9838 9.11225 12.2249 9.44817C12.4661 9.78409 12.5972 10.1865 12.6002 10.6Z" fill="white"/>
</svg>