<svg width="29" height="24" viewBox="0 0 29 24" fill="none" xmlns="http://www.w3.org/2000/svg">
<g opacity="0.9">
<rect x="0.5" width="28" height="24" rx="2" fill="#7B7B7B"/>
<path d="M16.6875 12C16.6875 12.4326 16.5592 12.8556 16.3188 13.2153C16.0785 13.575 15.7368 13.8554 15.3371 14.021C14.9374 14.1866 14.4976 14.2299 14.0732 14.1455C13.6489 14.0611 13.2591 13.8527 12.9532 13.5468C12.6473 13.2409 12.4389 12.8511 12.3545 12.4268C12.2701 12.0024 12.3134 11.5626 12.479 11.1629C12.6446 10.7632 12.925 10.4215 13.2847 10.1812C13.6444 9.94079 14.0674 9.8125 14.5 9.8125C15.0802 9.8125 15.6366 10.043 16.0468 10.4532C16.457 10.8634 16.6875 11.4198 16.6875 12ZM8.25 9.8125C7.81735 9.8125 7.39442 9.94079 7.03469 10.1812C6.67496 10.4215 6.39458 10.7632 6.22901 11.1629C6.06345 11.5626 6.02013 12.0024 6.10453 12.4268C6.18894 12.8511 6.39728 13.2409 6.7032 13.5468C7.00913 13.8527 7.39891 14.0611 7.82324 14.1455C8.24757 14.2299 8.68741 14.1866 9.08712 14.021C9.48683 13.8554 9.82848 13.575 10.0688 13.2153C10.3092 12.8556 10.4375 12.4326 10.4375 12C10.4375 11.4198 10.207 10.8634 9.7968 10.4532C9.38656 10.043 8.83016 9.8125 8.25 9.8125ZM20.75 9.8125C20.3174 9.8125 19.8944 9.94079 19.5347 10.1812C19.175 10.4215 18.8946 10.7632 18.729 11.1629C18.5634 11.5626 18.5201 12.0024 18.6045 12.4268C18.6889 12.8511 18.8973 13.2409 19.2032 13.5468C19.5091 13.8527 19.8989 14.0611 20.3232 14.1455C20.7476 14.2299 21.1874 14.1866 21.5871 14.021C21.9868 13.8554 22.3285 13.575 22.5688 13.2153C22.8092 12.8556 22.9375 12.4326 22.9375 12C22.9375 11.7127 22.8809 11.4283 22.771 11.1629C22.6611 10.8975 22.4999 10.6563 22.2968 10.4532C22.0937 10.2501 21.8525 10.0889 21.5871 9.97901C21.3217 9.86908 21.0373 9.8125 20.75 9.8125Z" fill="white"/>
</g>
</svg>
