<svg width="20" height="20" viewBox="0 0 20 20" fill="none" xmlns="http://www.w3.org/2000/svg">
<rect width="20" height="20" rx="10" fill="white"/>
<path d="M11.0029 11.3522C10.7043 11.5512 10.3575 11.6564 10 11.6564C9.64248 11.6564 9.2957 11.5512 8.99716 11.3522L4.0799 8.07388C4.05262 8.0557 4.02604 8.03674 4 8.01724V13.389C4 14.0049 4.4998 14.4937 5.10468 14.4937H14.8953C15.5112 14.4937 16 13.9939 16 13.389V8.01721C15.9739 8.03676 15.9473 8.05577 15.9199 8.07398L11.0029 11.3522Z" fill="#3C3C3C"/>
<path d="M4.46992 7.48885L9.38718 10.7671C9.57332 10.8912 9.78665 10.9533 9.99998 10.9533C10.2133 10.9533 10.4267 10.8912 10.6128 10.7671L15.5301 7.48885C15.8243 7.2928 16 6.96467 16 6.61053C16 6.0016 15.5046 5.50623 14.8957 5.50623H5.1043C4.4954 5.50625 4 6.00162 4 6.61112C4 6.96467 4.17569 7.2928 4.46992 7.48885Z" fill="#3C3C3C"/>
</svg>
