<svg width="20" height="20" viewBox="0 0 20 20" fill="none" xmlns="http://www.w3.org/2000/svg">
<rect width="20" height="20" rx="10" fill="white"/>
<path d="M8.12305 11.125V14.125C8.12305 14.2245 8.16256 14.3198 8.23288 14.3902C8.30321 14.4605 8.39859 14.5 8.49805 14.5H11.498C11.5975 14.5 11.6929 14.4605 11.7632 14.3902C11.8335 14.3198 11.873 14.2245 11.873 14.125V11.125H8.12305ZM10.748 13.75H9.24805C9.14859 13.75 9.05321 13.7105 8.98288 13.6402C8.91256 13.5698 8.87305 13.4745 8.87305 13.375C8.87305 13.2755 8.91256 13.1802 8.98288 13.1098C9.05321 13.0395 9.14859 13 9.24805 13H10.748C10.8475 13 10.9429 13.0395 11.0132 13.1098C11.0835 13.1802 11.123 13.2755 11.123 13.375C11.123 13.4745 11.0835 13.5698 11.0132 13.6402C10.9429 13.7105 10.8475 13.75 10.748 13.75ZM10.748 12.625H9.24805C9.14859 12.625 9.05321 12.5855 8.98288 12.5152C8.91256 12.4448 8.87305 12.3495 8.87305 12.25C8.87305 12.1505 8.91256 12.0552 8.98288 11.9848C9.05321 11.9145 9.14859 11.875 9.24805 11.875H10.748C10.8475 11.875 10.9429 11.9145 11.0132 11.9848C11.0835 12.0552 11.123 12.1505 11.123 12.25C11.123 12.3495 11.0835 12.4448 11.0132 12.5152C10.9429 12.5855 10.8475 12.625 10.748 12.625Z" fill="#3C3C3C"/>
<path d="M13.748 7.75H6.24805C6.10026 7.7498 5.95388 7.77877 5.8173 7.83523C5.68072 7.8917 5.55662 7.97456 5.45211 8.07907C5.34761 8.18357 5.26475 8.30767 5.20828 8.44425C5.15181 8.58083 5.12285 8.72721 5.12305 8.875V11.875C5.12392 12.1731 5.24272 12.4587 5.45351 12.6695C5.6643 12.8803 5.94995 12.9991 6.24805 13H7.37305V10.75C7.37334 10.6506 7.41294 10.5554 7.4832 10.4852C7.55346 10.4149 7.64868 10.3753 7.74805 10.375H12.248C12.3474 10.3753 12.4426 10.4149 12.5129 10.4852C12.5832 10.5554 12.6228 10.6506 12.623 10.75V13H13.748C14.0461 12.9991 14.3318 12.8803 14.5426 12.6695C14.7534 12.4587 14.8722 12.1731 14.873 11.875V8.875C14.8732 8.72721 14.8443 8.58083 14.7878 8.44425C14.7313 8.30767 14.6485 8.18357 14.544 8.07907C14.4395 7.97456 14.3154 7.8917 14.1788 7.83523C14.0422 7.77877 13.8958 7.7498 13.748 7.75ZM12.998 9.625C12.9486 9.62556 12.8996 9.61624 12.8539 9.59759C12.8081 9.57894 12.7666 9.55134 12.7316 9.51641C12.6967 9.48148 12.6691 9.43991 12.6505 9.39416C12.6318 9.34842 12.6225 9.2994 12.623 9.25C12.623 9.17583 12.645 9.10333 12.6862 9.04166C12.7275 8.97999 12.786 8.93193 12.8545 8.90355C12.9231 8.87516 12.9985 8.86774 13.0712 8.88221C13.144 8.89668 13.2108 8.93239 13.2632 8.98484C13.3157 9.03728 13.3514 9.1041 13.3658 9.17684C13.3803 9.24959 13.3729 9.32499 13.3445 9.39351C13.3161 9.46203 13.2681 9.5206 13.2064 9.5618C13.1447 9.60301 13.0722 9.625 12.998 9.625Z" fill="#3C3C3C"/>
<path d="M12.623 5.875V7.375H7.37305V5.875C7.37333 5.77563 7.41293 5.68042 7.4832 5.61015C7.55346 5.53989 7.64868 5.50029 7.74805 5.5H12.248C12.3474 5.50029 12.4426 5.53989 12.5129 5.61015C12.5832 5.68042 12.6228 5.77563 12.623 5.875Z" fill="#3C3C3C"/>
</svg>
