<svg width="20" height="20" viewBox="0 0 20 20" fill="none" xmlns="http://www.w3.org/2000/svg">
<rect width="20" height="20" rx="10" fill="white"/>
<g clip-path="url(#clip0_990_2371)">
<path d="M9.21806 9.21738C10.6588 9.21738 11.8268 8.04943 11.8268 6.60869C11.8268 5.16795 10.6588 4 9.21806 4C7.77732 4 6.60938 5.16795 6.60938 6.60869C6.60938 8.04943 7.77732 9.21738 9.21806 9.21738Z" fill="#3C3C3C"/>
<path d="M12.2458 10.916C11.6937 11.1558 11.3058 11.7112 11.3058 12.3478C10.445 12.3478 9.74057 13.0522 9.74057 13.9131C9.74057 14.0957 9.7719 14.273 9.83444 14.4348H6.61014C5.79069 14.4348 5.08262 13.8032 5.0474 12.9845C4.98322 11.4924 6.17549 10.2609 7.65362 10.2609H10.7841C11.3362 10.2609 11.8513 10.4342 12.2741 10.7331C12.3418 10.781 12.3219 10.8829 12.2458 10.916Z" fill="#3C3C3C"/>
<path d="M14.9532 13.913C14.9532 14.1999 14.7185 14.4348 14.4315 14.4348H13.388V15.4782C13.388 15.7651 13.1533 16 12.8663 16C12.5793 16 12.3445 15.7651 12.3445 15.4782V14.4348H11.301C11.014 14.4348 10.7793 14.1999 10.7793 13.913C10.7793 13.6262 11.014 13.3913 11.301 13.3913H12.3445V12.3478C12.3445 12.0609 12.5793 11.826 12.8663 11.826C13.1533 11.826 13.388 12.0609 13.388 12.3478V13.3913H14.4315C14.7185 13.3913 14.9532 13.6261 14.9532 13.913Z" fill="#3C3C3C"/>
</g>
<defs>
<clipPath id="clip0_990_2371">
<rect width="12" height="12" fill="white" transform="translate(4 4)"/>
</clipPath>
</defs>
</svg>
