<svg width="20" height="20" viewBox="0 0 20 20" fill="none" xmlns="http://www.w3.org/2000/svg">
<rect width="20" height="20" rx="10" fill="white"/>
<g clip-path="url(#clip0_996_2555)">
<path d="M10.002 3.99997C7.7964 3.99997 6.00195 5.79441 6.00195 7.99998C6.00195 8.66209 6.16749 9.31857 6.48219 9.90085L9.78322 15.8711C9.82716 15.9507 9.91091 16 10.002 16C10.093 16 10.1768 15.9507 10.2207 15.8711L13.523 9.89888C13.8364 9.31857 14.002 8.66206 14.002 7.99995C14.002 5.79441 12.2075 3.99997 10.002 3.99997ZM10.002 9.99997C8.89918 9.99997 8.00197 9.10276 8.00197 7.99998C8.00197 6.8972 8.89918 5.99999 10.002 5.99999C11.1047 5.99999 12.002 6.8972 12.002 7.99998C12.002 9.10276 11.1047 9.99997 10.002 9.99997Z" fill="#005B8D"/>
</g>
<defs>
<clipPath id="clip0_996_2555">
<rect width="12" height="12" fill="white" transform="translate(4 4)"/>
</clipPath>
</defs>
</svg>
