<svg width="20" height="20" viewBox="0 0 20 20" fill="none" xmlns="http://www.w3.org/2000/svg">
<rect width="20" height="20" rx="10" fill="white"/>
<g clip-path="url(#clip0_990_2395)">
<path d="M15.0371 11.8766C14.3024 11.8766 13.5811 11.7617 12.8975 11.5358C12.5625 11.4216 12.1507 11.5264 11.9463 11.7363L10.597 12.7549C9.03222 11.9196 8.06834 10.9561 7.24447 9.40303L8.23306 8.08891C8.48991 7.83241 8.58203 7.45772 8.47166 7.10616C8.24478 6.41897 8.12953 5.69794 8.12953 4.96294C8.12956 4.43197 7.69759 4 7.16666 4H4.96291C4.43197 4 4 4.43197 4 4.96291C4 11.0488 8.95119 16 15.0371 16C15.5681 16 16 15.568 16 15.0371V12.8395C16 12.3086 15.568 11.8766 15.0371 11.8766Z" fill="#3C3C3C"/>
</g>
<defs>
<clipPath id="clip0_990_2395">
<rect width="12" height="12" fill="white" transform="translate(4 4)"/>
</clipPath>
</defs>
</svg>
