<svg width="20" height="20" viewBox="0 0 20 20" fill="none" xmlns="http://www.w3.org/2000/svg">
<rect width="20" height="20" rx="10" fill="white"/>
<g clip-path="url(#clip0_990_2413)">
<path d="M9.97461 14.1016V9.90625C9.97461 8.7201 8.99281 7.39844 7.58398 7.39844H7.4668C6.08398 7.39844 4.95898 8.52344 4.95898 9.90625V13.75C4.95898 13.9442 5.11639 14.1016 5.31055 14.1016H9.97461Z" fill="#3C3C3C"/>
<path d="M12.5292 7.39844H12.1776V9.0625C12.1776 9.25666 12.0202 9.41406 11.8261 9.41406C11.6319 9.41406 11.4745 9.25666 11.4745 9.0625C11.4745 8.78165 11.4745 6.9857 11.4745 6.60156H13.7479C14.0209 6.60156 14.1898 6.30311 14.0494 6.06913L13.5941 5.3103L14.0513 4.52917C14.1883 4.29527 14.0193 4 13.7479 4H11.1229C10.9288 4 10.7714 4.15741 10.7714 4.35156V7.39844H9.48438C10.2411 8.03252 10.6776 8.98152 10.6776 9.90625V14.1016H14.6854C14.8796 14.1016 15.037 13.9442 15.037 13.75V9.90625C15.037 8.52344 13.912 7.39844 12.5292 7.39844Z" fill="#3C3C3C"/>
<path d="M9.27148 14.8047V15.6484C9.27148 15.8426 9.42889 16 9.62305 16H11.123C11.3172 16 11.4746 15.8426 11.4746 15.6484V14.8047H9.27148Z" fill="#3C3C3C"/>
</g>
<defs>
<clipPath id="clip0_990_2413">
<rect width="12" height="12" fill="white" transform="translate(4 4)"/>
</clipPath>
</defs>
</svg>
