<svg width="20" height="20" viewBox="0 0 20 20" fill="none" xmlns="http://www.w3.org/2000/svg">
<rect width="20" height="20" rx="10" fill="white"/>
<g clip-path="url(#clip0_990_2363)">
<path d="M13.3621 4.6387H9.67763C9.44444 4.6387 9.22049 4.73154 9.05549 4.89653L4.25967 9.69147C3.91605 10.0351 3.91605 10.5921 4.25967 10.9362L7.94409 14.6206C8.28772 14.9642 8.84474 14.9642 9.18837 14.6206L13.9842 9.82567C14.1492 9.66023 14.242 9.43628 14.242 9.20265V5.51867C14.242 5.03249 13.8482 4.6387 13.3621 4.6387ZM11.8221 7.71859C11.4578 7.71859 11.1621 7.42292 11.1621 7.05861C11.1621 6.69431 11.4578 6.39864 11.8221 6.39864C12.1864 6.39864 12.4821 6.69431 12.4821 7.05861C12.4821 7.42292 12.1864 7.71859 11.8221 7.71859Z" fill="#3C3C3C"/>
<path d="M15.1215 5.51859L15.1211 9.61439C15.1211 9.81722 15.0406 10.0121 14.8967 10.1556L10.0234 15.0288L10.0982 15.1036C10.4419 15.4473 10.9989 15.4473 11.3425 15.1036L15.7432 10.7038C15.9087 10.5388 16.0015 10.3148 16.0015 10.0817V6.39855C16.0015 5.91237 15.6077 5.51859 15.1215 5.51859Z" fill="#3C3C3C"/>
</g>
<defs>
<clipPath id="clip0_990_2363">
<rect width="12" height="12" fill="white" transform="translate(4 4)"/>
</clipPath>
</defs>
</svg>
