<svg width="20" height="20" viewBox="0 0 20 20" fill="none" xmlns="http://www.w3.org/2000/svg">
<rect width="20" height="20" rx="10" fill="white"/>
<g clip-path="url(#clip0_990_2360)">
<path fill-rule="evenodd" clip-rule="evenodd" d="M4.61398 10.2919C4.63957 10.6857 4.68263 10.9971 4.79115 11.3987C4.82058 11.5077 4.91602 11.5808 5.0289 11.5808H6.54186C6.68872 11.5808 6.80197 11.4552 6.7868 11.3091C6.69748 10.4485 6.6879 9.55344 6.75905 8.68531C6.77086 8.54105 6.65836 8.41895 6.51361 8.41895H5.02892C4.91607 8.41895 4.82061 8.49205 4.79117 8.60101C4.71795 8.87218 4.6651 9.15165 4.63571 9.43763C4.60927 9.69425 4.60632 9.86087 4.6077 10.1143L4.61398 10.2919ZM6.92096 7.42791C7.0205 6.87005 7.15407 6.33606 7.31869 5.83742C7.39229 5.61448 7.1382 5.4242 6.94498 5.55753C6.30045 6.00223 5.75675 6.58348 5.35653 7.25914C5.259 7.42377 5.37708 7.63093 5.56843 7.63093H6.67852C6.79892 7.63093 6.89982 7.54644 6.92096 7.42791ZM12.2605 7.33679C12.078 6.4156 11.7956 5.57621 11.4275 4.88166C11.3933 4.81714 11.3389 4.77484 11.2679 4.75763C10.4365 4.55621 9.56246 4.55638 8.7316 4.75763C8.66061 4.77484 8.60618 4.81712 8.57197 4.88166C8.2039 5.57623 7.92158 6.4156 7.73902 7.33679C7.70869 7.48984 7.82457 7.63093 7.98059 7.63093H12.0189C12.175 7.63093 12.2908 7.48984 12.2605 7.33679ZM13.321 7.63093H14.4311C14.6225 7.63093 14.7405 7.42379 14.643 7.25916C14.2428 6.58339 13.6991 6.00198 13.0545 5.55737C12.8612 5.42408 12.6072 5.61437 12.6808 5.83728C12.8454 6.33596 12.979 6.87001 13.0786 7.42794C13.0997 7.54644 13.2006 7.63093 13.321 7.63093ZM13.4577 11.5808H14.9707C15.0835 11.5808 15.179 11.5077 15.2084 11.3988C15.2816 11.1277 15.3345 10.8482 15.3638 10.5621C15.3925 10.2818 15.3918 10.1534 15.3918 9.8747C15.3918 9.76302 15.3737 9.53382 15.3638 9.43763C15.3344 9.15165 15.2816 8.87218 15.2084 8.60101C15.179 8.49205 15.0835 8.41895 14.9706 8.41895H13.4859C13.3412 8.41895 13.2287 8.54105 13.2405 8.68531C13.3117 9.55346 13.3021 10.4485 13.2128 11.3091C13.1976 11.4552 13.3108 11.5808 13.4577 11.5808ZM13.0213 12.5656C12.9035 13.1394 12.7429 13.7136 12.5384 14.2491C12.4538 14.4706 12.7017 14.6722 12.9013 14.5443C13.6132 14.0881 14.2111 13.4693 14.6429 12.7406C14.7404 12.576 14.6224 12.3688 14.431 12.3688H13.2626C13.1444 12.3688 13.0451 12.4498 13.0213 12.5656ZM7.4611 14.249C7.25663 13.7135 7.09599 13.1395 6.97819 12.5656C6.95443 12.4498 6.85512 12.3688 6.73697 12.3688H5.56857C5.3772 12.3688 5.25915 12.576 5.35669 12.7406C5.78843 13.4692 6.38635 14.088 7.09817 14.5442C7.29776 14.6721 7.54568 14.4705 7.4611 14.249ZM11.9502 12.3688H8.04936C7.8904 12.3688 7.77385 12.515 7.80929 12.67C8.03079 13.6383 8.36429 14.5024 8.78897 15.1796C8.82636 15.2392 8.88071 15.2766 8.94975 15.2903C9.64294 15.4276 10.356 15.4277 11.0498 15.2903C11.1188 15.2766 11.1732 15.2392 11.2106 15.1796C11.6352 14.5024 11.9688 13.6385 12.1903 12.67C12.2257 12.515 12.1092 12.3688 11.9502 12.3688ZM7.50007 9.84195C7.50007 10.3587 7.5305 10.8684 7.58752 11.3628C7.60193 11.4876 7.70644 11.5808 7.83216 11.5808H12.1674C12.2931 11.5808 12.3976 11.4876 12.412 11.3628C12.5156 10.4651 12.5275 9.54758 12.4459 8.64308C12.4343 8.51574 12.3285 8.41897 12.2006 8.41897H7.79895C7.67108 8.41897 7.56518 8.51574 7.55368 8.64308C7.51824 9.03575 7.50007 9.43674 7.50007 9.84195Z" fill="#3C3C3C"/>
</g>
<defs>
<clipPath id="clip0_990_2360">
<rect width="12" height="12" fill="white" transform="translate(4 4)"/>
</clipPath>
</defs>
</svg>
