<svg width="190" height="50" viewBox="0 0 190 50" fill="none" xmlns="http://www.w3.org/2000/svg">
<path d="M38.1017 31.4674C38.0548 31.3871 36.9714 29.4877 34.1557 28.8858C33.8481 28.8189 33.5271 28.7854 33.1993 28.7854C30.6713 28.7854 28.3372 30.7451 26.9394 31.9155C26.3107 32.4438 25.4881 33.0457 24.6989 33.0457C23.8762 33.0457 23.174 32.3903 22.5386 31.0393C20.9335 27.615 20.3383 26.2105 19.9704 25.2943C19.6427 24.4783 19.2481 23.3012 19.6293 22.4585C19.9102 21.8432 22.0303 19.8234 23.1673 18.74C23.5552 18.3721 23.8629 18.0779 24.0167 17.9173C24.6119 17.3087 28.277 13.6838 28.7852 13.1822L32.4837 12.1388C33.293 11.9115 34.3162 12.2191 35.9548 13.1554L36.3293 13.3695C37.7071 14.1653 38.9042 14.8542 40.2686 14.8542C40.4826 14.8542 40.7033 14.8341 40.924 14.8007C42.7164 14.5198 43.6661 13.1019 43.9604 11.8646L44.0005 11.965L36.209 5.18326H25.3142L25.2339 4.96924C25.2339 4.96924 16.1583 11.7108 14.0382 13.3159C13.8108 13.4898 13.5901 13.5835 13.3827 13.744C11.6305 15.0615 10.3597 15.9845 9.84477 17.7033C9.30973 19.5024 0.220704 49.0637 0.127072 49.3579L0 50H19.2548L38.222 31.9355L38.1017 31.4674Z" fill="#75A237"/>
<path d="M68.3461 49.1372C68.3394 49.0837 67.4366 43.8135 66.4668 38.4765C66.0655 36.2828 65.5773 33.5473 65.1225 30.9658C64.4671 27.2539 63.8384 23.7426 63.6244 22.7194C63.31 21.248 61.2702 18.2517 59.5313 15.8039L59.324 15.5163C58.8023 14.7739 56.9765 12.393 55.6523 10.6541C54.9166 9.69101 54.3347 8.93526 54.2344 8.79481C53.9401 8.38015 53.1443 7.71134 53.0239 7.61771L41.0256 0L40.8517 0.127074C39.6679 1.0099 38.5978 2.76217 40.1962 6.11289C41.594 9.04227 45.8008 12.0853 46.4362 12.5401C48.9709 18.5259 52.0274 23.4885 52.4286 24.1306C52.7764 29.7686 52.0006 33.5808 50.0544 35.7745C49.2384 36.6974 48.3489 37.1656 47.4059 37.1656C46.4429 37.1656 45.5935 36.6774 45.0317 36.3095C44.831 36.1824 44.617 36.0086 44.3562 35.8079C43.2527 34.9452 41.5807 33.641 39.066 33.641C35.9293 33.641 34.4312 36.5904 34.371 36.7108L34.2773 36.8981L45.3661 49.4783L68.4063 49.5118L68.3461 49.1372ZM47.7403 42.0412C47.4929 42.1816 47.2454 42.2552 47.0247 42.2552C46.289 42.2552 45.7607 41.4593 45.4998 39.988C45.8744 40.2087 46.4094 40.4093 47.0916 40.4093C47.6133 40.4093 48.1483 40.2889 48.6967 40.0481C48.5763 40.7504 48.3021 41.7269 47.7403 42.0412Z" fill="#75A237"/>
<path d="M98.5787 23.4216H91.1638C90.8568 23.4216 90.7073 23.2661 90.7073 22.9467V7.97159C90.7073 7.66046 90.8568 7.49671 91.1638 7.49671H93.722C94.029 7.49671 94.155 7.66046 94.155 7.97159V21.0554H98.5787C98.8857 21.0554 99.0117 21.211 99.0117 21.5303V22.9467C99.0117 23.2661 98.8778 23.4216 98.5787 23.4216ZM108.544 22.9959C108.001 23.3561 106.466 23.7164 105.01 23.7164C102.475 23.7164 100.043 22.9058 100.043 20.4905C100.043 17.4037 103.64 16.6832 106.332 16.1592V14.6691C106.332 13.7029 105.765 13.138 104.986 13.138C103.971 13.138 103.538 13.9076 103.317 14.5544C103.081 15.2995 102.601 15.5943 101.908 15.5943C101.153 15.5943 100.523 15.1194 100.523 14.2842C100.523 13.1789 101.893 11.4431 105.427 11.4431C107.639 11.4431 109.394 12.573 109.394 14.9802V21.1373C109.394 22.1198 109.197 22.5701 108.544 22.9959ZM106.332 17.5839C104.663 17.9195 103.081 18.4436 103.081 20.2203C103.081 21.2355 103.75 21.997 104.923 21.997C105.639 21.997 106.332 21.7268 106.332 20.8916V17.5839ZM120.942 23.4216H118.619C118.312 23.4216 118.187 23.2661 118.187 22.9467V15.0539C118.187 14.0796 117.754 13.2035 116.368 13.2035C114.959 13.2035 114.762 13.8831 114.762 14.579V22.9467C114.762 23.2661 114.613 23.4216 114.306 23.4216H112.007C111.7 23.4216 111.575 23.2661 111.575 22.9467V13.5637C111.575 12.7777 111.771 12.4584 112.464 12.1227C113.243 11.7379 114.786 11.4513 116.455 11.4513C119.163 11.4513 121.374 12.3765 121.374 14.8983V22.9467C121.374 23.2661 121.249 23.4216 120.942 23.4216ZM132.473 22.9304C131.891 23.3316 130.324 23.7246 128.852 23.7246C124.712 23.7246 123.13 21.1782 123.13 17.8868C123.13 14.5462 124.846 11.4841 128.16 11.4841C129.183 11.4841 129.876 11.8443 130.151 12.0245V6.66157C130.151 6.34226 130.285 6.18669 130.584 6.18669H132.859C133.166 6.18669 133.315 6.34226 133.315 6.66157V21.2273C133.315 22.0707 133.103 22.4964 132.473 22.9304ZM130.151 13.6129C129.868 13.4164 129.482 13.1871 128.805 13.1871C127.333 13.1871 126.333 14.7837 126.333 17.4938C126.333 20.3103 127.569 21.7595 128.844 21.7595C129.71 21.7595 130.143 21.3993 130.143 20.7443V13.6129H130.151ZM140.101 23.7164C137.393 23.7164 135.071 21.7514 135.071 17.6084C135.071 13.752 137.023 11.4513 140.211 11.4513C143.076 11.4513 144.414 13.2772 144.414 14.4071C144.414 15.2668 143.958 15.8235 143.045 15.8235C142.305 15.8235 141.919 15.4223 141.636 14.6281C141.462 14.1532 141.116 13.2117 140.03 13.2117C138.944 13.2117 138.015 14.4316 138.015 16.7078C138.015 19.0085 138.904 21.0636 140.88 21.0636C142.092 21.0636 142.659 20.2285 143.092 19.5325C143.265 19.2623 143.501 19.1068 143.808 19.1068C144.202 19.1068 144.461 19.4179 144.461 19.8518C144.454 21.5549 142.745 23.7164 140.101 23.7164ZM153.986 22.9959C153.443 23.3561 151.908 23.7164 150.452 23.7164C147.917 23.7164 145.485 22.9058 145.485 20.4905C145.485 17.4037 149.082 16.6832 151.774 16.1592V14.6691C151.774 13.7029 151.207 13.138 150.428 13.138C149.413 13.138 148.98 13.9076 148.759 14.5544C148.523 15.2995 148.043 15.5943 147.35 15.5943C146.595 15.5943 145.965 15.1194 145.965 14.2842C145.965 13.1789 147.327 11.4431 150.861 11.4431C153.073 11.4431 154.828 12.573 154.828 14.9802V21.1373C154.836 22.1198 154.639 22.5701 153.986 22.9959ZM151.782 17.5839C150.113 17.9195 148.531 18.4436 148.531 20.2203C148.531 21.2355 149.2 21.997 150.373 21.997C151.089 21.997 151.782 21.7268 151.782 20.8916V17.5839ZM163.589 14.7837C162.157 14.7837 162.526 13.228 161.314 13.228C160.645 13.228 160.212 13.5883 160.212 14.1942V22.9467C160.212 23.2661 160.063 23.4216 159.756 23.4216H157.457C157.158 23.4216 157.024 23.2661 157.024 22.9467V13.5637C157.024 12.7777 157.237 12.4584 157.937 12.1227C158.654 11.787 160.063 11.4513 161.621 11.4513C163.92 11.4513 164.849 12.2865 164.849 13.3672C164.849 14.2269 164.416 14.7837 163.589 14.7837ZM170.721 23.7164C167.816 23.7164 165.47 21.866 165.47 17.4938C165.47 13.3017 167.918 11.4513 170.697 11.4513C173.405 11.4513 175.16 13.5474 175.16 16.0282C175.16 16.6832 174.9 16.8633 174.357 16.9534L168.399 17.9687C168.595 19.7044 169.508 21.1537 171.35 21.1537C172.61 21.1537 173.476 20.253 173.909 19.598C174.058 19.3688 174.279 19.1968 174.578 19.1968C174.924 19.1968 175.207 19.508 175.207 19.9173C175.207 21.5794 173.389 23.7164 170.721 23.7164ZM170.351 13.2117C168.832 13.2117 168.249 14.8574 168.202 16.3721L172.193 15.6761C172.153 14.448 171.697 13.2117 170.351 13.2117Z" fill="#75A237"/>
<path d="M83.608 41.8133L78.8325 33.4761L78.7366 32.981V41.8133H77.7065V30.3617H78.2415L83.017 38.7068L83.1208 39.194V30.3617H84.151V41.8133H83.608ZM91.7535 39.5693C91.7535 39.8994 91.6896 40.2108 91.5618 40.5036C91.4394 40.7964 91.269 41.052 91.0507 41.2703C90.8325 41.4885 90.5769 41.6616 90.2841 41.7893C89.9913 41.9118 89.6798 41.973 89.3498 41.973H88.6949C88.3648 41.973 88.0534 41.9118 87.7606 41.7893C87.4678 41.6616 87.2122 41.4885 86.9939 41.2703C86.7757 41.052 86.6026 40.7964 86.4749 40.5036C86.3524 40.2108 86.2912 39.8994 86.2912 39.5693V35.8798C86.2912 35.5498 86.3524 35.2383 86.4749 34.9455C86.6026 34.6527 86.7757 34.3971 86.9939 34.1789C87.2122 33.9606 87.4678 33.7902 87.7606 33.6678C88.0534 33.54 88.3648 33.4761 88.6949 33.4761H89.3498C89.6798 33.4761 89.9913 33.54 90.2841 33.6678C90.5769 33.7902 90.8325 33.9606 91.0507 34.1789C91.269 34.3971 91.4394 34.6527 91.5618 34.9455C91.6896 35.2383 91.7535 35.5498 91.7535 35.8798V37.8044H87.2734V39.6252C87.2734 39.8222 87.3107 40.0085 87.3852 40.1842C87.4598 40.3546 87.5609 40.5036 87.6887 40.6314C87.8165 40.7592 87.9655 40.8603 88.1359 40.9349C88.3116 41.0094 88.4979 41.0467 88.6949 41.0467H89.3498C89.5467 41.0467 89.7304 41.0094 89.9008 40.9349C90.0765 40.8603 90.2282 40.7592 90.356 40.6314C90.4837 40.5036 90.5849 40.3546 90.6594 40.1842C90.734 40.0085 90.7712 39.8222 90.7712 39.6252V39.0822L91.7535 39.2419V39.5693ZM90.7712 35.8239C90.7712 35.627 90.734 35.4433 90.6594 35.2729C90.5849 35.0972 90.4837 34.9455 90.356 34.8177C90.2282 34.69 90.0765 34.5888 89.9008 34.5143C89.7304 34.4397 89.5467 34.4025 89.3498 34.4025H88.6949C88.4979 34.4025 88.3116 34.4397 88.1359 34.5143C87.9655 34.5888 87.8165 34.69 87.6887 34.8177C87.5609 34.9455 87.4598 35.0972 87.3852 35.2729C87.3107 35.4433 87.2734 35.627 87.2734 35.8239V37.0378H90.7712V35.8239ZM100.602 41.8133H100.067L98.1501 35.6483L98.1182 35.225L98.0862 35.6483L96.1696 41.8133H95.6266L92.8954 33.6358H93.8937L95.8422 39.8168L95.8741 40.2401L95.9061 39.8168L97.8227 33.6358H98.4136L100.322 39.8168L100.354 40.2401L100.386 39.8168L102.335 33.6358H103.333L100.602 41.8133ZM114.856 39.162C114.856 39.5507 114.777 39.9153 114.617 40.2561C114.462 40.5968 114.252 40.8949 113.986 41.1505C113.725 41.406 113.419 41.6083 113.068 41.7574C112.722 41.9011 112.354 41.973 111.966 41.973H111.143C110.754 41.973 110.384 41.9011 110.033 41.7574C109.687 41.6083 109.381 41.406 109.115 41.1505C108.854 40.8949 108.643 40.5968 108.484 40.2561C108.329 39.9153 108.252 39.5507 108.252 39.162V38.7068L109.282 38.5391V39.162C109.282 39.4176 109.333 39.6571 109.434 39.8807C109.541 40.099 109.682 40.2933 109.857 40.4637C110.033 40.6287 110.235 40.7592 110.464 40.855C110.698 40.9508 110.943 40.9987 111.199 40.9987H111.918C112.173 40.9987 112.415 40.9508 112.644 40.855C112.873 40.7592 113.076 40.6287 113.251 40.4637C113.427 40.2933 113.565 40.099 113.667 39.8807C113.773 39.6571 113.826 39.4176 113.826 39.162V38.8186C113.826 38.4247 113.749 38.0972 113.595 37.8364C113.44 37.5755 113.235 37.3546 112.98 37.1735C112.724 36.9872 112.434 36.8302 112.109 36.7024C111.79 36.5746 111.46 36.4468 111.119 36.3191C110.778 36.1913 110.446 36.0502 110.121 35.8958C109.801 35.7414 109.514 35.5498 109.258 35.3208C109.003 35.0866 108.798 34.8018 108.643 34.4664C108.489 34.131 108.412 33.7184 108.412 33.2286V33.0129C108.412 32.6243 108.484 32.2596 108.627 31.9189C108.777 31.5782 108.979 31.28 109.234 31.0245C109.49 30.7689 109.788 30.5693 110.129 30.4255C110.475 30.2765 110.842 30.2019 111.231 30.2019H111.966C112.354 30.2019 112.719 30.2765 113.06 30.4255C113.4 30.5693 113.698 30.7689 113.954 31.0245C114.21 31.28 114.409 31.5782 114.553 31.9189C114.702 32.2596 114.777 32.6243 114.777 33.0129V33.3084L113.746 33.4761V33.0129C113.746 32.7574 113.698 32.5205 113.603 32.3022C113.507 32.0786 113.376 31.8843 113.211 31.7192C113.046 31.5542 112.852 31.4238 112.628 31.3279C112.41 31.2321 112.173 31.1842 111.918 31.1842H111.279C111.023 31.1842 110.784 31.2321 110.56 31.3279C110.342 31.4238 110.147 31.5542 109.977 31.7192C109.812 31.8843 109.682 32.0786 109.586 32.3022C109.49 32.5205 109.442 32.7574 109.442 33.0129V33.2286C109.442 33.5959 109.519 33.9047 109.674 34.1549C109.828 34.4051 110.033 34.6208 110.289 34.8018C110.544 34.9775 110.832 35.1318 111.151 35.2649C111.476 35.3927 111.808 35.5258 112.149 35.6642C112.49 35.7973 112.82 35.9464 113.139 36.1114C113.464 36.2711 113.754 36.4708 114.01 36.7104C114.265 36.9446 114.47 37.2321 114.625 37.5728C114.779 37.9136 114.856 38.3288 114.856 38.8186V39.162ZM122.211 39.5693C122.211 39.8994 122.147 40.2108 122.02 40.5036C121.897 40.7964 121.727 41.052 121.509 41.2703C121.29 41.4885 121.035 41.6616 120.742 41.7893C120.449 41.9118 120.138 41.973 119.808 41.973H119.153C118.823 41.973 118.511 41.9118 118.218 41.7893C117.926 41.6616 117.67 41.4885 117.452 41.2703C117.233 41.052 117.06 40.7964 116.933 40.5036C116.81 40.2108 116.749 39.8994 116.749 39.5693V35.8798C116.749 35.5498 116.81 35.2383 116.933 34.9455C117.06 34.6527 117.233 34.3971 117.452 34.1789C117.67 33.9606 117.926 33.7902 118.218 33.6678C118.511 33.54 118.823 33.4761 119.153 33.4761H119.808C120.138 33.4761 120.449 33.54 120.742 33.6678C121.035 33.7902 121.29 33.9606 121.509 34.1789C121.727 34.3971 121.897 34.6527 122.02 34.9455C122.147 35.2383 122.211 35.5498 122.211 35.8798V39.5693ZM121.229 35.8239C121.229 35.627 121.192 35.4433 121.117 35.2729C121.043 35.0972 120.942 34.9455 120.814 34.8177C120.686 34.69 120.534 34.5888 120.359 34.5143C120.188 34.4397 120.005 34.4025 119.808 34.4025H119.153C118.956 34.4025 118.769 34.4397 118.594 34.5143C118.423 34.5888 118.274 34.69 118.147 34.8177C118.019 34.9455 117.918 35.0972 117.843 35.2729C117.769 35.4433 117.731 35.627 117.731 35.8239V39.6252C117.731 39.8222 117.769 40.0085 117.843 40.1842C117.918 40.3546 118.019 40.5036 118.147 40.6314C118.274 40.7592 118.423 40.8603 118.594 40.9349C118.769 41.0094 118.956 41.0467 119.153 41.0467H119.808C120.005 41.0467 120.188 41.0094 120.359 40.9349C120.534 40.8603 120.686 40.7592 120.814 40.6314C120.942 40.5036 121.043 40.3546 121.117 40.1842C121.192 40.0085 121.229 39.8222 121.229 39.6252V35.8239ZM129.311 41.8133L128.768 40.9828C128.544 41.2862 128.265 41.5285 127.929 41.7095C127.594 41.8852 127.226 41.973 126.827 41.973H126.58C126.249 41.973 125.938 41.9118 125.645 41.7893C125.352 41.6616 125.097 41.4885 124.879 41.2703C124.66 41.052 124.487 40.7964 124.359 40.5036C124.237 40.2108 124.176 39.8994 124.176 39.5693V33.6358H125.158V39.6252C125.158 39.8222 125.195 40.0085 125.27 40.1842C125.344 40.3546 125.446 40.5036 125.573 40.6314C125.701 40.7592 125.85 40.8603 126.021 40.9349C126.196 41.0094 126.383 41.0467 126.58 41.0467H127.234C127.431 41.0467 127.615 41.0094 127.785 40.9349C127.961 40.8603 128.113 40.7592 128.241 40.6314C128.368 40.5036 128.47 40.3546 128.544 40.1842C128.619 40.0085 128.656 39.8222 128.656 39.6252V33.6358H129.638V41.8133H129.311ZM134.581 41.8133C134.283 41.8133 134.001 41.7574 133.735 41.6456C133.474 41.5338 133.245 41.3794 133.048 41.1824C132.856 40.9854 132.702 40.7565 132.585 40.4956C132.473 40.2348 132.417 39.9553 132.417 39.6571V34.5702H130.948V33.6358H132.417V31.6713L133.399 31.5116V33.6358H135.476V34.5702H133.399V39.705C133.399 39.8701 133.429 40.0245 133.487 40.1682C133.551 40.3066 133.636 40.4291 133.743 40.5356C133.849 40.642 133.974 40.7272 134.118 40.7911C134.262 40.8497 134.416 40.879 134.581 40.879H135.476V41.8133H134.581ZM141.769 41.8133V35.8239C141.769 35.627 141.731 35.4433 141.657 35.2729C141.582 35.0972 141.481 34.9455 141.353 34.8177C141.225 34.69 141.074 34.5888 140.898 34.5143C140.728 34.4397 140.544 34.4025 140.347 34.4025H139.692C139.495 34.4025 139.309 34.4397 139.133 34.5143C138.963 34.5888 138.814 34.69 138.686 34.8177C138.558 34.9455 138.457 35.0972 138.383 35.2729C138.308 35.4433 138.271 35.627 138.271 35.8239V41.8133H137.288V30.3617H138.271V34.3226C138.494 34.0564 138.763 33.8488 139.077 33.6997C139.391 33.5507 139.732 33.4761 140.099 33.4761H140.347C140.677 33.4761 140.989 33.54 141.281 33.6678C141.574 33.7902 141.83 33.9606 142.048 34.1789C142.266 34.3971 142.437 34.6527 142.559 34.9455C142.687 35.2383 142.751 35.5498 142.751 35.8798V41.8133H141.769ZM156.462 41.8133H155.927L153.699 33.1966L153.667 32.7494L153.619 33.1966L151.407 41.8133H150.872L147.83 30.3617H148.86L151.104 39.0662L151.136 39.4894L151.168 39.0662L153.372 30.3617H153.947L156.151 39.0662L156.183 39.4894L156.223 39.0662L158.459 30.3617H159.489L156.462 41.8133ZM165.63 41.8133L165.087 40.9987C164.863 41.2916 164.584 41.5285 164.249 41.7095C163.913 41.8852 163.546 41.973 163.147 41.973H162.899C162.569 41.973 162.257 41.9118 161.965 41.7893C161.672 41.6616 161.416 41.4885 161.198 41.2703C160.98 41.052 160.807 40.7964 160.679 40.5036C160.556 40.2108 160.495 39.8994 160.495 39.5693V39.4894C160.495 39.1593 160.556 38.8479 160.679 38.5551C160.807 38.2623 160.98 38.0067 161.198 37.7885C161.416 37.5702 161.672 37.3998 161.965 37.2774C162.257 37.1496 162.569 37.0857 162.899 37.0857H164.975V35.8239C164.975 35.627 164.938 35.4433 164.863 35.2729C164.789 35.0972 164.688 34.9455 164.56 34.8177C164.432 34.69 164.28 34.5888 164.105 34.5143C163.934 34.4397 163.751 34.4025 163.554 34.4025H162.979C162.782 34.4025 162.595 34.4397 162.42 34.5143C162.249 34.5888 162.1 34.69 161.973 34.8177C161.845 34.9455 161.744 35.0972 161.669 35.2729C161.595 35.4433 161.557 35.627 161.557 35.8239V36.1194L160.575 35.9597V35.8798C160.575 35.5498 160.636 35.2383 160.759 34.9455C160.887 34.6527 161.06 34.3971 161.278 34.1789C161.496 33.9606 161.752 33.7902 162.044 33.6678C162.337 33.54 162.649 33.4761 162.979 33.4761H163.554C163.884 33.4761 164.195 33.54 164.488 33.6678C164.781 33.7902 165.036 33.9606 165.255 34.1789C165.473 34.3971 165.643 34.6527 165.766 34.9455C165.894 35.2383 165.958 35.5498 165.958 35.8798V41.8133H165.63ZM164.975 37.8523H162.899C162.702 37.8523 162.516 37.8896 162.34 37.9641C162.17 38.0387 162.021 38.1425 161.893 38.2756C161.765 38.4034 161.664 38.5551 161.589 38.7308C161.515 38.9011 161.477 39.0848 161.477 39.2818V39.6252C161.477 39.8222 161.515 40.0085 161.589 40.1842C161.664 40.3546 161.765 40.5036 161.893 40.6314C162.021 40.7592 162.17 40.8603 162.34 40.9349C162.516 41.0094 162.702 41.0467 162.899 41.0467H163.554C163.751 41.0467 163.934 41.0094 164.105 40.9349C164.28 40.8603 164.432 40.7592 164.56 40.6314C164.688 40.5036 164.789 40.3546 164.863 40.1842C164.938 40.0085 164.975 39.8222 164.975 39.6252V37.8523ZM168.249 41.8133V30.3617H169.232V41.8133H168.249ZM176.994 39.5693C176.994 39.8994 176.93 40.2108 176.802 40.5036C176.68 40.7964 176.509 41.052 176.291 41.2703C176.073 41.4885 175.817 41.6616 175.524 41.7893C175.232 41.9118 174.92 41.973 174.59 41.973H173.935C173.605 41.973 173.294 41.9118 173.001 41.7893C172.708 41.6616 172.453 41.4885 172.234 41.2703C172.016 41.052 171.843 40.7964 171.715 40.5036C171.593 40.2108 171.532 39.8994 171.532 39.5693V35.8798C171.532 35.5498 171.593 35.2383 171.715 34.9455C171.843 34.6527 172.016 34.3971 172.234 34.1789C172.453 33.9606 172.708 33.7902 173.001 33.6678C173.294 33.54 173.605 33.4761 173.935 33.4761H174.59C174.92 33.4761 175.232 33.54 175.524 33.6678C175.817 33.7902 176.073 33.9606 176.291 34.1789C176.509 34.3971 176.68 34.6527 176.802 34.9455C176.93 35.2383 176.994 35.5498 176.994 35.8798V37.8044H172.514V39.6252C172.514 39.8222 172.551 40.0085 172.626 40.1842C172.7 40.3546 172.801 40.5036 172.929 40.6314C173.057 40.7592 173.206 40.8603 173.376 40.9349C173.552 41.0094 173.738 41.0467 173.935 41.0467H174.59C174.787 41.0467 174.971 41.0094 175.141 40.9349C175.317 40.8603 175.469 40.7592 175.596 40.6314C175.724 40.5036 175.825 40.3546 175.9 40.1842C175.974 40.0085 176.012 39.8222 176.012 39.6252V39.0822L176.994 39.2419V39.5693ZM176.012 35.8239C176.012 35.627 175.974 35.4433 175.9 35.2729C175.825 35.0972 175.724 34.9455 175.596 34.8177C175.469 34.69 175.317 34.5888 175.141 34.5143C174.971 34.4397 174.787 34.4025 174.59 34.4025H173.935C173.738 34.4025 173.552 34.4397 173.376 34.5143C173.206 34.5888 173.057 34.69 172.929 34.8177C172.801 34.9455 172.7 35.0972 172.626 35.2729C172.551 35.4433 172.514 35.627 172.514 35.8239V37.0378H176.012V35.8239ZM184.58 39.737C184.58 40.0671 184.514 40.3705 184.381 40.6474C184.248 40.9189 184.067 41.1531 183.838 41.3501C183.609 41.5471 183.343 41.7015 183.039 41.8133C182.741 41.9198 182.427 41.973 182.097 41.973H181.442C181.112 41.973 180.795 41.9118 180.492 41.7893C180.194 41.6616 179.93 41.4885 179.701 41.2703C179.477 41.052 179.296 40.7964 179.158 40.5036C179.025 40.2108 178.958 39.8994 178.958 39.5693V39.2419L179.941 39.0822V39.6252C179.941 39.8222 179.981 40.0085 180.06 40.1842C180.146 40.3546 180.257 40.5036 180.396 40.6314C180.534 40.7592 180.694 40.8603 180.875 40.9349C181.056 41.0094 181.245 41.0467 181.442 41.0467H182.097C182.294 41.0467 182.483 41.0174 182.664 40.9588C182.845 40.9003 183.005 40.8177 183.143 40.7113C183.287 40.5995 183.398 40.4664 183.478 40.312C183.564 40.1576 183.606 39.9819 183.606 39.7849C183.606 39.4921 183.542 39.2525 183.414 39.0662C183.287 38.8798 183.116 38.7255 182.903 38.603C182.696 38.4752 182.456 38.3714 182.185 38.2916C181.918 38.2064 181.644 38.1239 181.362 38.044C181.08 37.9588 180.803 37.863 180.532 37.7565C180.265 37.65 180.026 37.5116 179.813 37.3412C179.605 37.1656 179.438 36.9473 179.31 36.6864C179.182 36.4255 179.118 36.1008 179.118 35.7121C179.118 35.3821 179.182 35.0813 179.31 34.8097C179.438 34.5329 179.611 34.296 179.829 34.099C180.047 33.902 180.3 33.7503 180.587 33.6438C180.88 33.532 181.192 33.4761 181.522 33.4761H182.097C182.427 33.4761 182.738 33.54 183.031 33.6678C183.324 33.7902 183.58 33.9606 183.798 34.1789C184.016 34.3971 184.186 34.6527 184.309 34.9455C184.437 35.2383 184.501 35.5498 184.501 35.8798V35.9118L183.518 36.0715V35.8239C183.518 35.627 183.481 35.4433 183.406 35.2729C183.332 35.0972 183.231 34.9455 183.103 34.8177C182.975 34.69 182.824 34.5888 182.648 34.5143C182.477 34.4397 182.294 34.4025 182.097 34.4025H181.522C181.325 34.4025 181.139 34.4318 180.963 34.4903C180.792 34.5489 180.643 34.6341 180.516 34.7459C180.388 34.8523 180.287 34.9828 180.212 35.1372C180.138 35.2916 180.1 35.4672 180.1 35.6642C180.1 35.9464 180.164 36.178 180.292 36.359C180.42 36.5347 180.587 36.6837 180.795 36.8062C181.008 36.9286 181.248 37.0325 181.514 37.1176C181.785 37.1975 182.06 37.2827 182.336 37.3732C182.619 37.4584 182.893 37.5569 183.159 37.6687C183.43 37.7805 183.67 37.9242 183.878 38.0999C184.091 38.2756 184.261 38.4965 184.389 38.7627C184.517 39.0236 184.58 39.3483 184.58 39.737Z" fill="#75A237"/>
</svg>
