<svg width="391" height="514" viewBox="0 0 391 514" fill="none" xmlns="http://www.w3.org/2000/svg">
<path d="M195.048 390C302.744 390 390.048 302.696 390.048 195C390.048 87.3045 302.744 0 195.048 0C87.3529 0 0.0484619 87.3045 0.0484619 195C0.0484619 302.696 87.3529 390 195.048 390Z" fill="#F0F4F7"/>
<path d="M266.435 46.2225H126.419V310.372H266.435V46.2225Z" fill="white"/>
<path d="M239.227 194.21V182.326L236.906 180.004V170.627L231.474 165.196V175.084L228.202 178.356L222.979 173.134L227.714 168.399L219.358 160.043L201.253 178.147H195.683L187.671 186.159C187.546 195.647 187.416 210.179 187.791 210.179C188.348 210.179 201.718 210.179 201.718 210.179V205.351H212.117V212.407H217.13V220.021L223.722 226.613L242.477 207.858V194.21L239.227 194.21Z" fill="#6FCFED" fill-opacity="0.4"/>
<path d="M261.261 326.183H130.625C122.31 326.183 115.545 319.418 115.545 311.103V42.9808C115.545 34.6657 122.309 27.9008 130.625 27.9008H261.261C269.576 27.9008 276.341 34.6657 276.341 42.9808V311.103C276.341 319.418 269.576 326.183 261.261 326.183ZM130.625 28.3271C122.544 28.3271 115.971 34.9006 115.971 42.9808V311.103C115.971 319.183 122.545 325.757 130.625 325.757H261.261C269.341 325.757 275.914 319.183 275.914 311.103V42.9808C275.914 34.9008 269.341 28.3271 261.261 28.3271H130.625Z" fill="#363E44"/>
<path d="M215.72 38.0661H177.134C177.016 38.0661 176.921 37.9706 176.921 37.853C176.921 37.7353 177.016 37.6399 177.134 37.6399H215.72C215.837 37.6399 215.933 37.7353 215.933 37.853C215.933 37.9706 215.837 38.0661 215.72 38.0661Z" fill="#363E44"/>
<path d="M317.744 293.845C317.689 293.845 317.634 293.824 317.594 293.783L312.766 288.955L308.741 292.98C308.661 293.06 308.52 293.06 308.44 292.98L304.283 288.824L299.508 293.599C299.447 293.66 299.355 293.678 299.276 293.645C299.196 293.612 299.144 293.535 299.144 293.448V271.714C299.144 271.596 299.24 271.501 299.357 271.501C299.475 271.501 299.571 271.596 299.571 271.714V292.934L304.132 288.372C304.212 288.292 304.354 288.292 304.434 288.372L308.59 292.528L312.615 288.503C312.695 288.423 312.837 288.423 312.917 288.503L317.531 293.118V271.714C317.531 271.596 317.626 271.501 317.744 271.501C317.862 271.501 317.957 271.596 317.957 271.714V293.632C317.957 293.718 317.906 293.796 317.826 293.829C317.8 293.84 317.772 293.845 317.744 293.845Z" fill="#F7F1EB"/>
<path d="M143.386 268.729C143.386 268.729 155.244 301.18 179.802 301.18C197.4 301.18 206.35 289.365 208.23 272.449C210.272 254.065 182.267 224.513 148.121 196.935C148.121 196.935 136.197 241.9 143.386 268.729Z" fill="#75A237"/>
<path d="M60.6877 266.811C60.6877 266.811 43.5338 310.588 18.3731 294.027C-26.5824 264.437 20.8616 220.068 55.1795 202.658C99.8407 180 132.151 192.225 148.121 196.935L145.261 291.385C144.991 300.285 137.699 307.36 128.794 307.36H70.3428C59.202 307.36 51.2737 296.532 54.6375 285.912L60.6877 266.811Z" fill="#75A237"/>
<path d="M53.7094 238.194C53.6918 238.194 53.6736 238.192 53.6557 238.187C53.5417 238.157 53.4733 238.041 53.5029 237.927L56.4433 226.601C56.4729 226.487 56.5891 226.418 56.7031 226.448C56.8171 226.478 56.8853 226.594 56.8559 226.708L53.9155 238.034C53.8906 238.13 53.8041 238.194 53.7094 238.194Z" fill="#363E44"/>
<path d="M145.54 282.377C145.538 282.377 145.536 282.377 145.534 282.377C145.416 282.373 145.324 282.275 145.327 282.157L145.734 268.723C145.738 268.605 145.84 268.51 145.953 268.516C146.071 268.52 146.164 268.618 146.16 268.736L145.753 282.17C145.75 282.286 145.655 282.377 145.54 282.377Z" fill="#363E44"/>
<path d="M28.5086 249.417C28.5086 249.417 59.2018 236.574 75.6385 230.191C104.118 219.131 120.519 222.191 120.538 226.286C120.56 230.729 112.017 228.195 107.944 229.487C108.605 229.814 110.346 231.152 110.433 233.348C110.561 236.598 108.184 237.614 108.005 237.796C108.237 237.887 110.716 238.943 111.144 241.103C111.627 243.536 110.629 245.408 109.149 246.537C109.72 246.782 111.738 247.918 112.093 250.007C112.458 252.156 111.389 254.684 109.368 255.361C105.658 256.602 94.5696 260.064 89.3639 262.457C79.1199 267.165 44.8261 289.143 28.3496 291.735C15.9972 292.228 10.2548 274.985 15.4082 261.387C18.6511 252.83 28.5086 249.417 28.5086 249.417Z" fill="#FAE4D2"/>
<path d="M104.689 254.772C104.587 254.772 104.496 254.698 104.479 254.594L103.908 251.113C103.888 250.997 103.967 250.887 104.083 250.868C104.199 250.85 104.309 250.928 104.328 251.044L104.9 254.525C104.919 254.641 104.84 254.75 104.724 254.77C104.712 254.771 104.701 254.772 104.689 254.772Z" fill="#363E44"/>
<path d="M103.167 246.405C103.062 246.405 102.97 246.327 102.956 246.22L102.425 242.265C102.41 242.149 102.492 242.041 102.608 242.026C102.726 242.01 102.832 242.092 102.848 242.208L103.379 246.164C103.394 246.28 103.312 246.387 103.196 246.403C103.186 246.404 103.176 246.405 103.167 246.405Z" fill="#363E44"/>
<path d="M102.128 237.499C102.026 237.499 101.936 237.425 101.918 237.32C101.811 236.671 101.719 236.084 101.626 235.497C101.533 234.911 101.441 234.324 101.333 233.675C101.314 233.559 101.393 233.449 101.509 233.43C101.627 233.412 101.735 233.49 101.754 233.606C101.861 234.256 101.954 234.843 102.047 235.431C102.139 236.017 102.232 236.603 102.339 237.251C102.358 237.367 102.279 237.477 102.163 237.496C102.152 237.498 102.14 237.499 102.128 237.499Z" fill="#363E44"/>
<path d="M100.62 230.268C100.523 230.268 100.436 230.202 100.412 230.104L99.6092 226.703C99.5821 226.589 99.6531 226.474 99.7678 226.447C99.8822 226.42 99.9969 226.491 100.024 226.605L100.827 230.006C100.854 230.121 100.783 230.236 100.669 230.263C100.652 230.267 100.636 230.268 100.62 230.268Z" fill="#363E44"/>
<path d="M30.527 245.185C31.4014 244.789 15.6273 277.461 38.3534 288.831C38.3534 288.831 30.5992 294.379 21.2659 291.746C11.9323 289.112 2.1981 258.018 30.527 245.185Z" fill="#278A27"/>
<path d="M150.11 242.874L164.399 278.967C168.267 288.736 179.419 293.406 189.093 289.307C199.593 284.858 203.704 272.13 197.791 262.379L177.948 229.661L150.11 242.874Z" fill="#FAE4D2"/>
<path d="M161.045 277.775C161.045 277.775 191.317 289.445 197.449 257.453L202.695 269.944C202.695 269.944 206.823 285.043 192.201 291.746C177.58 298.449 165.812 288.739 161.045 277.775Z" fill="#278A27"/>
<path d="M116.97 257.666C116.947 257.666 116.922 257.662 116.899 257.654C116.788 257.614 116.73 257.492 116.77 257.381L136.285 202.587C136.316 202.501 136.391 202.452 136.488 202.445L179.273 202.819C179.391 202.82 179.486 202.917 179.484 203.034C179.483 203.151 179.388 203.245 179.271 203.245C179.271 203.245 179.27 203.245 179.269 203.245L136.636 202.872L117.171 257.524C117.14 257.612 117.058 257.666 116.97 257.666Z" fill="#363E44"/>
<path d="M162.971 261.194H120.186L139.702 206.4H182.487L162.971 261.194Z" fill="#363E44"/>
<path d="M168.615 241.857C172.388 244.005 172.845 246.519 171.65 248.62C170.454 250.72 168.059 251.612 164.286 249.464C160.512 247.316 156.789 242.943 157.985 240.842C159.18 238.741 164.841 239.709 168.615 241.857Z" fill="#FAE4D2"/>
<path d="M171.922 234.122C176.296 236.612 176.825 239.526 175.44 241.961C174.054 244.395 171.278 245.428 166.904 242.939C162.531 240.449 158.216 235.381 159.602 232.946C160.987 230.512 167.549 231.633 171.922 234.122Z" fill="#FAE4D2"/>
<path d="M175.549 229.674C179.323 231.822 181.718 230.93 182.913 228.83C184.109 226.729 183.652 224.215 179.879 222.067C176.105 219.919 170.444 218.951 169.248 221.052C168.053 223.153 171.775 227.526 175.549 229.674Z" fill="#FAE4D2"/>
<path d="M170.588 236.467C174.961 238.956 177.738 237.923 179.123 235.489C180.509 233.054 179.979 230.14 175.606 227.65C171.232 225.161 164.671 224.04 163.285 226.474C161.899 228.909 166.214 233.978 170.588 236.467Z" fill="#FAE4D2"/>
<path d="M168.183 250.913C168.028 250.913 167.87 250.905 167.709 250.891C167.592 250.88 167.505 250.777 167.516 250.659C167.527 250.542 167.634 250.456 167.747 250.466C169.369 250.613 170.654 249.938 171.464 248.514C172.24 247.151 172.202 245.756 171.354 244.481C171.311 244.416 171.306 244.333 171.342 244.264C171.378 244.195 171.449 244.151 171.526 244.149C173.131 244.114 174.42 243.321 175.254 241.855C175.995 240.554 176.098 239.199 175.551 237.936C175.525 237.875 175.529 237.804 175.562 237.746C175.595 237.688 175.654 237.649 175.72 237.64C177.084 237.465 178.197 236.685 178.938 235.383C178.996 235.281 179.126 235.245 179.229 235.303C179.331 235.362 179.366 235.492 179.308 235.594C178.548 236.93 177.423 237.765 176.044 238.02C176.528 239.337 176.385 240.73 175.625 242.066C174.776 243.557 173.493 244.412 171.9 244.555C172.654 245.887 172.633 247.322 171.835 248.725C171.017 250.163 169.76 250.913 168.183 250.913Z" fill="#363E44"/>
<path d="M128.005 157.61C128.706 146.221 120.041 136.42 108.651 135.719C97.262 135.018 87.461 143.683 86.7604 155.073C86.0597 166.462 94.7247 176.263 106.114 176.964C117.504 177.664 127.305 168.999 128.005 157.61Z" fill="#363E44"/>
<path d="M121.656 166.636C119.042 165.192 114.562 161.334 113.118 163.949L96.1674 191.055C94.7229 193.67 103.394 192.76 106.008 194.204C108.623 195.649 111.913 194.701 113.358 192.086L123.775 173.986C125.219 171.371 124.271 168.081 121.656 166.636Z" fill="#FAE4D2"/>
<path d="M119.7 193.149C122.043 201.729 115.3 214.709 115.3 214.709C115.3 214.709 90.4677 202.658 90.4677 193.149C90.4677 190.719 97.0116 188.749 105.084 188.749C113.156 188.749 119.06 190.805 119.7 193.149Z" fill="#FAE4D2"/>
<path d="M135.338 174.094C132.993 178.483 119.246 176.596 119.246 176.596L107.257 167.247C104.134 160.982 106.68 153.371 112.945 150.248C119.21 147.124 126.821 149.671 129.945 155.936C129.945 155.936 137.727 169.624 135.338 174.094Z" fill="#FAE4D2"/>
<path d="M130.128 159.568C130.128 159.568 134.972 161.315 135.242 162.28C135.563 163.431 132.338 165.839 132.338 165.839C132.338 165.839 130.217 159.534 130.128 159.568Z" fill="#FAE4D2"/>
<path d="M119.65 164.187C119.65 164.187 121.039 162.218 123.329 161.077C123.816 160.834 124.84 165.19 124.268 165.2C121.751 165.243 119.65 164.187 119.65 164.187Z" fill="white"/>
<mask id="mask0_47_683" style="mask-type:luminance" maskUnits="userSpaceOnUse" x="119" y="160" width="13" height="6">
<path d="M119.65 164.187C119.65 164.187 121.694 161.292 124.907 160.488C128.121 159.684 131.287 161.276 131.287 161.276C131.287 161.276 129.243 164.171 126.03 164.974C122.816 165.778 119.65 164.187 119.65 164.187Z" fill="white"/>
</mask>
<g mask="url(#mask0_47_683)">
<path d="M123.376 160.929C124.135 158.66 126.59 157.436 128.859 158.195C131.128 158.954 132.352 161.409 131.592 163.678C130.833 165.947 128.378 167.171 126.109 166.412C123.84 165.653 122.616 163.198 123.376 160.929Z" fill="#363E44"/>
</g>
<path d="M129.718 169.603C129.644 169.603 129.57 169.599 129.496 169.59C128.749 169.505 128.101 168.991 127.846 168.279C127.806 168.168 127.864 168.046 127.975 168.007C128.085 167.967 128.208 168.024 128.247 168.135C128.448 168.695 128.957 169.1 129.544 169.167C130.152 169.236 130.751 168.938 131.067 168.407C131.127 168.306 131.258 168.272 131.359 168.333C131.46 168.393 131.493 168.524 131.433 168.625C131.07 169.235 130.413 169.603 129.718 169.603Z" fill="#363E44"/>
<path d="M98.2241 169.552C98.2241 169.552 116.036 170.338 127.3 152.525C138.563 134.713 107.654 135.761 94.819 141.786C86.5979 145.645 98.2241 169.552 98.2241 169.552Z" fill="#363E44"/>
<path d="M102.653 183.794C102.103 183.794 101.742 183.738 101.701 183.731C101.584 183.712 101.506 183.602 101.525 183.486C101.543 183.37 101.652 183.291 101.769 183.31C101.798 183.315 104.681 183.756 106.908 181.971C108.487 180.705 109.371 178.637 109.537 175.826C109.784 171.62 106.731 169.224 104.711 167.639C103.501 166.689 102.627 166.003 102.781 165.254C102.93 164.526 104.037 163.95 106.603 163.263C116.401 160.642 122.075 149.143 122.131 149.027C122.182 148.921 122.31 148.877 122.415 148.928C122.521 148.98 122.566 149.107 122.514 149.213C122.457 149.331 116.697 161.003 106.713 163.675C104.453 164.279 103.304 164.824 103.199 165.339C103.098 165.83 103.967 166.513 104.974 167.303C107.064 168.943 110.223 171.422 109.962 175.851C109.789 178.79 108.85 180.962 107.17 182.306C105.589 183.573 103.746 183.794 102.653 183.794Z" fill="#40484C"/>
<path d="M74.408 96.7792C74.408 96.7792 56.7572 135.736 97.8672 153.694C97.8672 153.694 79.5053 121.625 110.294 95.4366L74.408 96.7792Z" fill="#363E44"/>
<path d="M103.575 350.474L117.258 380.453H169.768L135.869 285.606L66.7357 285.689C49.3937 312.415 43.6082 344.656 45.2752 380.453H102.633L103.575 350.474Z" fill="#3C4043"/>
<path d="M103.575 350.687C103.574 350.687 103.573 350.687 103.572 350.687C103.454 350.686 103.361 350.589 103.362 350.471L103.534 338.621C103.535 338.54 103.582 338.467 103.655 338.432L111.555 334.654C111.661 334.603 111.788 334.648 111.839 334.754C111.89 334.86 111.845 334.988 111.739 335.038L103.958 338.759L103.788 350.477C103.787 350.594 103.692 350.687 103.575 350.687Z" fill="#363E44"/>
<path d="M135.869 275.702H66.4139V287.486H135.869V275.702Z" fill="#3C4043"/>
<path d="M113.989 285.819H70.6406C70.5227 285.819 70.4275 285.724 70.4275 285.606C70.4275 285.488 70.5227 285.393 70.6406 285.393H113.989C114.107 285.393 114.202 285.488 114.202 285.606C114.202 285.724 114.107 285.819 113.989 285.819Z" fill="#363E44"/>
<path d="M217.716 150C225.844 150 232.432 156.589 232.432 164.716C232.432 172.844 217.716 190.779 217.716 190.779C217.716 190.779 203 172.844 203 164.716C203 156.589 209.589 150 217.716 150Z" fill="#75A237"/>
<path d="M218.332 174.761C223.882 174.413 228.099 169.632 227.752 164.082C227.404 158.532 222.623 154.315 217.073 154.662C211.523 155.01 207.306 159.791 207.653 165.341C208.001 170.891 212.782 175.109 218.332 174.761Z" fill="#F2E6DC"/>
</svg>
