<svg width="12" height="12" viewBox="0 0 12 12" fill="none" xmlns="http://www.w3.org/2000/svg">
<path d="M5.99927 1.125C5.03509 1.125 4.09255 1.41091 3.29086 1.94659C2.48918 2.48226 1.86433 3.24363 1.49536 4.13442C1.12638 5.02521 1.02984 6.00541 1.21794 6.95107C1.40604 7.89672 1.87034 8.76536 2.55212 9.44715C3.23391 10.1289 4.10255 10.5932 5.0482 10.7813C5.99386 10.9694 6.97406 10.8729 7.86485 10.5039C8.75564 10.1349 9.51701 9.51009 10.0527 8.7084C10.5884 7.90671 10.8743 6.96418 10.8743 6C10.8729 4.70749 10.3589 3.46831 9.44491 2.55436C8.53096 1.64042 7.29178 1.12636 5.99927 1.125ZM5.99927 10.125C5.18342 10.125 4.3859 9.88307 3.70754 9.42981C3.02919 8.97655 2.50048 8.33231 2.18827 7.57857C1.87606 6.82482 1.79437 5.99542 1.95353 5.19525C2.11269 4.39508 2.50556 3.66008 3.08245 3.08318C3.65935 2.50629 4.39435 2.11342 5.19452 1.95426C5.99469 1.7951 6.82409 1.87679 7.57784 2.189C8.33158 2.50121 8.97582 3.02992 9.42908 3.70827C9.88234 4.38663 10.1243 5.18415 10.1243 6C10.123 7.09364 9.68803 8.14213 8.91472 8.91545C8.1414 9.68876 7.09291 10.1238 5.99927 10.125ZM8.99927 6C8.99927 6.09946 8.95976 6.19484 8.88944 6.26517C8.81911 6.33549 8.72373 6.375 8.62427 6.375H5.99927C5.89981 6.375 5.80443 6.33549 5.73411 6.26517C5.66378 6.19484 5.62427 6.09946 5.62427 6V3.375C5.62427 3.27554 5.66378 3.18016 5.73411 3.10984C5.80443 3.03951 5.89981 3 5.99927 3C6.09873 3 6.19411 3.03951 6.26444 3.10984C6.33476 3.18016 6.37427 3.27554 6.37427 3.375V5.625H8.62427C8.72373 5.625 8.81911 5.66451 8.88944 5.73484C8.95976 5.80516 8.99927 5.90054 8.99927 6Z" fill="black" fill-opacity="0.8"/>
</svg>
