<svg width="16" height="16" viewBox="0 0 16 16" fill="none" xmlns="http://www.w3.org/2000/svg">
<path d="M8.5 8.5L2.5 8.5C2.36739 8.5 2.24021 8.44732 2.14645 8.35355C2.05268 8.25978 2 8.13261 2 8C2 7.86739 2.05268 7.74021 2.14645 7.64645C2.24021 7.55268 2.36739 7.5 2.5 7.5L8.5 7.5C8.63261 7.5 8.75979 7.55268 8.85355 7.64645C8.94732 7.74021 9 7.86739 9 8C9 8.13261 8.94732 8.25978 8.85355 8.35355C8.75979 8.44732 8.63261 8.5 8.5 8.5ZM4 12.5C4 12.3674 3.94732 12.2402 3.85355 12.1464C3.75979 12.0527 3.63261 12 3.5 12L2.5 12C2.36739 12 2.24021 12.0527 2.14645 12.1464C2.05268 12.2402 2 12.3674 2 12.5C2 12.6326 2.05268 12.7598 2.14645 12.8536C2.24021 12.9473 2.36739 13 2.5 13L3.5 13C3.63261 13 3.75979 12.9473 3.85355 12.8536C3.94732 12.7598 4 12.6326 4 12.5ZM6 14L6 13L13.5 13C13.6326 13 13.7598 12.9473 13.8536 12.8536C13.9473 12.7598 14 12.6326 14 12.5C14 12.3674 13.9473 12.2402 13.8536 12.1464C13.7598 12.0527 13.6326 12 13.5 12L6 12L6 11C6 10.8674 5.94732 10.7402 5.85355 10.6464C5.75979 10.5527 5.63261 10.5 5.5 10.5C5.36739 10.5 5.24021 10.5527 5.14645 10.6464C5.05268 10.7402 5 10.8674 5 11L5 14C5 14.1326 5.05268 14.2598 5.14645 14.3536C5.24021 14.4473 5.36739 14.5 5.5 14.5C5.63261 14.5 5.75979 14.4473 5.85355 14.3536C5.94732 14.2598 6 14.1326 6 14ZM6 3.5C6 3.36739 5.94732 3.24021 5.85355 3.14645C5.75979 3.05268 5.63261 3 5.5 3L2.5 3C2.36739 3 2.24022 3.05268 2.14645 3.14645C2.05268 3.24021 2 3.36739 2 3.5C2 3.63261 2.05268 3.75978 2.14645 3.85355C2.24022 3.94732 2.36739 4 2.5 4L5.5 4C5.63261 4 5.75979 3.94732 5.85355 3.85355C5.94732 3.75978 6 3.63261 6 3.5ZM8 5L8 4L13.5 4C13.6326 4 13.7598 3.94732 13.8536 3.85355C13.9473 3.75978 14 3.63261 14 3.5C14 3.36739 13.9473 3.24021 13.8536 3.14645C13.7598 3.05268 13.6326 3 13.5 3L8 3L8 2C8 1.86739 7.94732 1.74021 7.85355 1.64645C7.75979 1.55268 7.63261 1.5 7.5 1.5C7.36739 1.5 7.24021 1.55268 7.14645 1.64645C7.05268 1.74021 7 1.86739 7 2L7 5C7 5.13261 7.05268 5.25978 7.14645 5.35355C7.24021 5.44732 7.36739 5.5 7.5 5.5C7.63261 5.5 7.75979 5.44732 7.85355 5.35355C7.94732 5.25978 8 5.13261 8 5ZM11 9.5L11 8.5L13.5 8.5C13.6326 8.5 13.7598 8.44732 13.8536 8.35355C13.9473 8.25979 14 8.13261 14 8C14 7.86739 13.9473 7.74021 13.8536 7.64645C13.7598 7.55268 13.6326 7.5 13.5 7.5L11 7.5L11 6.5C11 6.36739 10.9473 6.24021 10.8536 6.14645C10.7598 6.05268 10.6326 6 10.5 6C10.3674 6 10.2402 6.05268 10.1464 6.14645C10.0527 6.24021 10 6.36739 10 6.5L10 9.5C10 9.63261 10.0527 9.75978 10.1464 9.85355C10.2402 9.94732 10.3674 10 10.5 10C10.6326 10 10.7598 9.94732 10.8536 9.85355C10.9473 9.75978 11 9.63261 11 9.5Z" fill="black"/>
</svg>
