<svg width="69" height="50" viewBox="0 0 69 50" fill="none" xmlns="http://www.w3.org/2000/svg">
<g id="Group 3">
<path id="Vector" d="M38.1017 31.4674C38.0548 31.3871 36.9714 29.4877 34.1557 28.8858C33.8481 28.8189 33.5271 28.7854 33.1993 28.7854C30.6713 28.7854 28.3372 30.7451 26.9394 31.9155C26.3107 32.4438 25.4881 33.0457 24.6989 33.0457C23.8762 33.0457 23.174 32.3903 22.5386 31.0393C20.9335 27.615 20.3383 26.2105 19.9704 25.2943C19.6427 24.4783 19.2481 23.3012 19.6293 22.4585C19.9102 21.8432 22.0303 19.8234 23.1673 18.74C23.5552 18.3721 23.8629 18.0779 24.0167 17.9173C24.6119 17.3087 28.277 13.6838 28.7852 13.1822L32.4837 12.1388C33.293 11.9115 34.3162 12.2191 35.9548 13.1554L36.3293 13.3695C37.7071 14.1653 38.9042 14.8542 40.2686 14.8542C40.4826 14.8542 40.7033 14.8341 40.924 14.8007C42.7164 14.5198 43.6661 13.1019 43.9604 11.8646L44.0005 11.965L36.209 5.18326H25.3142L25.2339 4.96924C25.2339 4.96924 16.1583 11.7108 14.0382 13.3159C13.8108 13.4898 13.5901 13.5835 13.3827 13.744C11.6305 15.0615 10.3597 15.9845 9.84477 17.7033C9.30973 19.5024 0.220704 49.0637 0.127072 49.3579L0 50H19.2548L38.222 31.9355L38.1017 31.4674Z" fill="#75A237"/>
<path id="Vector_2" d="M68.3461 49.1372C68.3394 49.0837 67.4366 43.8135 66.4668 38.4765C66.0655 36.2828 65.5773 33.5473 65.1225 30.9658C64.4671 27.2539 63.8384 23.7426 63.6244 22.7194C63.31 21.248 61.2702 18.2517 59.5313 15.8039L59.324 15.5163C58.8023 14.7739 56.9765 12.393 55.6523 10.6541C54.9166 9.69101 54.3347 8.93526 54.2344 8.79481C53.9401 8.38015 53.1443 7.71134 53.0239 7.61771L41.0256 0L40.8517 0.127074C39.6679 1.0099 38.5978 2.76217 40.1962 6.11289C41.594 9.04227 45.8008 12.0853 46.4362 12.5401C48.9709 18.5259 52.0274 23.4885 52.4286 24.1306C52.7764 29.7686 52.0006 33.5808 50.0544 35.7745C49.2384 36.6974 48.3489 37.1656 47.4059 37.1656C46.4429 37.1656 45.5935 36.6774 45.0317 36.3095C44.831 36.1824 44.617 36.0086 44.3562 35.8079C43.2527 34.9452 41.5807 33.641 39.066 33.641C35.9293 33.641 34.4312 36.5904 34.371 36.7108L34.2773 36.8981L45.3661 49.4783L68.4063 49.5118L68.3461 49.1372ZM47.7403 42.0412C47.4929 42.1816 47.2454 42.2552 47.0247 42.2552C46.289 42.2552 45.7607 41.4593 45.4998 39.988C45.8744 40.2087 46.4094 40.4093 47.0916 40.4093C47.6133 40.4093 48.1483 40.2889 48.6967 40.0481C48.5763 40.7504 48.3021 41.7269 47.7403 42.0412Z" fill="#75A237"/>
</g>
</svg>
