<svg width="13" height="12" viewBox="0 0 13 12" fill="none" xmlns="http://www.w3.org/2000/svg">
<g clip-path="url(#clip0_386_1103)">
<path d="M6.71877 -5.34058e-05C4.5132 -5.34058e-05 2.71876 1.79439 2.71876 3.99995C2.71876 4.66206 2.8843 5.31855 3.19899 5.90083L6.50002 11.871C6.54397 11.9506 6.62771 11.9999 6.71877 11.9999C6.80982 11.9999 6.89356 11.9506 6.93751 11.871L10.2398 5.89886C10.5532 5.31855 10.7188 4.66204 10.7188 3.99993C10.7188 1.79439 8.92433 -5.34058e-05 6.71877 -5.34058e-05ZM6.71877 5.99995C5.61598 5.99995 4.71877 5.10274 4.71877 3.99995C4.71877 2.89717 5.61598 1.99996 6.71877 1.99996C7.82155 1.99996 8.71876 2.89717 8.71876 3.99995C8.71876 5.10274 7.82155 5.99995 6.71877 5.99995Z" fill="#FF0000"/>
</g>
<defs>
<clipPath id="clip0_386_1103">
<rect width="12" height="12" fill="white" transform="translate(0.714294)"/>
</clipPath>
</defs>
</svg>
