<svg width="12" height="12" viewBox="0 0 12 12" fill="none" xmlns="http://www.w3.org/2000/svg">
<g clip-path="url(#clip0_386_1130)">
<path d="M6.00106 -1.52588e-05C3.7955 -1.52588e-05 2.00105 1.79443 2.00105 3.99999C2.00105 4.6621 2.16659 5.31859 2.48129 5.90087L5.78232 11.8711C5.82626 11.9507 5.91001 12 6.00106 12C6.09212 12 6.17586 11.9507 6.2198 11.8711L9.52205 5.8989C9.83553 5.31859 10.0011 4.66208 10.0011 3.99997C10.0011 1.79443 8.20662 -1.52588e-05 6.00106 -1.52588e-05ZM6.00106 5.99998C4.89828 5.99998 4.00107 5.10277 4.00107 3.99999C4.00107 2.89721 4.89828 2 6.00106 2C7.10384 2 8.00105 2.89721 8.00105 3.99999C8.00105 5.10277 7.10384 5.99998 6.00106 5.99998Z" fill="#800080"/>
</g>
<defs>
<clipPath id="clip0_386_1130">
<rect width="12" height="12" fill="white"/>
</clipPath>
</defs>
</svg>
