<svg width="20" height="20" viewBox="0 0 20 20" fill="none" xmlns="http://www.w3.org/2000/svg">
<path d="M10.9042 10.6042C11.0237 10.4253 11.0875 10.2151 11.0875 10C11.0875 9.71158 10.9729 9.43497 10.769 9.23102C10.565 9.02708 10.2884 8.9125 10 8.9125C9.78491 8.9125 9.57466 8.97628 9.39582 9.09578C9.21698 9.21527 9.07759 9.38512 8.99528 9.58383C8.91297 9.78255 8.89143 10.0012 8.9334 10.2122C8.97536 10.4231 9.07893 10.6169 9.23102 10.769C9.38311 10.9211 9.57688 11.0246 9.78784 11.0666C9.99879 11.1086 10.2175 11.087 10.4162 11.0047C10.6149 10.9224 10.7847 10.783 10.9042 10.6042ZM10 5.775C10.2151 5.775 10.4253 5.71122 10.6042 5.59172C10.783 5.47223 10.9224 5.30238 11.0047 5.10367C11.087 4.90495 11.1086 4.68629 11.0666 4.47534C11.0246 4.26439 10.9211 4.07061 10.769 3.91852C10.6169 3.76643 10.4231 3.66286 10.2122 3.6209C10.0012 3.57893 9.78255 3.60047 9.58383 3.68278C9.38512 3.76509 9.21527 3.90448 9.09578 4.08332C8.97628 4.26216 8.9125 4.47241 8.9125 4.6875C8.9125 4.97592 9.02708 5.25253 9.23102 5.45648C9.43497 5.66043 9.71158 5.775 10 5.775ZM10 14.225C9.78491 14.225 9.57466 14.2888 9.39582 14.4083C9.21698 14.5278 9.07759 14.6976 8.99528 14.8963C8.91297 15.095 8.89143 15.3137 8.9334 15.5247C8.97536 15.7356 9.07893 15.9294 9.23102 16.0815C9.38311 16.2336 9.57689 16.3371 9.78784 16.3791C9.99879 16.4211 10.2175 16.3995 10.4162 16.3172C10.6149 16.2349 10.7847 16.0955 10.9042 15.9167C11.0237 15.7378 11.0875 15.5276 11.0875 15.3125C11.0875 15.0241 10.9729 14.7475 10.769 14.5435C10.565 14.3396 10.2884 14.225 10 14.225Z" fill="black" stroke="black" stroke-width="0.3"/>
</svg>
