<svg width="546" height="372" viewBox="0 0 546 372" fill="none" xmlns="http://www.w3.org/2000/svg">
<path d="M127.023 241.741C127.023 241.741 98.2682 229.487 86.4275 198.476C74.5868 167.466 84.7358 146.561 106.725 144.327C128.714 142.093 130.456 124.051 130.149 95.2959C129.842 66.5409 168.183 37.2214 219.491 27.6369C270.799 18.0524 282.076 49.062 310.831 54.1365C339.586 59.211 394.278 53.0092 410.065 67.1045C425.852 81.1998 432.619 106.099 419.087 141.011C405.555 175.923 414.691 186.072 427.32 206.933C439.948 227.795 439.385 254.859 421.906 273.465H156.342C156.342 273.465 151.909 260.092 127.023 241.741Z" fill="#75A237"/>
<path d="M57.865 56.9449H142.063C142.063 56.9449 142.439 53.5621 136.425 48.8634C130.411 44.1648 132.29 38.7145 124.209 37.3993C116.127 36.0833 114.436 41.7222 108.422 38.5266C102.408 35.3318 102.031 29.8815 93.5742 28.9414C85.117 28.0019 81.9214 41.7215 77.975 42.9427C74.0278 44.164 62.3758 44.164 59.5568 49.4271C56.7377 54.6895 57.865 56.9449 57.865 56.9449Z" fill="#B0DEF5"/>
<path d="M315.393 36.5996H403.914C403.914 36.5996 403.209 31.6657 393.625 29.8334C384.039 28.0012 385.59 23.4903 380.093 20.2482C374.595 17.006 376.146 10.2405 366.984 9.81739C357.822 9.39426 354.579 23.2085 350.351 23.2085C346.122 23.2085 343.726 16.2918 336.396 23.2039C329.066 30.1153 323.287 29.4111 319.059 30.3979C314.83 31.3846 315.393 36.5996 315.393 36.5996Z" fill="#B0DEF5"/>
<path d="M87.7902 44.8659C88.4753 37.8828 92.3995 32.5463 95.5898 29.2835C94.9711 29.1392 94.3043 29.0223 93.5742 28.9414C85.117 28.0019 81.9214 41.7215 77.975 42.9427C74.0278 44.164 62.3758 44.164 59.5568 49.4271C56.7377 54.6895 57.865 56.9449 57.865 56.9449H95.9166C91.137 53.7332 87.322 49.6394 87.7902 44.8659Z" fill="#A6D4EB"/>
<path d="M355.008 28.9406C354.043 23.3415 357.234 16.9602 360.071 12.5999C355.759 16.5264 353.293 23.2086 350.351 23.2086C346.122 23.2086 343.726 16.2919 336.396 23.204C329.066 30.1153 323.287 29.4111 319.059 30.3979C314.83 31.3847 315.394 36.5997 315.394 36.5997H362.314C358.403 34.3221 355.489 31.7299 355.008 28.9406Z" fill="#B0DEF5"/>
<path d="M151.742 291.056H217.234" stroke="#75A237" stroke-width="2.2913" stroke-miterlimit="10" stroke-linecap="round"/>
<path d="M133.371 302.709H176.356" stroke="#75A237" stroke-width="2.2913" stroke-miterlimit="10" stroke-linecap="round"/>
<path d="M332.22 306.469H410.404" stroke="#75A237" stroke-width="2.2913" stroke-miterlimit="10" stroke-linecap="round"/>
<path d="M312.241 320H347.393" stroke="#75A237" stroke-width="2.2913" stroke-miterlimit="10" stroke-linecap="round"/>
<path d="M370.101 244.91H154.904C148.856 244.91 143.954 240.007 143.954 233.96V71.5468C143.954 65.4993 148.856 60.5967 154.904 60.5967H370.101C376.149 60.5967 381.051 65.4993 381.051 71.5468V233.96C381.051 240.007 376.149 244.91 370.101 244.91Z" fill="#E9EFFF"/>
<path d="M381.052 213.758V73.0025C381.052 66.1508 375.497 60.5967 368.646 60.5967H156.361C149.509 60.5967 143.955 66.1508 143.955 73.0025V213.758H381.052Z" fill="#2B284F"/>
<path d="M368.955 205.971H156.051C153.671 205.971 151.742 204.041 151.742 201.661V72.6932C151.742 70.3133 153.671 68.384 156.051 68.384H368.955C371.335 68.384 373.264 70.3133 373.264 72.6932V201.661C373.264 204.041 371.335 205.971 368.955 205.971Z" fill="#75A237"/>
<mask id="mask0_550_1464" style="mask-type:luminance" maskUnits="userSpaceOnUse" x="151" y="68" width="223" height="138">
<path d="M368.955 205.971H156.051C153.671 205.971 151.742 204.041 151.742 201.661V72.6932C151.742 70.3133 153.671 68.384 156.051 68.384H368.955C371.335 68.384 373.264 70.3133 373.264 72.6932V201.661C373.264 204.041 371.335 205.971 368.955 205.971Z" fill="white"/>
</mask>
<g mask="url(#mask0_550_1464)">
<path d="M151.742 92.3076L192.671 146.93" stroke="white" stroke-width="3.81883" stroke-miterlimit="10" stroke-linecap="round" stroke-linejoin="round"/>
<path d="M151.742 176.369L305.38 68.385" stroke="white" stroke-width="3.81883" stroke-miterlimit="10" stroke-linecap="round" stroke-linejoin="round"/>
<path d="M210.751 68.3848L241.85 113.037" stroke="white" stroke-width="3.81883" stroke-miterlimit="10" stroke-linecap="round" stroke-linejoin="round"/>
<path d="M166.683 112.248L217.234 77.6926" stroke="white" stroke-width="3.81883" stroke-miterlimit="10" stroke-linecap="round" stroke-linejoin="round"/>
<path d="M181.144 131.546L231.125 97.6392" stroke="white" stroke-width="3.81883" stroke-miterlimit="10" stroke-linecap="round" stroke-linejoin="round"/>
<path d="M198.347 205.971L312.241 119.286" stroke="white" stroke-width="3.81883" stroke-miterlimit="10" stroke-linecap="round" stroke-linejoin="round"/>
<path d="M200.783 141.9L247.964 205.971" stroke="white" stroke-width="3.81883" stroke-miterlimit="10" stroke-linecap="round" stroke-linejoin="round"/>
<path d="M271.763 150.438L313.65 205.97" stroke="white" stroke-width="3.81883" stroke-miterlimit="10" stroke-linecap="round" stroke-linejoin="round"/>
<path d="M342.687 68.3848L298.013 100.436L373.264 201.088" stroke="white" stroke-width="3.81883" stroke-miterlimit="10" stroke-linecap="round" stroke-linejoin="round"/>
<path d="M329.013 141.9L373.264 108.564" stroke="white" stroke-width="3.81883" stroke-miterlimit="10" stroke-linecap="round" stroke-linejoin="round"/>
<path d="M335.626 73.4502L367.327 113.037" stroke="white" stroke-width="3.81883" stroke-miterlimit="10" stroke-linecap="round" stroke-linejoin="round"/>
</g>
<path d="M244.111 244.91L233.947 286.446H288.462L280.948 244.91H244.111Z" fill="#E9EFFF"/>
<path d="M244.111 244.91L242.65 250.881H282.028L280.948 244.91H244.111Z" fill="#7DA2FF"/>
<path d="M245.991 98.3686C245.991 88.3167 237.573 80.2307 227.403 80.7753C220.05 81.1686 213.692 86.2889 211.522 93.3247C210.447 96.8098 210.576 100.122 211.422 103.135H211.409C213.327 111.038 222.349 119.491 226.397 122.96C227.535 123.935 229.206 123.935 230.344 122.96C234.392 119.491 243.415 111.038 245.332 103.135H245.319C245.746 101.617 245.991 100.022 245.991 98.3686Z" fill="#BC4D88"/>
<path d="M230.83 166.598C230.83 162.72 227.582 159.601 223.658 159.811C220.821 159.963 218.368 161.938 217.531 164.652C217.116 165.996 217.166 167.275 217.493 168.437H217.488C218.228 171.486 221.709 174.748 223.27 176.086C223.709 176.462 224.354 176.462 224.793 176.086C226.355 174.748 229.836 171.486 230.576 168.437H230.571C230.736 167.851 230.83 167.236 230.83 166.598Z" fill="#E1625D"/>
<path d="M333.02 102.478C333.02 98.6001 329.772 95.4809 325.848 95.6901C323.011 95.8421 320.558 97.8172 319.721 100.532C319.306 101.876 319.356 103.154 319.683 104.317H319.678C320.418 107.366 323.899 110.627 325.461 111.966C325.9 112.343 326.544 112.343 326.984 111.966C328.545 110.628 332.027 107.367 332.766 104.317H332.761C332.925 103.732 333.02 103.116 333.02 102.478Z" fill="#E1625D"/>
<path d="M285.359 172.449C285.359 168.57 282.111 165.451 278.187 165.661C275.351 165.813 272.897 167.788 272.06 170.503C271.646 171.847 271.695 173.125 272.022 174.288H272.018C272.758 177.337 276.239 180.598 277.8 181.936C278.239 182.313 278.884 182.313 279.323 181.936C280.885 180.598 284.366 177.337 285.105 174.288H285.101C285.265 173.702 285.359 173.087 285.359 172.449Z" fill="#E1625D"/>
<path d="M189.952 135.692C189.952 131.813 186.705 128.694 182.781 128.904C179.944 129.056 177.491 131.031 176.654 133.746C176.239 135.09 176.289 136.368 176.615 137.531H176.61C177.35 140.58 180.831 143.841 182.393 145.18C182.832 145.556 183.476 145.556 183.915 145.18C185.477 143.842 188.959 140.581 189.698 137.531H189.693C189.858 136.944 189.952 136.329 189.952 135.692Z" fill="#E1625D"/>
<path d="M143.954 213.758L347.393 60.5967H372.262L167.781 213.758H143.954Z" fill="url(#paint0_linear_550_1464)"/>
<path d="M355.749 138.823C355.749 138.823 353.024 143.052 351.426 147.751C351.426 147.751 349.946 147.422 349.171 148.55C348.396 149.678 349.735 151.017 349.735 151.017C349.735 151.017 348.043 153.624 348.607 156.585C349.171 159.545 354.95 161.518 354.95 161.518L353.4 164.972C353.4 164.972 356.219 165.677 357.346 167.015L360.447 160.179C360.447 160.179 364.394 160.038 365.24 157.43C366.085 154.823 364.676 151.369 361.364 153.836C361.364 153.836 353.376 147.14 355.749 138.823Z" fill="#E5827C"/>
<path d="M374.895 144.461C374.895 144.461 376.657 139.81 374.19 134.876C371.723 129.943 365.451 128.885 359.249 131.705C359.249 131.705 357.417 127.687 352.06 129.59C346.744 131.479 346.088 140.101 351.937 146.363C353.543 142.251 355.748 138.823 355.748 138.823C353.375 147.14 361.363 153.835 361.363 153.835C364.675 151.368 366.085 154.822 365.239 157.429C364.394 160.037 360.446 160.178 360.446 160.178L358.933 163.514C358.933 163.514 361.01 168.071 366.789 165.816C372.569 163.561 375.952 154.75 376.233 150.874C376.517 146.998 374.895 144.461 374.895 144.461Z" fill="#252E64"/>
<path d="M353.4 164.971C353.4 164.971 350.21 164.9 348.492 167.367C346.774 169.834 338.035 196.685 336.626 202.394C335.216 208.103 335.71 208.526 335.71 208.526C335.71 208.526 350.988 212.473 356.987 209.513C356.987 209.513 358.193 191.893 358.474 186.255C358.756 180.617 360.377 171.099 357.347 167.014C357.347 167.014 355.726 165.324 353.4 164.971Z" fill="#ECB32B"/>
<path d="M335.71 208.527C335.71 208.527 335.525 208.362 335.708 206.916L335.626 206.906C335.626 206.906 328.777 245.175 327.805 247.826C326.833 250.476 319.93 276.115 316.79 284.233C316.79 284.233 320.84 287.68 323.71 287.17C323.71 287.17 333.129 267.389 335.422 259.584C337.714 251.777 336.661 250.412 336.719 249.313C336.777 248.215 356.986 209.514 356.986 209.514C350.988 212.473 335.71 208.527 335.71 208.527Z" fill="#211D35"/>
<path d="M316.79 284.231C316.79 284.231 308.857 291.01 307.635 292.607H323.939C323.939 292.607 324.251 289.844 323.549 287.184C320.691 287.545 316.79 284.231 316.79 284.231Z" fill="#4358BC"/>
<path d="M357.252 286.446C354.809 288.036 349.735 286.446 349.735 286.446C349.735 286.446 342.781 291.011 341.559 292.608H357.863C357.863 292.608 358.239 289.304 357.252 286.446Z" fill="#4358BC"/>
<path d="M353.4 164.971C353.4 164.971 348.325 163.82 338.834 167.015C329.343 170.209 329.343 170.209 329.343 170.209C329.343 170.209 330 175.754 334.323 178.573C338.646 181.392 347.399 182.049 348.849 180.17C350.299 178.292 353.4 164.971 353.4 164.971Z" fill="#CC9527"/>
<path d="M363.971 155.879C363.817 155.429 363.539 155.098 363.244 155.084C363.09 155.069 362.906 155.087 362.834 155.149C362.726 155.2 362.599 155.344 362.49 155.489C362.255 155.792 362.056 156.172 361.84 156.548C361.63 156.929 361.416 157.32 361.152 157.712C361.109 157.239 361.169 156.778 361.287 156.329C361.403 155.877 361.585 155.44 361.883 155.026C362.056 154.832 362.226 154.618 362.536 154.493C362.871 154.376 363.162 154.403 363.43 154.522C363.709 154.637 363.925 154.893 363.993 155.147C364.064 155.404 364.054 155.654 363.971 155.879Z" fill="#873548"/>
<path d="M349.735 152.919L353.916 154.329C353.916 154.329 353.071 157.242 350.252 157.008C347.433 156.773 349.735 152.919 349.735 152.919Z" fill="#873548"/>
<path d="M355.055 148.482C354.704 149.291 354.004 149.767 353.492 149.545C352.981 149.323 352.85 148.487 353.201 147.677C353.553 146.868 354.252 146.392 354.764 146.614C355.276 146.836 355.406 147.672 355.055 148.482Z" fill="#252E64"/>
<path d="M341.183 169.928L299.413 134.454L293.856 140.894L335.626 176.368L341.183 169.928Z" fill="#242C67"/>
<path d="M353.4 164.971C353.4 164.971 349.205 163.873 345.412 175.016C345.412 175.016 344.238 178.644 343.463 178.996C342.687 179.348 339.234 176.388 333.877 173.991C328.521 171.595 324.01 168.282 324.01 168.282C324.01 168.282 321.543 171.313 321.403 173.92C321.403 173.92 337.331 186.748 343.463 189.637C349.594 192.527 353.893 186.113 355.444 181.18C356.994 176.247 359.199 171.108 358.474 169.372C357.749 167.638 356.924 165.676 353.4 164.971Z" fill="#FFDF9F"/>
<path d="M307.471 152.456C307.471 152.456 306.954 154.68 307.8 156.231C308.645 157.782 308.645 157.782 308.645 157.782C308.645 157.782 309.069 161.165 310.901 162.293C312.733 163.421 315.117 163.531 317.167 160.692L314.993 158.846C314.993 158.846 316.68 153.483 315.904 151.792C315.129 150.1 310.969 151.101 309.807 154.442L307.471 152.456Z" fill="#E5827C"/>
<path d="M321.403 173.921C321.403 173.921 316.046 170.115 315.271 168.635C314.496 167.155 314.994 158.845 314.994 158.845L318.833 162.106C318.833 162.106 318.02 160.459 319.218 159.895C320.415 159.332 322.318 161.094 322.953 162.433C323.588 163.772 322.953 165.605 322.953 165.605L324.01 168.282C324.01 168.282 322.46 169.34 321.403 173.921Z" fill="#E5827C"/>
<path d="M354.433 246.514C354.058 245.481 356.986 209.513 356.986 209.513C352.244 211.852 341.712 209.878 337.503 208.948C337.503 208.948 345.506 245.809 345.647 248.628C345.788 251.447 349.453 277.745 349.735 286.445C349.735 286.445 354.809 288.035 357.252 286.445C357.252 286.445 358.192 264.557 357.252 256.474C356.313 248.394 354.809 247.548 354.433 246.514Z" fill="#2B284F"/>
<path d="M276.356 148.311C292.386 148.311 305.38 135.316 305.38 119.286C305.38 103.256 292.386 90.2612 276.356 90.2612C260.326 90.2612 247.331 103.256 247.331 119.286C247.331 135.316 260.326 148.311 276.356 148.311Z" fill="#2B284F"/>
<path d="M276.356 143.416C289.683 143.416 300.486 132.613 300.486 119.286C300.486 105.959 289.683 95.1555 276.356 95.1555C263.029 95.1555 252.225 105.959 252.225 119.286C252.225 132.613 263.029 143.416 276.356 143.416Z" fill="#75A237"/>
<mask id="mask1_550_1464" style="mask-type:luminance" maskUnits="userSpaceOnUse" x="252" y="95" width="49" height="49">
<path d="M276.356 143.416C289.683 143.416 300.486 132.613 300.486 119.286C300.486 105.959 289.683 95.1555 276.356 95.1555C263.029 95.1555 252.225 105.959 252.225 119.286C252.225 132.613 263.029 143.416 276.356 143.416Z" fill="white"/>
</mask>
<g mask="url(#mask1_550_1464)">
<path d="M203.587 98.3567L251.591 162.421" stroke="white" stroke-width="3.81883" stroke-miterlimit="10" stroke-linecap="round" stroke-linejoin="round"/>
<path d="M203.587 196.949L383.786 70.2981" stroke="white" stroke-width="3.81883" stroke-miterlimit="10" stroke-linecap="round" stroke-linejoin="round"/>
<path d="M272.798 70.2981L309.272 122.67" stroke="white" stroke-width="3.81883" stroke-miterlimit="10" stroke-linecap="round" stroke-linejoin="round"/>
<path d="M221.112 121.745L280.401 81.2153" stroke="white" stroke-width="3.81883" stroke-miterlimit="10" stroke-linecap="round" stroke-linejoin="round"/>
<path d="M238.072 144.378L296.694 104.61" stroke="white" stroke-width="3.81883" stroke-miterlimit="10" stroke-linecap="round" stroke-linejoin="round"/>
<path d="M258.249 231.668L391.832 130" stroke="white" stroke-width="3.81883" stroke-miterlimit="10" stroke-linecap="round" stroke-linejoin="round"/>
</g>
<path d="M264.559 100.519C260.986 102.462 257.977 105.64 256.322 109.363C256.029 110.022 255.861 110.639 256.06 111.363C256.226 111.965 256.692 112.618 257.253 112.915C257.856 113.233 258.585 113.393 259.253 113.177C259.855 112.982 260.537 112.588 260.805 111.984C261.357 110.742 262.056 109.578 262.886 108.503C262.751 108.678 262.615 108.854 262.48 109.029C263.344 107.927 264.334 106.937 265.437 106.075C265.262 106.21 265.086 106.345 264.911 106.481C265.629 105.928 266.385 105.435 267.18 105.002C268.374 104.353 268.855 102.604 268.111 101.45C267.329 100.239 265.837 99.8244 264.559 100.519Z" fill="white"/>
<path d="M275.702 100.33C275.702 101.91 274.421 103.191 272.841 103.191C271.261 103.191 269.98 101.91 269.98 100.33C269.98 98.7498 271.261 97.469 272.841 97.469C274.421 97.469 275.702 98.7498 275.702 100.33Z" fill="white"/>
<path d="M245.217 354.472V367H243.165L236.991 357.658V367H234.939V354.472H236.991L243.165 363.796V354.472H245.217ZM252.213 367.162C249.387 367.162 247.245 365.146 247.245 362.032C247.245 358.918 249.477 356.92 252.303 356.92C255.129 356.92 257.361 358.918 257.361 362.032C257.361 365.146 255.057 367.162 252.213 367.162ZM252.213 365.38C253.743 365.38 255.255 364.282 255.255 362.032C255.255 359.782 253.797 358.702 252.267 358.702C250.719 358.702 249.333 359.782 249.333 362.032C249.333 364.282 250.665 365.38 252.213 365.38ZM264.066 354.49H266.28L270.672 364.3L275.046 354.49H277.242V367H275.19V358.432L271.374 367H269.952L266.118 358.432V367H264.066V354.49ZM279.255 361.996C279.255 358.936 281.325 356.92 283.935 356.92C285.609 356.92 286.761 357.712 287.373 358.522V357.082H289.443V367H287.373V365.524C286.743 366.37 285.555 367.162 283.899 367.162C281.325 367.162 279.255 365.056 279.255 361.996ZM287.373 362.032C287.373 359.908 285.915 358.702 284.367 358.702C282.837 358.702 281.361 359.854 281.361 361.996C281.361 364.138 282.837 365.38 284.367 365.38C285.915 365.38 287.373 364.174 287.373 362.032ZM294.19 358.54C294.82 357.712 296.026 356.92 297.646 356.92C300.256 356.92 302.308 358.936 302.308 361.996C302.308 365.056 300.256 367.162 297.646 367.162C296.008 367.162 294.838 366.334 294.19 365.56V371.716H292.138V357.082H294.19V358.54ZM300.22 361.996C300.22 359.854 298.744 358.702 297.196 358.702C295.666 358.702 294.19 359.908 294.19 362.032C294.19 364.174 295.666 365.38 297.196 365.38C298.744 365.38 300.22 364.138 300.22 361.996ZM307.937 367.162C305.561 367.162 303.887 365.758 303.797 363.958H305.921C305.993 364.768 306.767 365.434 307.901 365.434C309.089 365.434 309.719 364.93 309.719 364.246C309.719 362.302 303.959 363.418 303.959 359.782C303.959 358.198 305.435 356.92 307.775 356.92C310.025 356.92 311.501 358.126 311.609 360.106H309.557C309.485 359.242 308.819 358.648 307.703 358.648C306.605 358.648 306.029 359.098 306.029 359.764C306.029 361.762 311.627 360.646 311.735 364.228C311.735 365.902 310.277 367.162 307.937 367.162Z" fill="black"/>
<defs>
<linearGradient id="paint0_linear_550_1464" x1="318.148" y1="90.1775" x2="171.505" y2="204.97" gradientUnits="userSpaceOnUse">
<stop stop-color="white" stop-opacity="0.7"/>
<stop offset="1" stop-color="white" stop-opacity="0"/>
</linearGradient>
</defs>
</svg>
