<svg width="390" height="362" viewBox="0 0 390 362" fill="none" xmlns="http://www.w3.org/2000/svg">
<path d="M116.291 284.215C131.395 300.16 168.477 294.321 184.538 284.215C236.672 251.411 328.055 196.811 332.192 117.707C333.95 84.084 304.303 66.4296 291.914 61.2501C262.166 48.8117 229.529 45.0779 197.317 43.6373C163.671 42.1326 127.581 43.3045 97.2783 59.7198C85.8006 65.9374 74.9724 73.9118 67.5599 84.7976C60.0303 95.8555 55.6975 109.024 54.5487 122.316C52.6953 143.757 58.4636 165.255 67.1862 184.929C75.9081 204.603 87.5407 222.819 98.2178 241.504C105.184 253.696 103.567 270.781 116.291 284.215Z" fill="#75A237"/>
<path opacity="0.7" d="M116.291 284.215C131.395 300.16 168.477 294.321 184.538 284.215C236.672 251.411 328.055 196.811 332.192 117.707C333.95 84.084 304.303 66.4296 291.914 61.2501C262.166 48.8117 229.529 45.0779 197.317 43.6373C163.671 42.1326 127.581 43.3045 97.2783 59.7198C85.8006 65.9374 74.9724 73.9118 67.5599 84.7976C60.0303 95.8555 55.6975 109.024 54.5487 122.316C52.6953 143.757 58.4636 165.255 67.1862 184.929C75.9081 204.603 87.5407 222.819 98.2178 241.504C105.184 253.696 103.567 270.781 116.291 284.215Z" fill="white"/>
<path d="M247.938 245.99C248.12 190.72 248.12 129.28 247.938 74.3801" stroke="#263238" stroke-width="0.64" stroke-miterlimit="10" stroke-linecap="round" stroke-linejoin="round"/>
<path d="M258.215 57.2903C258.36 118.4 258.36 172.16 258.215 233.25" stroke="#263238" stroke-width="0.64" stroke-miterlimit="10" stroke-linecap="round" stroke-linejoin="round"/>
<path d="M247.938 61.2705V38.868C247.938 38.868 249.773 37.9521 253.076 37.9521C256.693 37.9521 258.215 38.868 258.215 38.868V45.1003" stroke="#263238" stroke-width="0.64" stroke-miterlimit="10" stroke-linecap="round" stroke-linejoin="round"/>
<path d="M312.394 37.9521L314.505 38.8078L300.959 50.3278L258.215 57.2904L256.187 56.6881" stroke="#263238" stroke-width="0.64" stroke-miterlimit="10" stroke-linecap="round" stroke-linejoin="round"/>
<path d="M256.187 45.5475L297.541 36.4326L312.394 37.952L299.632 49.3779L256.187 56.688V45.5475Z" stroke="#263238" stroke-width="0.64" stroke-miterlimit="10" stroke-linecap="round" stroke-linejoin="round"/>
<path d="M214.583 53.9692L212.85 55.0112L223.357 67.5443L247.937 74.3801L250.558 73.7222" stroke="#263238" stroke-width="0.64" stroke-miterlimit="10" stroke-linecap="round" stroke-linejoin="round"/>
<path d="M250.558 62.281L225.048 52.45L214.583 53.9693L225.386 66.8621L250.558 73.7223V62.281Z" stroke="#263238" stroke-width="0.64" stroke-miterlimit="10" stroke-linecap="round" stroke-linejoin="round"/>
<path d="M168.288 69.4348V287.643" stroke="#263238" stroke-width="0.64" stroke-miterlimit="10" stroke-linecap="round" stroke-linejoin="round"/>
<path d="M108.362 52.844C128.44 57.5998 148.28 64.6398 168.288 69.4347" stroke="#263238" stroke-width="0.64" stroke-miterlimit="10" stroke-linecap="round" stroke-linejoin="round"/>
<path d="M85.0537 65.1274C112.44 71.6798 140.6 78.7198 168.288 85.7342" stroke="#263238" stroke-width="0.64" stroke-miterlimit="10" stroke-linecap="round" stroke-linejoin="round"/>
<path d="M67.1382 79.9539C100.28 87.6799 134.2 94.7199 168.288 102.033" stroke="#263238" stroke-width="0.64" stroke-miterlimit="10" stroke-linecap="round" stroke-linejoin="round"/>
<path d="M56.9001 97.2805C93.88 104.32 131 111.36 168.288 118.333" stroke="#263238" stroke-width="0.64" stroke-miterlimit="10" stroke-linecap="round" stroke-linejoin="round"/>
<path d="M49.0825 115.593L168.288 134.631" stroke="#263238" stroke-width="0.64" stroke-miterlimit="10" stroke-linecap="round" stroke-linejoin="round"/>
<path d="M49.0825 135.383L168.288 150.93" stroke="#263238" stroke-width="0.64" stroke-miterlimit="10" stroke-linecap="round" stroke-linejoin="round"/>
<path d="M51.8589 155.454C90.68 158.72 129.08 163.84 168.288 167.23" stroke="#263238" stroke-width="0.64" stroke-miterlimit="10" stroke-linecap="round" stroke-linejoin="round"/>
<path d="M57.3622 175.558C87.4799 177.92 117.56 179.2 148.28 182.4C154.68 182.4 161.72 182.4 168.288 183.529" stroke="#263238" stroke-width="0.64" stroke-miterlimit="10" stroke-linecap="round" stroke-linejoin="round"/>
<path d="M64.8201 195.423C99.6399 197.12 133.56 199.04 168.288 199.828" stroke="#263238" stroke-width="0.64" stroke-miterlimit="10" stroke-linecap="round" stroke-linejoin="round"/>
<path d="M74.1385 214.876C105.4 215.04 136.76 215.68 168.288 216.127" stroke="#263238" stroke-width="0.64" stroke-miterlimit="10" stroke-linecap="round" stroke-linejoin="round"/>
<path d="M85.0012 233.759C112.44 233.6 140.6 232.96 168.288 232.426" stroke="#263238" stroke-width="0.64" stroke-miterlimit="10" stroke-linecap="round" stroke-linejoin="round"/>
<path d="M94.5027 252.066C118.84 250.88 143.8 249.6 168.288 248.726" stroke="#263238" stroke-width="0.64" stroke-miterlimit="10" stroke-linecap="round" stroke-linejoin="round"/>
<path d="M160.755 77.5762V267.414" stroke="#263238" stroke-width="0.64" stroke-miterlimit="10" stroke-linecap="round" stroke-linejoin="round"/>
<path d="M124.924 61.1399V179.082" stroke="#263238" stroke-width="0.64" stroke-miterlimit="10" stroke-linecap="round" stroke-linejoin="round"/>
<path d="M84.157 77.0547V207.398" stroke="#263238" stroke-width="0.64" stroke-miterlimit="10" stroke-linecap="round" stroke-linejoin="round"/>
<path d="M329.797 81.7664L267.186 88.9952V235.771" stroke="#263238" stroke-width="0.64" stroke-miterlimit="10" stroke-linecap="round" stroke-linejoin="round"/>
<path d="M334.245 100.613L275.506 105.485V222.751" stroke="#263238" stroke-width="0.64" stroke-miterlimit="10" stroke-linecap="round" stroke-linejoin="round"/>
<path d="M334.245 129.216L277.203 133.283" stroke="#263238" stroke-width="0.64" stroke-miterlimit="10" stroke-linecap="round" stroke-linejoin="round"/>
<path d="M325.806 154.081L278.882 157.135" stroke="#263238" stroke-width="0.64" stroke-miterlimit="10" stroke-linecap="round" stroke-linejoin="round"/>
<path d="M298.491 107.974V197.997" stroke="#263238" stroke-width="0.64" stroke-miterlimit="10" stroke-linecap="round" stroke-linejoin="round"/>
<path d="M109.073 273.575C110.821 277.261 113.107 280.852 116.292 284.215C131.396 300.16 169.123 294.321 185.184 284.215C190.462 280.894 195.502 277.345 201.452 273.575" stroke="#263238" stroke-width="0.64" stroke-miterlimit="10" stroke-linecap="round" stroke-linejoin="round"/>
<path d="M259.578 165.22L253.701 188.141L263.948 247.773L263.868 247.79L263.623 247.841C259.264 248.795 212.313 259.008 210.017 258.819C207.607 258.619 169.884 252.813 169.884 252.813L136.501 256.717L109.73 244.911L84.9858 249.275L77.9426 161.935C77.9426 161.935 83.1746 119.216 80.7644 107.719C80.7644 107.719 121.965 113.631 125.769 114.042C129.573 114.454 173.861 100.454 173.861 100.454L211.245 112.837L242.557 108.879L288.897 130.572C288.897 130.572 258.825 160.547 259.578 165.22Z" fill="white" stroke="#263238" stroke-width="0.64" stroke-miterlimit="10" stroke-linecap="round" stroke-linejoin="round"/>
<path d="M85.5862 111.46L125.769 117.118L173.259 105.433L211.242 116.064L241.048 112.836L282.323 130.572C282.323 130.572 258.823 159.694 257.92 161.553C257.016 163.412 249.484 188.144 249.484 188.144L259.426 244.909L211.242 255.515L170.71 249.028L138.588 251.86L111.28 240.139L88.5987 244.909L81.2374 163.24C81.2374 163.24 87.9971 130.008 85.5862 111.46Z" fill="#75A237" stroke="#263238" stroke-width="0.64" stroke-miterlimit="10" stroke-linecap="round" stroke-linejoin="round"/>
<path d="M225.611 141.961L232.094 140.384L263.708 153.893C265.262 151.917 267.01 149.706 268.798 147.456L234.555 132.971L227.335 134.992L231.859 113.83L225.873 114.481L220.384 136.934L202.643 141.898L168.503 144.874L154.864 151.648L155.526 131.674L172.204 123.815L191.636 127.562L194.943 111.501L189.043 109.85L187.175 121.519L172.204 118.32L155.726 125.757L156.263 109.616L148.3 111.575V154.91L128.069 164.958V116.556L125.767 117.121L120.718 116.407L121.587 132.972H107.884L85.974 115.808C86.1168 118.281 86.134 120.909 86.0713 123.621L105.537 139.911H121.947L122.598 152.266L121.993 157.349L81.6387 167.671L81.8499 170.001L121.684 159.959L120.741 167.945L82.5123 177.381L83.2208 185.229L103.452 179.872L105.337 204.016L86.6934 223.762L87.4243 231.844L94.0041 224.881L95.4608 243.467L97.3398 243.073L96.0604 222.704L109.689 208.288L116.291 206.603L142.383 198.189L141.812 201.976L127.304 247.019L132.879 249.413L140.498 224.835L151.733 222.75L174.318 232.517L184.793 233.191L183.011 251L185.804 251.445L187.02 233.328L213.3 235.007L232.292 232.277L234.714 250.349L239.598 249.275L237.267 231.563L256.602 228.781L255.631 223.252L214.483 228.713L197.862 227.25L200.227 204.877L214.683 196.978H219.19L251.605 200.262L250.462 193.705L220.104 190.826H213.027L216.585 169.435L225.611 141.961ZM118.103 198.982L107.096 202.244L105.639 179.288L122.597 174.798L147.889 161.741L143.708 189.415L118.103 198.982ZM153.801 216.471L142.389 218.739L147.113 203.494L154.276 158.445L168.699 151.003L174.296 173.707L172.206 192.637L165.917 221.333L153.801 216.471ZM206.087 195.675L196.155 200.375L192.499 226.781L175.889 225.325L170.16 223.028L176.574 194.526L178.985 174.798H190.448L209.577 171.577L206.087 195.675ZM210.531 166.996L191.333 170.942H175.883L171.234 150.626L201.363 147.85L218.373 143.721L210.531 166.996Z" fill="white" stroke="#263238" stroke-width="0.64" stroke-miterlimit="10" stroke-linecap="round" stroke-linejoin="round"/>
<path opacity="0.5" d="M218.373 185.281L220.109 171.577L242.253 176.441L240.446 188.143L218.373 185.281Z" fill="white"/>
<path opacity="0.5" d="M232.094 170.942L236.604 158.365L253.283 164.654L249.457 177.66L232.094 170.942Z" fill="white"/>
<path opacity="0.5" d="M228.469 143.72H230.313L237.282 146.87L230.313 168.012L223.779 166.055L221.69 165.595L228.469 143.72Z" fill="white"/>
<path opacity="0.5" d="M242.253 149.326L258.522 155.867L255.811 160.549L240.446 155.867L242.253 149.326Z" fill="white"/>
<path opacity="0.5" d="M232.094 130.572L235.248 116.064L240.446 115.237L248.128 118.32L242.689 133.283L235.353 130.572H232.094Z" fill="white"/>
<path opacity="0.5" d="M246.094 134.85L249.484 126.504L272.306 136.898L267.787 143.72L246.094 134.85Z" fill="white"/>
<path opacity="0.5" d="M197.461 115.237L209.577 118.748L205.897 138.028H204.139H193.445L197.461 115.237Z" fill="white"/>
<path opacity="0.5" d="M212.652 119.273L221.69 117.743L218.373 134.85L209.577 137.124L212.652 119.273Z" fill="white"/>
<path opacity="0.5" d="M190.96 130.572L189.868 138.932L170.16 139.836L158.314 145.937V134.85L172.657 127.433L190.96 130.572Z" fill="white"/>
<path opacity="0.5" d="M159.173 111.46L173.408 107.721L172.307 116.064L158.342 121.52L159.173 111.46Z" fill="white"/>
<path opacity="0.5" d="M175.218 116.064L185.537 118.32L187.176 110.687L176.498 108.878L175.218 116.064Z" fill="white"/>
<path opacity="0.5" d="M130.628 118.32V130.572L145.541 126.504V115.237L130.628 118.32Z" fill="white"/>
<path opacity="0.5" d="M131.655 135.112V159.319L139.89 155.867L138.588 140.965L145.541 138.932V130.572L131.655 135.112Z" fill="white"/>
<path opacity="0.5" d="M106.676 142.773L107.806 158.364L118.649 155.867L120.389 151.003V142.773H106.676Z" fill="white"/>
<path opacity="0.5" d="M89.0512 130.572L103.356 141.644V149.326L87.2432 150.569C87.2432 150.569 89.2771 137.125 89.0512 130.572Z" fill="white"/>
<path opacity="0.5" d="M87.2437 153.619L101.984 152.264V159.697L84.6492 164.43L87.2437 153.619Z" fill="white"/>
<path opacity="0.5" d="M106.676 117.743V128.312L118.649 129.216L118.154 118.32L106.676 117.743Z" fill="white"/>
<path opacity="0.5" d="M156.787 160.549L167.068 155.753L170.16 173.284L154.73 175.999L156.787 160.549Z" fill="white"/>
<path opacity="0.5" d="M159.173 178.665L158.342 190.678L169.042 189.547V175.999L159.173 178.665Z" fill="white"/>
<path opacity="0.5" d="M189.868 152.264L188.474 168.013H194.29L207.229 165.876L214.686 146.87L200.478 151.003L189.868 152.264Z" fill="white"/>
<path opacity="0.5" d="M175.218 153.168V157.442L185.989 157.135V152.264L175.218 153.168Z" fill="white"/>
<path opacity="0.5" d="M190.96 180.523L189.868 193.163L204.066 190.678L205.897 175.999L190.96 180.523Z" fill="white"/>
<path opacity="0.5" d="M178.532 196.976L188.474 197.682L185.989 223.048L176.451 222.751L172.883 221.467L178.532 196.976Z" fill="white"/>
<path opacity="0.5" d="M181.781 178.665L188.475 179.637L187.176 188.143H180.603L181.781 178.665Z" fill="white"/>
<path opacity="0.5" d="M235.248 202.243L248.128 203.497L251.066 219.01L235.248 219.332V202.243Z" fill="white"/>
<path opacity="0.5" d="M205.897 207.398L218.373 206.394L220.109 224.571H203.84L205.897 207.398Z" fill="white"/>
<path opacity="0.5" d="M240.446 235.003L242.253 243.31L251.066 241.872L249.484 233.236L240.446 235.003Z" fill="white"/>
<path opacity="0.5" d="M211.974 238.273L229.486 236.142L230.313 245.812L211.245 250.541L200.45 249.275L204.217 237.376L211.974 238.273Z" fill="white"/>
<path opacity="0.5" d="M121.363 210.012L135.6 207.398L134.644 217.227L130.628 226.816L120.389 229.543L121.363 210.012Z" fill="white"/>
<path opacity="0.5" d="M108.936 181.992V189.773L119.904 188.143L125.769 185.883L125.471 175.999L121.475 178.665L108.936 181.992Z" fill="white"/>
<path opacity="0.5" d="M86.1135 188.143L100.575 184.581L101.984 199.529L88.1474 202.244L86.1135 188.143Z" fill="white"/>
<path opacity="0.5" d="M87.1222 214.705L95.3782 207.398L97.5248 209.384L88.9859 217.583L87.1222 214.705Z" fill="white"/>
<path opacity="0.5" d="M89.277 235.003L93.3167 234.046L94.0488 242.196L90.0443 242.775L89.277 235.003Z" fill="white"/>
<path opacity="0.5" d="M99.8972 239.943L99.1228 225.702L108.936 224.571V238.64L99.8972 239.943Z" fill="white"/>
<path opacity="0.5" d="M161.747 207.398C164.799 207.398 167.273 204.924 167.273 201.873C167.273 198.822 164.799 196.348 161.747 196.348C158.696 196.348 156.222 198.822 156.222 201.873C156.222 204.924 158.696 207.398 161.747 207.398Z" fill="white"/>
<path opacity="0.1" d="M259.579 165.22L253.701 188.141L263.948 247.773L263.868 247.79L263.623 247.841L210.018 258.819L223.948 164.917L242.558 108.879L288.898 130.572C288.898 130.572 258.825 160.547 259.579 165.22Z" fill="black" fill-opacity="0.7"/>
<path opacity="0.1" d="M211.245 112.836L197.063 163.112L184.708 184.948L169.886 252.81L136.5 256.717L161.084 199.53L166.933 156.778L174.347 100.613L211.245 112.836Z" fill="black" fill-opacity="0.7"/>
<path opacity="0.1" d="M125.471 114.008L124.454 160.702L110.437 245.225L109.729 244.911L84.9853 249.275L78.4969 168.784L117.223 153.802L123.637 113.774C124.437 113.877 125.06 113.957 125.471 114.008Z" fill="black" fill-opacity="0.7"/>
<path d="M222.304 139.313C222.089 139.093 221.773 139.005 221.477 139.082L202.046 144.097L168.977 146.589C168.863 146.598 168.752 146.629 168.651 146.682L125.223 168.955L125.852 154.853V135.853C125.852 135.379 125.468 134.996 124.995 134.996H116.292C115.818 134.996 115.435 135.379 115.435 135.853C115.435 136.326 115.818 136.71 116.292 136.71H124.139L124.139 154.815L123.445 170.353C123.432 170.658 123.582 170.947 123.838 171.112C124.095 171.277 124.421 171.292 124.692 171.153L169.278 148.285L202.251 145.8C202.302 145.796 202.352 145.788 202.401 145.776L220.46 141.114L212.68 168.627C212.671 168.657 212.665 168.689 212.66 168.72L211.403 176.317L210.674 176.292C210.51 176.287 210.365 176.467 210.418 176.613L211.496 179.616C211.586 179.867 211.887 179.936 212.03 179.73L214.053 176.806C214.178 176.627 214.023 176.407 213.777 176.399L213.13 176.377L214.341 169.047L222.514 140.145C222.599 139.849 222.518 139.532 222.304 139.313Z" fill="#75A237"/>
<path opacity="0.6" d="M222.304 139.313C222.089 139.093 221.773 139.005 221.477 139.082L202.046 144.097L168.977 146.589C168.863 146.598 168.752 146.629 168.651 146.682L125.223 168.955L125.852 154.853V135.853C125.852 135.379 125.468 134.996 124.995 134.996H116.292C115.818 134.996 115.435 135.379 115.435 135.853C115.435 136.326 115.818 136.71 116.292 136.71H124.139L124.139 154.815L123.445 170.353C123.432 170.658 123.582 170.947 123.838 171.112C124.095 171.277 124.421 171.292 124.692 171.153L169.278 148.285L202.251 145.8C202.302 145.796 202.352 145.788 202.401 145.776L220.46 141.114L212.68 168.627C212.671 168.657 212.665 168.689 212.66 168.72L211.403 176.317L210.674 176.292C210.51 176.287 210.365 176.467 210.418 176.613L211.496 179.616C211.586 179.867 211.887 179.936 212.03 179.73L214.053 176.806C214.178 176.627 214.023 176.407 213.777 176.399L213.13 176.377L214.341 169.047L222.514 140.145C222.599 139.849 222.518 139.532 222.304 139.313Z" fill="black" fill-opacity="0.7"/>
<path d="M120.146 105.049C116.494 101.396 110.572 101.396 106.919 105.049C103.267 108.701 103.267 114.623 106.919 118.276L113.533 124.89L120.147 118.276C123.799 114.623 123.799 108.701 120.146 105.049ZM116.256 114.386C114.752 115.89 112.313 115.89 110.809 114.386C109.305 112.882 109.305 110.443 110.809 108.939C112.313 107.435 114.752 107.435 116.256 108.939C117.76 110.443 117.76 112.882 116.256 114.386Z" fill="#263238"/>
<path d="M106.898 115.764C107.64 117.253 108.681 118.603 109.978 119.65" stroke="white" stroke-width="0.64" stroke-miterlimit="10" stroke-linecap="round" stroke-linejoin="round"/>
<path d="M109.171 104.949C105.986 106.873 105.14 110.572 106.187 113.986" stroke="white" stroke-width="0.64" stroke-miterlimit="10" stroke-linecap="round" stroke-linejoin="round"/>
<path d="M113.532 103.719C112.725 103.721 111.92 103.844 111.147 104.076" stroke="white" stroke-width="0.64" stroke-miterlimit="10" stroke-linecap="round" stroke-linejoin="round"/>
<path d="M204.496 164.481C200.844 160.828 194.922 160.828 191.269 164.481C187.617 168.133 187.617 174.055 191.269 177.707L197.883 184.321L204.497 177.707C208.149 174.055 208.149 168.133 204.496 164.481ZM200.606 173.818C199.102 175.322 196.663 175.322 195.159 173.818C193.655 172.314 193.655 169.875 195.159 168.371C196.663 166.867 199.102 166.867 200.606 168.371C202.11 169.875 202.11 172.314 200.606 173.818Z" fill="#263238"/>
<path d="M191.248 175.196C191.99 176.685 193.031 178.035 194.328 179.082" stroke="white" stroke-width="0.64" stroke-miterlimit="10" stroke-linecap="round" stroke-linejoin="round"/>
<path d="M193.521 164.381C190.336 166.305 189.49 170.004 190.537 173.417" stroke="white" stroke-width="0.64" stroke-miterlimit="10" stroke-linecap="round" stroke-linejoin="round"/>
<path d="M197.882 163.151C197.075 163.153 196.27 163.276 195.497 163.508" stroke="white" stroke-width="0.64" stroke-miterlimit="10" stroke-linecap="round" stroke-linejoin="round"/>
<path d="M259.577 165.219C258.824 165.52 252.497 166.274 252.497 166.274C252.647 164.767 255.811 162.055 255.811 160.55C255.811 159.043 254.455 159.344 254.455 159.344C254.154 161.303 249.183 164.918 248.128 165.37C247.074 165.822 244.211 175.463 242.66 176.975C230.503 189.096 218.979 196.101 214.686 204.498C210.393 212.896 202.937 217.241 202.937 217.241C202.937 217.241 200.451 249.202 209.941 235.004C219.432 220.806 222.821 221.634 227.566 215.307C232.311 208.98 241.576 194.527 248.807 182.419C252.498 179.282 255.36 180.735 257.619 178.476C258.096 178 257.77 176.066 258.523 174.799C259.276 173.533 260.482 171.245 260.33 169.889C260.18 168.534 261.385 167.78 261.536 167.027C261.686 166.274 260.33 164.918 259.577 165.219Z" fill="#BFBFBF" stroke="#263238" stroke-width="0.64" stroke-miterlimit="10"/>
<path d="M113.735 209.649C111.272 200.545 101.446 191.308 92.0598 176.934C90.854 175.134 90.0483 165.11 89.11 164.45C88.1718 163.789 84.056 159.224 84.1667 157.246C84.1667 157.246 82.9027 156.67 82.591 158.144C82.2793 159.618 84.8137 162.925 84.6492 164.43C84.6492 164.43 78.6153 162.385 77.9401 161.934C77.2656 161.484 75.6585 162.53 75.6502 163.298C75.6419 164.066 76.6652 165.052 76.2371 166.347C75.8089 167.643 76.5148 170.13 76.9897 171.525C77.4646 172.919 76.7459 174.744 77.1132 175.309C78.8566 177.988 81.9574 177.158 84.9193 180.99C89.4889 194.331 95.5638 210.389 98.8976 217.561C102.231 224.733 105.719 224.623 112.067 240.477C118.415 256.331 122.594 224.548 122.594 224.548C122.594 224.548 116.199 218.753 113.735 209.649Z" fill="#BFBFBF" stroke="#263238" stroke-width="0.64" stroke-miterlimit="10"/>
<path d="M117.716 213.982C117.716 213.982 119.354 210.094 116.291 208.859C113.229 207.625 109.388 209.846 109.388 209.846C109.388 209.846 103.739 211.266 103.513 217.241C103.513 217.241 102.243 237.3 106.945 237.376C111.648 237.451 117.716 213.982 117.716 213.982Z" fill="#999999" stroke="#263238" stroke-width="0.64" stroke-miterlimit="10" stroke-linecap="round" stroke-linejoin="round"/>
<path d="M205.9 214.681C205.9 214.681 205.648 211.533 209.489 211.951C213.33 212.37 216.494 217.837 216.268 225.497C216.268 225.497 218.026 235.267 213.305 235.003C208.585 234.74 205.9 214.681 205.9 214.681Z" fill="#999999" stroke="#263238" stroke-width="0.64" stroke-miterlimit="10" stroke-linecap="round" stroke-linejoin="round"/>
<path d="M131.758 231.995C131.758 231.995 118.676 216.744 116.291 211.469C116.291 211.469 107.278 211.177 106.073 219.08C104.868 226.982 106.073 235.004 106.073 235.004C106.073 235.004 114.953 259.243 118.648 268.42L131.758 231.995Z" fill="#757575"/>
<mask id="mask0_550_1462" style="mask-type:luminance" maskUnits="userSpaceOnUse" x="105" y="211" width="27" height="58">
<path d="M131.758 231.995C131.758 231.995 118.676 216.744 116.291 211.469C116.291 211.469 107.278 211.177 106.073 219.08C104.868 226.982 106.073 235.004 106.073 235.004C106.073 235.004 114.953 259.243 118.648 268.42L131.758 231.995Z" fill="white"/>
</mask>
<g mask="url(#mask0_550_1462)">
<g opacity="0.3">
<path d="M127.139 226.468C125.26 226.708 123.226 227.325 121.102 228.507C120.604 228.775 120.108 229.077 119.605 229.415C119.148 229.723 118.714 230.083 118.314 230.494C116.424 232.397 115.15 235.315 114.316 238.725C113.911 240.411 113.608 242.215 113.391 244.078C113.031 247.185 112.917 250.446 112.957 253.571C111.872 250.681 110.798 247.79 109.821 245.181V245.175C110.003 243.187 110.284 241.216 110.684 239.32V239.314C111.01 237.721 111.426 236.19 111.946 234.75C112.974 231.889 114.402 229.404 116.361 227.622C116.778 227.239 117.224 226.885 117.698 226.571C118.194 226.24 118.691 225.931 119.182 225.652C121.084 224.566 122.935 223.864 124.706 223.447C125.551 224.503 126.373 225.52 127.139 226.468Z" fill="#75A237"/>
</g>
<g opacity="0.3">
<path d="M122.129 220.144C120.581 220.584 118.851 221.195 116.954 222.029C116.372 222.286 115.772 222.566 115.155 222.869C114.716 223.086 114.298 223.337 113.899 223.623C111.768 225.159 110.289 227.627 109.261 230.454C108.747 231.888 108.347 233.419 108.039 234.967C107.787 236.235 107.599 237.514 107.456 238.771C106.605 236.452 106.074 235.007 106.074 235.007C106.074 235.007 105.857 233.55 105.697 231.271C105.68 231.043 105.663 230.803 105.651 230.557C106.04 229.329 106.497 228.135 107.034 227.01C108.273 224.417 109.953 222.167 112.209 220.63C112.66 220.322 113.14 220.042 113.642 219.796C114.197 219.522 114.739 219.271 115.265 219.037C116.938 218.277 118.497 217.689 119.943 217.22C120.627 218.168 121.364 219.15 122.129 220.144Z" fill="#75A237"/>
</g>
<g opacity="0.3">
<path d="M117.486 213.622C115.995 214.004 114.595 214.576 113.282 215.278C112.254 215.821 111.282 216.449 110.362 217.14C108.649 218.413 107.118 219.887 105.787 221.395C105.861 220.629 105.953 219.853 106.073 219.081C106.426 216.779 107.438 215.169 108.694 214.049C108.706 214.043 108.711 214.037 108.717 214.026C108.74 214.009 108.768 213.991 108.797 213.975C109.477 213.489 110.185 213.032 110.922 212.61C111.19 212.45 111.465 212.301 111.744 212.153C111.762 212.187 111.779 212.221 111.79 212.256C112.315 212.062 112.841 211.913 113.326 211.805C115 211.428 116.291 211.467 116.291 211.467C116.566 212.068 116.972 212.799 117.486 213.622Z" fill="#75A237"/>
</g>
<g opacity="0.3">
<path d="M125.34 233.858L122.787 236.149C121.228 234.413 119.731 232.499 118.314 230.494C117.64 229.557 116.995 228.592 116.361 227.621C115.51 226.301 114.688 224.965 113.899 223.623C113.317 222.623 112.751 221.623 112.208 220.63C111.563 219.453 110.946 218.283 110.363 217.14C109.809 216.061 109.289 215.004 108.798 213.976C108.798 213.976 108.792 213.976 108.792 213.97C109.461 213.394 110.192 212.953 110.923 212.611C111.191 212.451 111.466 212.303 111.745 212.154C111.763 212.188 111.78 212.223 111.791 212.257C112.265 213.234 112.762 214.245 113.281 215.279C113.904 216.507 114.567 217.769 115.264 219.037C115.806 220.031 116.371 221.03 116.954 222.03C117.669 223.247 118.411 224.457 119.182 225.651C119.805 226.622 120.444 227.576 121.102 228.507C122.455 230.414 123.872 232.224 125.34 233.858Z" fill="#75A237"/>
</g>
<g opacity="0.3">
<path d="M122.032 255.032L118.742 255.997C117.765 252.667 115.801 248.486 113.39 244.077C112.539 242.512 111.625 240.918 110.683 239.319V239.313C109.821 237.857 108.935 236.406 108.039 234.966C107.262 233.716 106.48 232.476 105.697 231.271C105.68 231.043 105.663 230.803 105.652 230.557C105.554 228.918 105.503 226.936 105.572 224.799C106.046 225.514 106.537 226.256 107.034 227.01C107.765 228.123 108.514 229.277 109.262 230.454C110.158 231.86 111.061 233.299 111.947 234.749C112.752 236.069 113.546 237.4 114.317 238.725C117.749 244.643 120.708 250.514 122.032 255.032Z" fill="#75A237"/>
</g>
</g>
<mask id="mask1_550_1462" style="mask-type:luminance" maskUnits="userSpaceOnUse" x="105" y="211" width="27" height="58">
<path d="M131.758 231.995C131.758 231.995 118.676 216.744 116.291 211.469C116.291 211.469 107.278 211.177 106.073 219.08C104.868 226.982 106.073 235.004 106.073 235.004C106.073 235.004 114.953 259.243 118.648 268.42L131.758 231.995Z" fill="white"/>
</mask>
<g mask="url(#mask1_550_1462)">
<path opacity="0.2" d="M121.77 259.75L118.651 268.42C114.956 259.241 106.074 235.006 106.074 235.006C106.074 235.006 104.869 226.981 106.074 219.081C106.822 214.169 110.586 212.422 113.328 211.805C113.488 211.833 113.653 211.873 113.819 211.913C113.819 211.913 106.685 216.483 107.468 234.047L114.414 253.267C114.414 253.267 115.139 246.578 117.921 247.544C119.114 247.955 120.816 253.501 121.77 259.75Z" fill="black" fill-opacity="0.7"/>
</g>
<path d="M131.758 231.995C131.758 231.995 118.676 216.744 116.291 211.469C116.291 211.469 107.278 211.177 106.073 219.08C104.868 226.982 106.073 235.004 106.073 235.004C106.073 235.004 114.953 259.243 118.648 268.42L131.758 231.995Z" stroke="#263238" stroke-width="0.64" stroke-miterlimit="10" stroke-linecap="round" stroke-linejoin="round"/>
<path d="M159.939 218.372C159.879 218.64 159.614 218.854 159.173 219.013C158.392 219.295 157.059 219.393 155.362 219.296C147.207 218.847 130.65 214.004 126.7 204.366C122.483 194.083 133.303 180.651 144.885 180.365C151.546 180.203 157.159 188.074 158.506 197.287C159.157 201.74 162.942 205.423 159.939 218.372Z" fill="#BFBFBF" stroke="#263238" stroke-width="0.64" stroke-miterlimit="10"/>
<path d="M154.281 203.497C154.281 203.497 153.658 204.451 153.829 206.251" stroke="#263238" stroke-width="0.64" stroke-miterlimit="10" stroke-linecap="round" stroke-linejoin="round"/>
<path d="M154.35 208.855C154.35 208.855 155.528 210.455 156.385 209.718" stroke="#263238" stroke-width="0.64" stroke-miterlimit="10" stroke-linecap="round" stroke-linejoin="round"/>
<path d="M159.173 219.013C158.393 219.295 157.059 219.393 155.363 219.296C155.53 218.086 155.849 216.685 155.954 215.983C156.284 213.763 155.171 213.067 155.645 212.911C156.095 212.764 156.073 214.727 157.014 215.734C158.197 216.998 158.785 218.331 159.173 219.013Z" fill="#263238"/>
<path d="M155.964 217.327C155.964 217.327 154.517 222.891 154.669 225.713C154.822 228.534 155.839 232.121 155.839 232.121L138.265 233.142C138.265 233.142 140.894 220.484 139.489 216.057C138.085 211.629 150.723 213.241 150.723 213.241" fill="#BFBFBF"/>
<path d="M155.964 217.327C155.964 217.327 154.517 222.891 154.669 225.713C154.822 228.534 155.839 232.121 155.839 232.121L138.265 233.142C138.265 233.142 140.894 220.484 139.489 216.057C138.085 211.629 150.723 213.241 150.723 213.241" stroke="#263238" stroke-width="0.64" stroke-miterlimit="10"/>
<path d="M153.95 191.207C154.689 188.816 155.998 189.053 155.998 189.053C155.998 189.053 155.146 177.566 150.252 176.343C146.935 175.514 146.029 180.508 142.59 176.911C140.659 174.892 137.163 174.324 134.814 176.052C133.423 177.074 133.472 178.5 132.545 179.742C131.59 181.021 129.701 180.934 128.291 181.221C126.114 181.665 123.907 183.284 123.454 185.577C123.086 187.446 125.371 188.921 124.926 190.457C124.393 192.297 122.689 193.405 121.63 194.909C120.343 196.738 120.236 199.117 120.73 201.245C121.462 204.401 123.098 205.637 125.634 207.25C126.905 208.057 127.667 209.526 128.451 210.761C131.087 214.909 134.291 217.942 139.321 218.799C149.438 220.524 153.968 211.188 153.968 211.188C153.968 211.188 152.828 201.934 153.657 200.877C154.485 199.821 156.225 203.43 156.225 203.43C158.304 197.837 153.95 191.207 153.95 191.207Z" fill="#263238"/>
<path d="M156.297 204.897C155.994 203.769 156.209 199.126 154.806 199.558C153.578 199.936 154.169 204.715 155.425 207.907C156.682 211.099 158.268 211.095 158.313 210.185C158.359 209.276 157.295 208.675 157.007 207.337" fill="#BFBFBF"/>
<path d="M156.297 204.897C155.994 203.769 156.209 199.126 154.806 199.558C153.578 199.936 154.169 204.715 155.425 207.907C156.682 211.099 158.268 211.095 158.313 210.185C158.359 209.276 157.295 208.675 157.007 207.337" stroke="#263238" stroke-width="0.64" stroke-miterlimit="10"/>
<path opacity="0.3" d="M153.228 185.456C153.228 185.456 153.786 180.176 150.22 180.361C146.652 180.546 146.839 185.456 146.839 185.456C146.839 185.456 143.842 184.445 142.818 186.168C141.794 187.89 142.855 191.393 142.855 191.393C142.855 191.393 139.647 192.41 140.439 194.557C141.23 196.703 139.173 197.019 139.173 197.019" stroke="white" stroke-width="0.64" stroke-miterlimit="10" stroke-linecap="round" stroke-linejoin="round"/>
<path opacity="0.3" d="M152.414 189.773C152.414 189.773 151.853 194.443 148.519 194.556C148.519 194.556 145.084 205.101 133.434 204.873" stroke="white" stroke-width="0.64" stroke-miterlimit="10" stroke-linecap="round" stroke-linejoin="round"/>
<path opacity="0.3" d="M143.489 179.638C143.489 179.638 140.797 177.122 137.567 178.665C134.337 180.208 136.484 184.581 136.484 184.581C136.484 184.581 133.345 184.388 132.316 186.761C131.287 189.133 134.337 190.678 134.337 190.678C134.337 190.678 130.86 192.523 132.316 193.991C133.772 195.46 132.316 198.398 132.316 198.398" stroke="white" stroke-width="0.64" stroke-miterlimit="10" stroke-linecap="round" stroke-linejoin="round"/>
<path opacity="0.3" d="M130.044 184.581C130.044 184.581 125.167 186.121 126.193 189.774C127.22 193.427 128.048 193.412 128.048 193.412C128.048 193.412 124.396 194.672 124.17 197.326C123.944 199.98 127.107 199.847 127.107 199.847C127.107 199.847 126.09 202.496 128.689 203.498" stroke="white" stroke-width="0.64" stroke-miterlimit="10" stroke-linecap="round" stroke-linejoin="round"/>
<path d="M131.758 230.377C131.758 230.377 143.53 222.085 164.951 230.804L181.024 227.054C181.024 227.054 191.419 255.28 185.184 284.214C185.184 284.214 171.233 294.223 147.889 294.167C122.567 294.107 116.291 284.214 116.291 284.214L119.916 274.98C117.733 264.437 114.908 247.524 117.061 238.773C120.334 225.476 131.758 230.377 131.758 230.377Z" fill="#757575"/>
<mask id="mask2_550_1462" style="mask-type:luminance" maskUnits="userSpaceOnUse" x="116" y="226" width="72" height="69">
<path d="M131.758 230.377C131.758 230.377 143.53 222.085 164.951 230.804L181.024 227.054C181.024 227.054 191.419 255.28 185.184 284.214C185.184 284.214 171.233 294.223 147.889 294.167C122.567 294.107 116.291 284.214 116.291 284.214L119.916 274.98C117.733 264.437 114.908 247.524 117.061 238.773C120.334 225.476 131.758 230.377 131.758 230.377Z" fill="white"/>
</mask>
<g mask="url(#mask2_550_1462)">
<g opacity="0.3">
<path d="M179.859 287.224C178.882 287.698 177.774 288.2 176.54 288.708C176.437 287.486 176.341 286.275 176.249 285.082C176.152 283.853 176.06 282.648 175.98 281.455C175.712 277.828 175.489 274.36 175.295 271.065C175.227 269.808 175.158 268.58 175.095 267.375C174.838 262.429 174.656 257.888 174.541 253.741C174.501 252.399 174.467 251.097 174.438 249.84C174.347 245.442 174.324 241.552 174.341 238.171C174.347 236.84 174.364 235.583 174.381 234.407C174.415 232.179 174.467 230.232 174.53 228.57L177.985 227.764C177.928 229.21 177.871 230.906 177.836 232.854H177.831C177.808 234.047 177.785 235.327 177.774 236.709C177.745 239.931 177.756 243.666 177.831 247.921C177.848 249.212 177.876 250.548 177.911 251.937C178.019 256.141 178.19 260.79 178.448 265.879C178.51 267.096 178.573 268.346 178.642 269.615C178.83 272.916 179.053 276.389 179.31 280.033C179.395 281.227 179.487 282.443 179.584 283.677C179.67 284.842 179.762 286.024 179.859 287.224Z" fill="#75A237"/>
</g>
<g opacity="0.3">
<path d="M169.686 229.7C169.434 231.591 169.161 233.852 168.892 236.446C168.766 237.628 168.64 238.879 168.521 240.199C168.183 243.962 167.869 248.264 167.641 253.004C167.584 254.244 167.527 255.518 167.487 256.82C167.333 261.047 167.258 265.582 167.304 270.362C167.315 271.562 167.333 272.778 167.361 274.006C167.429 277.439 167.561 280.986 167.767 284.63C167.835 285.813 167.909 287.001 167.995 288.206C168.069 289.303 168.149 290.411 168.247 291.525C167.167 291.822 166.042 292.101 164.871 292.359C164.786 291.342 164.706 290.331 164.637 289.326C164.551 288.132 164.471 286.949 164.403 285.779C164.18 282.094 164.037 278.502 163.957 275.023C163.923 273.813 163.9 272.619 163.889 271.436C163.832 266.707 163.883 262.212 164.02 257.996C164.054 256.728 164.1 255.489 164.157 254.278C164.362 249.457 164.665 245.059 164.997 241.175C165.111 239.896 165.219 238.673 165.334 237.508C165.602 234.869 165.871 232.527 166.122 230.528L169.686 229.7Z" fill="#75A237"/>
</g>
<g opacity="0.3">
<path d="M158.216 228.506C157.874 231.23 157.463 234.886 157.051 239.273C156.948 240.404 156.846 241.58 156.743 242.803C156.406 246.869 156.086 251.439 155.846 256.38C155.789 257.54 155.732 258.722 155.686 259.921C155.514 264.182 155.406 268.688 155.389 273.367C155.377 274.521 155.377 275.685 155.389 276.862C155.412 280.575 155.492 284.391 155.651 288.263C155.697 289.423 155.749 290.582 155.811 291.753C155.845 292.427 155.886 293.101 155.925 293.781C154.812 293.89 153.675 293.98 152.51 294.044C152.475 293.513 152.447 292.981 152.418 292.456C152.355 291.296 152.298 290.142 152.252 288.994C152.081 285.008 151.99 281.083 151.967 277.257C151.955 276.097 151.95 274.949 151.961 273.806C151.973 269.129 152.075 264.622 152.241 260.343C152.286 259.161 152.332 258.002 152.389 256.859C152.624 251.907 152.932 247.315 153.269 243.214C153.366 242.009 153.468 240.843 153.571 239.73C154.023 234.749 154.491 230.654 154.862 227.707C155.949 227.924 157.063 228.187 158.216 228.506Z" fill="#75A237"/>
</g>
<g opacity="0.3">
<path d="M146.085 294.146C144.885 294.123 143.731 294.072 142.618 293.998C142.595 293.804 142.572 293.603 142.555 293.404C142.435 292.29 142.338 291.142 142.264 289.959C141.996 285.967 141.91 281.62 141.83 276.982C141.824 276.794 141.824 276.611 141.819 276.422C141.801 275.468 141.784 274.491 141.767 273.503C141.687 269.339 141.573 264.896 141.31 260.206C141.248 259.063 141.179 257.898 141.093 256.727C140.979 255.071 140.842 253.392 140.682 251.684C140.396 248.651 140.248 245.898 140.219 243.402C140.208 242.191 140.219 241.043 140.254 239.957C140.437 234.12 141.265 229.939 142.156 227.054C143.298 226.917 144.532 226.837 145.851 226.82C144.931 229.328 143.881 233.571 143.681 240.145C143.647 241.225 143.635 242.368 143.658 243.578C143.687 245.92 143.824 248.508 144.098 251.358C144.281 253.294 144.435 255.19 144.56 257.052C144.64 258.218 144.709 259.366 144.766 260.497C145.017 265.238 145.125 269.721 145.2 273.914C145.217 274.742 145.228 275.559 145.245 276.364C145.251 276.696 145.257 277.027 145.262 277.353C145.342 281.854 145.428 286.069 145.696 289.907C145.771 291.084 145.868 292.22 145.993 293.322C146.016 293.603 146.05 293.878 146.085 294.146Z" fill="#75A237"/>
</g>
<g opacity="0.3">
<path d="M134.633 242.643C134.507 244.91 134.484 247.172 134.592 249.326C134.7 251.456 134.746 253.478 134.746 255.431C134.746 256.636 134.729 257.813 134.701 258.972C134.598 262.942 134.341 266.706 134.073 270.585C134.05 270.933 134.027 271.281 133.998 271.635C133.918 272.801 133.844 273.977 133.77 275.171C133.564 278.375 133.404 281.711 133.37 285.297C133.358 286.257 133.364 287.188 133.387 288.09C133.41 289.399 133.461 290.643 133.536 291.82C133.553 292.174 133.576 292.523 133.604 292.865C132.359 292.62 131.194 292.346 130.108 292.043C130.08 291.529 130.051 291.004 130.028 290.461C129.971 289.221 129.943 287.92 129.937 286.554C129.937 286.132 129.937 285.697 129.943 285.264C129.982 281.254 130.177 277.581 130.4 274.057C130.48 272.846 130.56 271.653 130.64 270.47C130.645 270.43 130.645 270.384 130.651 270.345C130.942 266.204 131.217 262.205 131.291 257.95C131.32 256.762 131.325 255.551 131.308 254.311C131.297 252.758 131.251 251.159 131.166 249.497C131.04 247.018 131.08 244.43 131.234 241.86C131.303 240.689 131.394 239.524 131.497 238.37C131.782 235.377 132.182 232.476 132.61 229.865C133.278 229.505 134.346 228.991 135.797 228.483C135.809 228.483 135.82 228.477 135.832 228.477C135.838 228.471 135.849 228.465 135.855 228.465H135.861C136.026 228.403 136.198 228.346 136.375 228.294C135.803 231.475 135.232 235.274 134.878 239.186C134.775 240.336 134.69 241.489 134.633 242.643Z" fill="#75A237"/>
</g>
<g opacity="0.3">
<path d="M130.337 229.917C130.823 230.042 131.211 230.174 131.451 230.26C129.589 231.471 127.635 233.453 126.71 236.686C126.407 237.713 126.218 238.873 126.167 240.175C126.133 240.947 126.15 241.763 126.224 242.632C126.51 245.973 126.698 249.194 126.778 252.307C126.818 253.615 126.841 254.895 126.841 256.163C126.847 260.504 126.652 264.645 126.247 268.615C126.128 269.831 125.991 271.031 125.825 272.219C125.733 272.904 125.637 273.584 125.528 274.264C125.122 276.851 124.728 279.924 124.403 283.077C124.266 284.414 124.14 285.762 124.032 287.093C123.957 288.001 123.895 288.897 123.838 289.777C122.541 289.178 121.444 288.561 120.531 287.967C120.617 286.859 120.713 285.756 120.816 284.688C120.959 283.203 121.113 281.781 121.267 280.478C121.713 276.606 122.136 273.813 122.147 273.733C122.301 272.727 122.444 271.711 122.569 270.682C122.723 269.466 122.855 268.238 122.958 266.987C123.323 262.983 123.466 258.796 123.397 254.387C123.38 253.045 123.34 251.685 123.283 250.297C123.186 247.91 123.026 245.454 122.809 242.923C122.678 241.375 122.695 239.964 122.832 238.673C122.963 237.4 123.215 236.24 123.557 235.189C124.34 232.767 125.602 230.911 127.018 229.495C128.321 229.488 129.486 229.7 130.337 229.917Z" fill="#75A237"/>
<path d="M135.861 228.466V228.472C135.861 228.472 135.861 228.472 135.855 228.472C135.849 228.472 135.843 228.478 135.832 228.478C135.838 228.472 135.849 228.466 135.855 228.466H135.861Z" fill="#75A237"/>
</g>
<g opacity="0.3">
<path d="M183.114 233.989C181.646 234.823 179.865 235.76 177.774 236.708C176.712 237.194 175.564 237.685 174.341 238.17C172.56 238.873 170.617 239.559 168.521 240.198C167.39 240.541 166.213 240.872 164.997 241.175C162.432 241.825 159.679 242.385 156.743 242.803C155.612 242.963 154.453 243.1 153.271 243.214C150.763 243.46 148.142 243.597 145.411 243.597C144.914 243.597 144.423 243.597 143.927 243.585C143.835 243.585 143.744 243.58 143.658 243.58C142.481 243.551 141.334 243.494 140.22 243.402C138.261 243.237 136.398 242.98 134.634 242.643C133.457 242.414 132.326 242.151 131.235 241.86C129.436 241.374 127.745 240.809 126.169 240.175C124.998 239.706 123.884 239.204 122.833 238.673C121.074 237.788 119.475 236.833 118.035 235.845C118.538 234.663 119.127 233.686 119.772 232.887C120.926 233.681 122.182 234.457 123.559 235.189C124.547 235.714 125.598 236.217 126.711 236.685C128.196 237.313 129.79 237.884 131.498 238.37C132.577 238.679 133.703 238.953 134.88 239.187C136.57 239.535 138.364 239.798 140.254 239.958C141.362 240.061 142.499 240.124 143.681 240.147C143.779 240.153 143.881 240.158 143.984 240.158C144.453 240.17 144.915 240.17 145.378 240.17C148.234 240.17 150.97 240.01 153.575 239.73C154.762 239.605 155.922 239.45 157.053 239.273C160.012 238.816 162.782 238.211 165.335 237.508C166.575 237.176 167.757 236.817 168.894 236.446C170.881 235.795 172.715 235.104 174.383 234.407C175.633 233.887 176.776 233.361 177.833 232.853H177.838C179.535 232.031 180.98 231.248 182.156 230.563C182.446 231.528 182.771 232.675 183.114 233.989Z" fill="#75A237"/>
</g>
<g opacity="0.3">
<path d="M185.765 246.795C183.703 248.338 181.052 250.148 177.911 251.936C176.843 252.541 175.724 253.152 174.541 253.74C172.365 254.837 170.006 255.888 167.487 256.819C166.362 257.241 165.208 257.635 164.02 257.995C161.381 258.806 158.6 259.469 155.687 259.92C154.562 260.098 153.408 260.24 152.242 260.343C150.66 260.491 149.049 260.565 147.404 260.565C146.53 260.565 145.651 260.542 144.766 260.497C143.623 260.44 142.475 260.343 141.31 260.206C141.087 260.183 140.864 260.154 140.642 260.126C138.557 259.852 136.581 259.463 134.701 258.972C133.525 258.669 132.387 258.327 131.291 257.949C129.732 257.412 128.247 256.812 126.842 256.162C125.637 255.602 124.489 255.008 123.397 254.385C120.736 252.871 118.388 251.192 116.349 249.484C116.286 247.851 116.275 246.28 116.326 244.801C118.32 246.72 120.633 248.605 123.283 250.296C124.386 251.004 125.55 251.678 126.778 252.306C128.206 253.043 129.714 253.711 131.308 254.311C132.41 254.723 133.558 255.1 134.746 255.431C136.74 255.996 138.848 256.436 141.081 256.727C141.087 256.727 141.087 256.727 141.093 256.727C142.258 256.882 143.411 256.99 144.56 257.053C147.239 257.202 149.854 257.122 152.391 256.859C153.562 256.734 154.715 256.574 155.846 256.379C158.754 255.877 161.535 255.151 164.157 254.277C165.351 253.883 166.516 253.455 167.641 253.004C170.08 252.033 172.354 250.953 174.438 249.84C175.632 249.205 176.768 248.56 177.831 247.92C180.852 246.104 183.32 244.327 185.113 242.928C185.342 244.162 185.559 245.453 185.765 246.795Z" fill="#75A237"/>
</g>
<g opacity="0.3">
<path d="M187.175 264.594C187.175 264.851 187.175 265.108 187.17 265.371C184.713 266.707 181.829 268.175 178.642 269.614C177.562 270.106 176.442 270.591 175.294 271.065C172.775 272.116 170.108 273.122 167.361 274.007C166.242 274.366 165.105 274.709 163.957 275.024C161.146 275.806 158.274 276.44 155.389 276.863C154.252 277.029 153.11 277.16 151.968 277.257C150.608 277.371 149.243 277.435 147.895 277.435C147.016 277.435 146.136 277.406 145.262 277.355C144.217 277.292 143.177 277.183 142.144 277.035C142.041 277.017 141.932 277.006 141.829 276.983C139.048 276.572 136.357 275.95 133.77 275.173C132.627 274.83 131.502 274.459 130.4 274.059C128.829 273.493 127.304 272.877 125.824 272.22C124.711 271.728 123.625 271.214 122.569 270.683C121.221 270.009 119.924 269.312 118.679 268.598C118.416 267.141 118.159 265.634 117.913 264.097C119.495 265.079 121.18 266.05 122.957 266.987C124.019 267.547 125.116 268.089 126.247 268.615C127.663 269.271 129.131 269.894 130.639 270.471C131.736 270.888 132.855 271.282 133.998 271.637C136.494 272.431 139.087 273.076 141.766 273.504C142.051 273.556 142.343 273.602 142.634 273.641C143.479 273.761 144.336 273.853 145.198 273.915C147.415 274.064 149.682 274.012 151.961 273.806C153.104 273.698 154.246 273.555 155.388 273.367C158.244 272.921 161.095 272.253 163.888 271.436C165.042 271.104 166.178 270.745 167.303 270.362C170.01 269.454 172.627 268.437 175.094 267.374C176.248 266.884 177.367 266.38 178.447 265.878C181.765 264.336 184.718 262.782 187.129 261.44C187.159 262.48 187.175 263.531 187.175 264.594Z" fill="#75A237"/>
</g>
<g opacity="0.3">
<path d="M186.444 276.731C186.364 277.376 186.279 278.022 186.181 278.667C186.078 279.392 185.959 280.118 185.833 280.843C184.108 281.666 181.989 282.636 179.584 283.676C178.528 284.139 177.408 284.608 176.249 285.081C173.69 286.126 170.908 287.195 167.995 288.206C166.892 288.588 165.773 288.965 164.636 289.325C161.746 290.245 158.776 291.079 155.811 291.753C154.681 292.015 153.544 292.249 152.419 292.455C150.288 292.85 148.175 293.141 146.119 293.312C146.078 293.318 146.033 293.318 145.993 293.324C145.148 293.392 144.308 293.421 143.486 293.421C143.171 293.421 142.863 293.415 142.554 293.404C139.316 293.312 136.3 292.724 133.536 291.822C132.319 291.428 131.148 290.971 130.028 290.462C127.835 289.48 125.83 288.32 124.031 287.092C122.871 286.309 121.797 285.493 120.815 284.688C119.495 283.602 118.33 282.523 117.342 281.529L118.736 277.988C119.45 278.748 120.295 279.593 121.267 280.478C122.198 281.324 123.249 282.203 124.403 283.077C126.036 284.306 127.887 285.511 129.937 286.556C131.029 287.122 132.182 287.641 133.388 288.092C136.095 289.115 139.065 289.812 142.264 289.96C143.377 290.011 144.526 290 145.697 289.909C145.742 289.903 145.794 289.903 145.84 289.897C147.919 289.726 150.072 289.412 152.254 288.995C153.379 288.778 154.515 288.532 155.652 288.264C158.582 287.573 161.536 286.716 164.403 285.78C165.539 285.408 166.665 285.026 167.767 284.631C170.675 283.598 173.45 282.507 175.981 281.456C177.152 280.976 178.26 280.496 179.311 280.034C182.281 278.736 184.737 277.565 186.444 276.731Z" fill="#75A237"/>
</g>
</g>
<mask id="mask3_550_1462" style="mask-type:luminance" maskUnits="userSpaceOnUse" x="116" y="226" width="72" height="69">
<path d="M131.758 230.377C131.758 230.377 143.53 222.085 164.951 230.804L181.024 227.054C181.024 227.054 191.419 255.28 185.184 284.214C185.184 284.214 171.233 294.223 147.889 294.167C122.567 294.107 116.291 284.214 116.291 284.214L119.916 274.98C117.733 264.437 114.908 247.524 117.061 238.773C120.334 225.476 131.758 230.377 131.758 230.377Z" fill="white"/>
</mask>
<g mask="url(#mask3_550_1462)">
<path opacity="0.2" d="M165.077 230.774C160.359 233.459 149.015 239.285 140.579 238.639C133.81 238.119 130.954 233.624 130.338 229.917C131.217 230.146 131.76 230.38 131.76 230.38C131.76 230.38 143.532 222.086 164.951 230.803L165.077 230.774Z" fill="black" fill-opacity="0.7"/>
<path opacity="0.2" d="M149.854 294.146C149.209 294.163 148.552 294.169 147.889 294.169C122.569 294.106 116.292 284.213 116.292 284.213L119.919 274.977C118.657 268.9 117.183 260.703 116.577 253.175C118.56 257.265 130.869 280.98 149.089 280.877C162.003 280.797 155.818 288.623 149.854 294.146Z" fill="black" fill-opacity="0.7"/>
<path opacity="0.2" d="M187.175 264.593C187.175 269.128 186.89 273.864 186.181 278.667C179.493 270.613 181.6 255.997 181.6 255.997C182.48 261.697 185.439 263.822 187.175 264.593Z" fill="black" fill-opacity="0.7"/>
</g>
<path d="M131.758 230.377C131.758 230.377 143.53 222.085 164.951 230.804L181.024 227.054C181.024 227.054 191.419 255.28 185.184 284.214C185.184 284.214 171.233 294.223 147.889 294.167C122.567 294.107 116.291 284.214 116.291 284.214L119.916 274.98C117.733 264.437 114.908 247.524 117.061 238.773C120.334 225.476 131.758 230.377 131.758 230.377Z" stroke="#263238" stroke-width="0.64" stroke-miterlimit="10" stroke-linecap="round" stroke-linejoin="round"/>
<path d="M139.744 234.939C147.142 235.228 156.123 235.175 162.58 231.057" stroke="#263238" stroke-width="0.64" stroke-miterlimit="10" stroke-linecap="round" stroke-linejoin="round"/>
<path d="M135.6 234.665C136.263 234.732 136.929 234.784 137.594 234.827" stroke="#263238" stroke-width="0.64" stroke-miterlimit="10" stroke-linecap="round" stroke-linejoin="round"/>
<path d="M141.308 280.686C141.372 281.867 141.494 283.071 141.813 284.214" stroke="#263238" stroke-width="0.64" stroke-miterlimit="10" stroke-linecap="round" stroke-linejoin="round"/>
<path d="M139.365 236.623C138.185 239.541 137.614 242.398 138.185 245.825C141.041 256.677 142.755 266.958 141.287 277.976" stroke="#263238" stroke-width="0.64" stroke-miterlimit="10" stroke-linecap="round" stroke-linejoin="round"/>
<path d="M143.399 273.274C147.11 274.224 150.998 274.192 154.731 273.379" stroke="#263238" stroke-width="0.64" stroke-miterlimit="10" stroke-linecap="round" stroke-linejoin="round"/>
<path d="M120.171 250.286C124.194 259.773 131.447 267.857 140.735 272.418" stroke="#263238" stroke-width="0.64" stroke-miterlimit="10" stroke-linecap="round" stroke-linejoin="round"/>
<path d="M118.275 244.908C118.494 245.679 118.734 246.445 118.993 247.203" stroke="#263238" stroke-width="0.64" stroke-miterlimit="10" stroke-linecap="round" stroke-linejoin="round"/>
<path d="M181.024 227.054C181.024 227.054 179.017 239.183 181.41 254.549C183.804 269.914 187.554 269.762 187.554 269.762C187.554 269.762 208.962 243.301 214.686 232.605C214.686 232.605 213.33 217.241 207.305 213.982L181.024 227.054Z" fill="#757575"/>
<mask id="mask4_550_1462" style="mask-type:luminance" maskUnits="userSpaceOnUse" x="180" y="213" width="35" height="57">
<path d="M181.024 227.054C181.024 227.054 179.017 239.183 181.41 254.549C183.804 269.914 187.554 269.762 187.554 269.762C187.554 269.762 208.962 243.301 214.686 232.605C214.686 232.605 213.33 217.241 207.305 213.982L181.024 227.054Z" fill="white"/>
</mask>
<g mask="url(#mask4_550_1462)">
<g opacity="0.3">
<path d="M210.845 238.833C209.982 240.118 209.052 241.478 208.069 242.872C207.561 239.833 206.972 237.023 206.333 234.424C206.025 233.156 205.699 231.939 205.362 230.774C204.637 228.226 203.866 225.919 203.083 223.839C202.638 222.668 202.192 221.566 201.752 220.537C201.272 219.424 200.798 218.39 200.336 217.448L203.449 215.899C203.843 216.694 204.243 217.544 204.642 218.452C205.099 219.481 205.556 220.577 206.007 221.754C206.779 223.725 207.532 225.906 208.258 228.3C208.606 229.46 208.949 230.671 209.275 231.933C209.84 234.081 210.366 236.378 210.845 238.833Z" fill="#75A237"/>
</g>
<g opacity="0.3">
<path d="M202.997 249.857C201.992 251.204 200.981 252.547 199.982 253.86C199.536 249.268 198.874 244.996 198.074 241.066V241.06C197.822 239.787 197.554 238.553 197.269 237.359C196.572 234.355 195.806 231.585 195.029 229.077C194.664 227.895 194.293 226.769 193.922 225.701C193.39 224.148 192.859 222.719 192.351 221.423L195.464 219.875C195.938 221.074 196.435 222.382 196.932 223.798C197.309 224.861 197.692 225.986 198.075 227.174C198.823 229.544 199.571 232.148 200.262 234.976C200.559 236.17 200.845 237.403 201.119 238.677C201.855 242.129 202.5 245.859 202.997 249.857Z" fill="#75A237"/>
</g>
<g opacity="0.3">
<path d="M194.892 260.486C193.842 261.84 192.853 263.091 191.968 264.216C191.186 258.516 190.203 252.884 189.152 247.601C188.906 246.361 188.661 245.139 188.41 243.939C187.673 240.415 186.919 237.085 186.194 234.046C185.914 232.853 185.634 231.704 185.36 230.607C184.908 228.768 184.474 227.072 184.069 225.541L187.205 223.982C187.599 225.467 188.021 227.112 188.467 228.906C188.746 230.008 189.033 231.162 189.324 232.367V232.373C190.009 235.251 190.734 238.404 191.449 241.757C191.706 242.956 191.962 244.184 192.214 245.43V245.436C193.184 250.211 194.11 255.294 194.892 260.486Z" fill="#75A237"/>
</g>
<g opacity="0.3">
<path d="M210.874 218.036C209.4 219.207 207.778 220.458 206.007 221.754C205.076 222.44 204.099 223.137 203.083 223.839C201.513 224.936 199.845 226.05 198.074 227.175C197.091 227.804 196.075 228.437 195.029 229.077C193.219 230.174 191.317 231.276 189.323 232.367V232.373C188.3 232.933 187.261 233.493 186.193 234.047C184.285 235.041 182.309 236.023 180.258 236.983C180.287 235.566 180.344 234.27 180.418 233.116V233.11C182.121 232.287 183.765 231.454 185.359 230.608C186.416 230.042 187.455 229.477 188.466 228.906C190.368 227.843 192.185 226.769 193.921 225.701C194.954 225.067 195.96 224.433 196.931 223.799C198.633 222.696 200.238 221.606 201.751 220.538C202.757 219.829 203.722 219.133 204.642 218.453C206.172 217.316 207.583 216.225 208.874 215.191C209.28 215.603 209.662 216.082 210.016 216.602C210.325 217.048 210.611 217.528 210.874 218.036Z" fill="#75A237"/>
</g>
<g opacity="0.3">
<path d="M213.987 227.826C212.502 229.146 210.931 230.522 209.274 231.933C208.321 232.755 207.338 233.584 206.333 234.423C204.654 235.828 202.912 237.251 201.118 238.679C200.119 239.472 199.102 240.272 198.074 241.061V241.066C196.16 242.54 194.201 244.008 192.213 245.43V245.436C191.196 246.167 190.18 246.892 189.152 247.601C186.507 249.429 183.828 251.177 181.155 252.782C180.977 251.508 180.835 250.257 180.715 249.04C183.291 247.447 185.867 245.728 188.409 243.939C189.426 243.225 190.442 242.5 191.448 241.758C193.424 240.318 195.372 238.839 197.268 237.36C198.279 236.565 199.278 235.772 200.261 234.978C202.02 233.567 203.722 232.156 205.361 230.773C206.35 229.934 207.321 229.111 208.257 228.3C209.977 226.81 211.599 225.37 213.118 224.005C213.479 225.336 213.764 226.65 213.987 227.826Z" fill="#75A237"/>
</g>
</g>
<mask id="mask5_550_1462" style="mask-type:luminance" maskUnits="userSpaceOnUse" x="180" y="213" width="35" height="57">
<path d="M181.024 227.054C181.024 227.054 179.017 239.183 181.41 254.549C183.804 269.914 187.554 269.762 187.554 269.762C187.554 269.762 208.962 243.301 214.686 232.605C214.686 232.605 213.33 217.241 207.305 213.982L181.024 227.054Z" fill="white"/>
</mask>
<g mask="url(#mask5_550_1462)">
<path opacity="0.2" d="M214.684 232.607C208.96 243.3 187.553 269.762 187.553 269.762C187.553 269.762 184.366 269.893 181.989 257.842C183.737 264.341 188.473 265.004 188.473 265.004L210.286 236.142C207.961 231.202 209.96 216.979 210.018 216.603C213.758 222.075 214.684 232.607 214.684 232.607Z" fill="black" fill-opacity="0.7"/>
</g>
<path d="M181.024 227.054C181.024 227.054 179.017 239.183 181.41 254.549C183.804 269.914 187.554 269.762 187.554 269.762C187.554 269.762 208.962 243.301 214.686 232.605C214.686 232.605 213.33 217.241 207.305 213.982L181.024 227.054Z" stroke="#263238" stroke-width="0.64" stroke-miterlimit="10" stroke-linecap="round" stroke-linejoin="round"/>
<path d="M164.951 230.804C164.951 230.804 156.086 224.303 144.336 222.931C132.586 221.559 132.887 228.488 132.887 228.488C132.887 228.488 131.231 229.107 131.758 231.057C132.285 233.007 148.192 234.896 164.951 230.804Z" fill="#757575"/>
<mask id="mask6_550_1462" style="mask-type:luminance" maskUnits="userSpaceOnUse" x="131" y="222" width="34" height="12">
<path d="M164.951 230.804C164.951 230.804 156.086 224.303 144.336 222.931C132.586 221.559 132.887 228.488 132.887 228.488C132.887 228.488 131.231 229.107 131.758 231.057C132.285 233.007 148.192 234.896 164.951 230.804Z" fill="white"/>
</mask>
<g mask="url(#mask6_550_1462)">
<g opacity="0.3">
<path d="M143.634 222.857C143.371 223.486 143.086 224.268 142.806 225.222C142.521 226.181 142.235 227.318 141.972 228.655C141.721 229.963 141.486 231.454 141.31 233.156C140.064 233.099 138.917 233.008 137.877 232.894C138.043 231.306 138.248 229.878 138.477 228.599C138.711 227.296 138.968 226.148 139.242 225.138C139.476 224.264 139.716 223.493 139.956 222.813C141.013 222.726 142.235 222.726 143.634 222.857Z" fill="#75A237"/>
</g>
<g opacity="0.3">
<path d="M153.036 224.913C153.036 225.347 153.024 225.816 153.007 226.324C152.967 227.335 152.893 228.489 152.761 229.779C152.664 230.739 152.538 231.773 152.373 232.881C151.168 232.99 149.996 233.07 148.86 233.127C149.088 231.722 149.248 230.437 149.362 229.271C149.488 227.963 149.556 226.809 149.591 225.821C149.608 225.09 149.614 224.444 149.602 223.902C150.797 224.199 151.945 224.542 153.036 224.913Z" fill="#75A237"/>
</g>
<g opacity="0.3">
<path d="M164.951 230.802C163.705 231.105 162.466 231.379 161.232 231.619C158.256 230.819 155.418 230.219 152.762 229.779C151.591 229.58 150.46 229.414 149.363 229.271C146.656 228.923 144.177 228.74 141.973 228.654C140.711 228.603 139.545 228.586 138.477 228.597C135.673 228.609 133.542 228.785 132.234 228.929C132.554 228.614 132.891 228.489 132.891 228.489C132.891 228.489 132.816 226.838 134.113 225.308C135.501 225.205 137.226 225.13 139.242 225.136C140.345 225.142 141.532 225.165 142.806 225.222C144.862 225.325 147.136 225.507 149.591 225.821C150.694 225.958 151.831 226.124 153.007 226.324C155.103 226.666 157.314 227.107 159.616 227.66L159.621 227.666C162.963 229.345 164.951 230.802 164.951 230.802Z" fill="#75A237"/>
</g>
</g>
<path d="M164.951 230.804C164.951 230.804 156.086 224.303 144.336 222.931C132.586 221.559 132.887 228.488 132.887 228.488C132.887 228.488 131.231 229.107 131.758 231.057C132.285 233.007 148.192 234.896 164.951 230.804Z" stroke="#263238" stroke-width="0.64" stroke-miterlimit="10" stroke-linecap="round" stroke-linejoin="round"/>
<path d="M145.731 227.739C146.867 227.904 147.993 228.147 149.09 228.488" stroke="#263238" stroke-width="0.64" stroke-miterlimit="10" stroke-linecap="round" stroke-linejoin="round"/>
<path d="M132.888 228.488C136.283 227.621 139.897 227.3 143.39 227.503" stroke="#263238" stroke-width="0.64" stroke-miterlimit="10" stroke-linecap="round" stroke-linejoin="round"/>
<path d="M112.567 227.686C112.586 228.812 112.661 229.938 112.787 231.058" stroke="#263238" stroke-width="0.64" stroke-miterlimit="10" stroke-linecap="round" stroke-linejoin="round"/>
<path d="M117.716 213.982C114.152 216.312 112.892 221.361 112.627 225.305" stroke="#263238" stroke-width="0.64" stroke-miterlimit="10" stroke-linecap="round" stroke-linejoin="round"/>
<path d="M202.156 243.746C201.243 244.689 200.19 245.529 198.979 246.055" stroke="#263238" stroke-width="0.64" stroke-miterlimit="10" stroke-linecap="round" stroke-linejoin="round"/>
<path d="M212.297 221.332C210.154 228.118 207.869 235.543 203.782 241.814" stroke="#263238" stroke-width="0.64" stroke-miterlimit="10" stroke-linecap="round" stroke-linejoin="round"/>
<path d="M187.554 269.762C187.554 269.762 184.256 271.366 179.881 262.308" stroke="#263238" stroke-width="0.64" stroke-miterlimit="10" stroke-linecap="round" stroke-linejoin="round"/>
<path d="M182.071 278.438C178.905 283.999 174.339 289.17 168.247 291.525" stroke="#263238" stroke-width="0.64" stroke-miterlimit="10" stroke-linecap="round" stroke-linejoin="round"/>
<path d="M184.539 273.274C184.204 274.175 183.811 275.055 183.394 275.92" stroke="#263238" stroke-width="0.64" stroke-miterlimit="10" stroke-linecap="round" stroke-linejoin="round"/>
<path d="M155.774 346.472V359H153.722L147.548 349.658V359H145.496V346.472H147.548L153.722 355.796V346.472H155.774ZM162.771 359.162C159.945 359.162 157.803 357.146 157.803 354.032C157.803 350.918 160.035 348.92 162.861 348.92C165.687 348.92 167.919 350.918 167.919 354.032C167.919 357.146 165.615 359.162 162.771 359.162ZM162.771 357.38C164.301 357.38 165.813 356.282 165.813 354.032C165.813 351.782 164.355 350.702 162.825 350.702C161.277 350.702 159.891 351.782 159.891 354.032C159.891 356.282 161.223 357.38 162.771 357.38ZM174.623 346.49H176.837L181.229 356.3L185.603 346.49H187.799V359H185.747V350.432L181.931 359H180.509L176.675 350.432V359H174.623V346.49ZM189.812 353.996C189.812 350.936 191.882 348.92 194.492 348.92C196.166 348.92 197.318 349.712 197.93 350.522V349.082H200V359H197.93V357.524C197.3 358.37 196.112 359.162 194.456 359.162C191.882 359.162 189.812 357.056 189.812 353.996ZM197.93 354.032C197.93 351.908 196.472 350.702 194.924 350.702C193.394 350.702 191.918 351.854 191.918 353.996C191.918 356.138 193.394 357.38 194.924 357.38C196.472 357.38 197.93 356.174 197.93 354.032ZM204.748 353.78V359H202.696V349.082H204.748V350.522C205.324 349.532 206.314 348.92 207.718 348.92V351.044H207.196C205.684 351.044 204.748 351.674 204.748 353.78ZM209.604 345.68H211.656V353.42L215.256 349.082H218.1L213.528 354.05L218.1 359H215.328L211.656 354.734V359H209.604V345.68ZM223.747 350.648C222.361 350.648 221.245 351.584 221.029 353.15H226.519C226.483 351.62 225.277 350.648 223.747 350.648ZM228.391 356.048C227.833 357.776 226.267 359.162 223.837 359.162C220.993 359.162 218.887 357.146 218.887 354.032C218.887 350.918 220.903 348.92 223.837 348.92C226.663 348.92 228.661 350.882 228.661 353.798C228.661 354.14 228.643 354.464 228.589 354.806H221.011C221.155 356.444 222.325 357.434 223.837 357.434C225.097 357.434 225.799 356.822 226.177 356.048H228.391ZM232.732 353.78V359H230.68V349.082H232.732V350.522C233.308 349.532 234.298 348.92 235.702 348.92V351.044H235.18C233.668 351.044 232.732 351.674 232.732 353.78ZM241.188 359.162C238.812 359.162 237.138 357.758 237.048 355.958H239.172C239.244 356.768 240.018 357.434 241.152 357.434C242.34 357.434 242.97 356.93 242.97 356.246C242.97 354.302 237.21 355.418 237.21 351.782C237.21 350.198 238.686 348.92 241.026 348.92C243.276 348.92 244.752 350.126 244.86 352.106H242.808C242.736 351.242 242.07 350.648 240.954 350.648C239.856 350.648 239.28 351.098 239.28 351.764C239.28 353.762 244.878 352.646 244.986 356.228C244.986 357.902 243.528 359.162 241.188 359.162Z" fill="black"/>
</svg>
