<svg width="231" height="140" viewBox="0 0 231 140" fill="none" xmlns="http://www.w3.org/2000/svg">
<g id="Asset 1 1">
<g id="Layer 1">
<g id="Group">
<g id="Group_2">
<path id="Vector" d="M158.057 79.4418C158.057 81.8287 157.895 84.135 157.611 86.4414C155.71 101.088 148.023 113.914 136.855 122.491C127.671 129.531 116.18 133.739 103.759 133.739C73.7782 133.739 49.502 109.422 49.502 79.4418C49.502 75.719 49.866 72.0782 50.5942 68.5585C50.8778 67.1014 51.2419 65.6451 51.6864 64.2294C51.8888 63.4606 52.1318 62.6918 52.4146 61.923C53.7904 57.8361 55.6515 53.9523 57.9578 50.3919C58.5243 49.5021 59.0907 48.6114 59.7384 47.7621C60.4666 46.7511 61.2354 45.7394 62.0448 44.7682C62.8542 43.7971 63.7034 42.8666 64.5535 41.9767C65.2012 41.2485 65.8887 40.561 66.6169 39.9539C66.6575 39.8328 66.6981 39.7922 66.7786 39.7922C67.345 39.2258 67.9115 38.7 68.5185 38.214C70.1772 36.717 71.9578 35.3818 73.8188 34.1677C75.5994 33.0348 77.3393 31.9824 79.1597 31.0925C79.9691 30.648 80.7785 30.2831 81.6278 29.919C83.3271 29.1503 85.067 28.4619 86.8874 27.8557C87.8992 27.5314 88.9102 27.2486 89.9219 26.965C94.3315 25.7915 98.9849 25.1852 103.759 25.1852C123.625 25.1852 140.983 35.8264 150.451 51.7272C155.306 59.819 158.057 69.2866 158.057 79.4426L158.057 79.4418Z" fill="#9CD6F2"/>
<g id="Group_3">
<path id="Vector_2" d="M78.4423 93.2359C77.5876 90.2147 78.0063 89.0302 76.6719 87.1669C76.3445 86.7098 74.2085 83.8339 71.867 84.1323C69.5926 84.4222 69.3692 87.4216 65.2924 93.2359C62.3907 97.3752 61.5602 97.2009 61.3305 98.7995C60.6023 103.873 68.2308 110.735 76.1656 111.612C80.4643 112.087 85.9341 110.924 86.6177 108.409C86.9826 107.065 85.688 106.419 82.5714 101.328C80.2893 97.5994 79.1478 95.7352 78.4407 93.2359H78.4423Z" fill="#B0DEF5"/>
<path id="Vector_3" d="M104.629 34.4471C106.773 34.69 107.057 34.4072 111.669 34.4072C119.599 34.3666 123.564 34.4072 127.003 35.4588C133.518 37.4417 138.049 41.9326 139.262 43.1467C142.863 46.7883 144.32 50.1869 148.609 51.4002C149.257 51.562 149.864 51.6839 150.429 51.7245C140.962 35.8237 123.605 25.1825 103.739 25.1825C98.9643 25.1825 94.311 25.7896 89.9014 26.9623C91.8835 30.4828 98.762 33.7189 104.629 34.4471Z" fill="#B0DEF5"/>
<path id="Vector_4" d="M154.072 89.5537C148.569 94.611 147.8 97.0791 141.286 105.252C136.229 111.564 132.506 115.327 133.679 117.39C134.61 118.968 137.968 118.807 138.13 120.304C138.251 121.315 136.673 121.962 136.835 122.488C148.002 113.91 155.69 101.085 157.592 86.4387C156.499 87.3286 155.285 88.4209 154.072 89.5545V89.5537Z" fill="#B0DEF5"/>
<path id="Vector_5" d="M137.832 70.0777C135.822 66.1729 131.207 66.7651 125.188 63.7556C116.352 59.3374 117.728 53.7761 111.533 52.1237C103.6 50.0072 99.7689 58.7069 91.8083 56.9279C86.7979 55.8083 84.6517 50.0228 81.3867 46.4148C81.5437 46.1343 81.5844 45.8148 81.5047 45.4953C82.4352 44.5241 83.8923 43.0272 86.4815 40.7614C89.516 38.1316 90.8106 37.1605 91.0528 35.3799C91.2958 33.5595 90.284 32.0618 88.1808 29.4726C87.7355 28.9061 87.2901 28.3803 86.8862 27.8545C85.0658 28.4616 83.3259 29.1491 81.6266 29.9179C80.7773 30.282 79.9679 30.6461 79.1585 31.0914C77.3381 31.9813 75.5981 33.0337 73.8988 34.1259C71.9565 35.3799 70.1768 36.7151 68.5181 38.2121C67.911 38.6973 67.3446 39.2231 66.7782 39.7895C66.6977 39.7895 66.6571 39.8301 66.6164 39.9512C65.8883 40.5583 65.2007 41.2458 64.553 41.974C63.7038 42.8639 62.8537 43.7944 62.0443 44.7257C61.2349 45.7375 60.4661 46.7484 59.738 47.7602C59.0903 48.6103 58.5238 49.5001 57.9574 50.39C55.651 53.9504 53.79 57.8342 52.4142 61.9211C52.1305 62.6899 51.8883 63.4587 51.686 64.2274C51.2407 65.6431 50.8766 67.0995 50.5938 68.5566C57.0675 67.505 64.1882 62.2047 67.1016 56.0544C67.8266 54.4832 68.272 52.873 68.9548 51.4612C72.5245 53.966 82.2039 55.3786 90.0395 63.2485C97.9907 71.2348 97.2516 79.0798 106.224 82.9729C110.571 84.8589 112.37 83.7089 114.316 85.7543C121.132 92.9187 105.893 113.272 109.005 115.593C112.64 118.304 134.425 91.2944 138.086 76.9031C138.799 74.1022 138.787 71.9286 137.833 70.0754L137.832 70.0777Z" fill="#B0DEF5"/>
</g>
</g>
<path id="Vector_6" d="M46.0757 15.5742C38.5206 15.5742 32.4219 21.673 32.4219 29.228C32.4219 33.0204 34.0001 36.4495 36.5182 38.9371C39.7043 45.339 42.9201 51.7409 46.1062 58.1732C49.1704 51.862 52.2354 45.5515 55.2691 39.2402C57.9997 36.7518 59.7295 33.2024 59.7295 29.228C59.7295 21.673 53.6308 15.5742 46.0757 15.5742ZM46.0757 35.5385C43.2537 35.5385 40.9778 33.2634 40.9778 30.4414C40.9778 27.6194 43.2537 25.3442 46.0757 25.3442C48.8977 25.3442 51.1728 27.6506 51.1728 30.4414C51.1728 33.2321 48.8969 35.5385 46.0757 35.5385Z" fill="#BBDBF3"/>
<path id="Vector_7" d="M107.417 61.232C99.8624 61.232 93.7637 67.3307 93.7637 74.8858C93.7637 78.679 95.3419 82.1073 97.86 84.5949C101.046 90.9968 104.262 97.3987 107.448 103.832C110.512 97.5213 113.577 91.2101 116.611 84.8988C119.342 82.4104 121.071 78.861 121.071 74.8858C121.071 67.3307 114.973 61.232 107.417 61.232ZM107.417 81.1963C104.595 81.1963 102.32 78.9204 102.32 76.0992C102.32 73.2779 104.595 71.0012 107.417 71.0012C110.24 71.0012 112.515 73.3076 112.515 76.0992C112.515 78.8907 110.239 81.1963 107.417 81.1963Z" fill="#E4F1FA"/>
<path id="Vector_8" d="M147.769 9.98723C141.763 9.98723 136.913 14.8359 136.913 20.8432C136.913 23.859 138.168 26.5849 140.169 28.5632C142.702 33.6533 145.26 38.7434 147.793 43.8577C150.229 38.8402 152.665 33.822 155.078 28.8038C157.249 26.8256 158.624 24.0036 158.624 20.8425C158.624 14.8359 153.775 9.98645 147.768 9.98645L147.769 9.98723ZM147.769 25.8615C145.526 25.8615 143.717 24.052 143.717 21.8089C143.717 19.5658 145.526 17.7556 147.769 17.7556C150.012 17.7556 151.822 19.5893 151.822 21.8089C151.822 24.0286 150.012 25.8615 147.769 25.8615Z" fill="#BBDBF3"/>
<path id="Vector_9" d="M94.1505 109.453C93.4935 109.251 93.1145 108.543 93.3169 107.863C93.5193 107.207 94.2255 106.827 94.8826 107.03C95.5639 107.232 95.9428 107.94 95.7405 108.595C95.5639 109.15 95.0584 109.502 94.5287 109.502C94.4029 109.502 94.2763 109.477 94.1505 109.453ZM86.9041 107.106C86.247 106.877 85.8947 106.144 86.1212 105.489C86.3478 104.833 87.0556 104.48 87.7369 104.708C88.3932 104.934 88.7221 105.667 88.494 106.323C88.3174 106.828 87.8385 107.18 87.308 107.18C87.1806 107.18 87.0291 107.155 86.9033 107.106H86.9041ZM79.7342 104.453C79.1029 104.201 78.774 103.469 79.0263 102.814C79.2787 102.157 80.0115 101.854 80.667 102.106C81.3241 102.357 81.6273 103.09 81.3749 103.748C81.1725 104.226 80.7178 104.529 80.2139 104.529C80.0623 104.529 79.8865 104.504 79.7342 104.453ZM72.7151 101.5C72.0596 101.196 71.7807 100.464 72.0596 99.8081C72.3612 99.1768 73.094 98.901 73.7511 99.1768C74.3824 99.48 74.6597 100.212 74.3824 100.843C74.1558 101.325 73.7011 101.6 73.2214 101.6C73.044 101.6 72.8674 101.576 72.7159 101.5H72.7151ZM65.8225 98.2182C65.1913 97.8901 64.9389 97.133 65.2421 96.5267C65.5694 95.8954 66.328 95.6439 66.9335 95.972C67.5648 96.2751 67.8172 97.0322 67.514 97.6635C67.2867 98.0924 66.832 98.344 66.3788 98.344C66.1765 98.344 66.0007 98.319 65.8225 98.2182ZM59.0824 94.6086C58.4761 94.2805 58.2487 93.4969 58.6027 92.8898C58.9308 92.2859 59.7129 92.0835 60.3199 92.4117C60.9254 92.764 61.152 93.5211 60.7996 94.1274C60.5715 94.5563 60.1426 94.7829 59.6894 94.7829C59.4871 94.7829 59.2847 94.7337 59.0824 94.6079V94.6086ZM52.518 90.6959C51.9375 90.3162 51.7609 89.535 52.1398 88.9529C52.518 88.3732 53.2766 88.1958 53.8821 88.5732C54.4626 88.9279 54.64 89.71 54.2603 90.3162C54.0329 90.6686 53.629 90.8983 53.2 90.8983C52.9735 90.8983 52.7469 90.8217 52.5188 90.6959H52.518ZM46.1817 86.4278C45.6254 86.0231 45.4739 85.2418 45.8786 84.6597C46.2833 84.105 47.0661 83.9542 47.6466 84.3839C48.2271 84.7855 48.3529 85.5699 47.949 86.1246C47.6974 86.4801 47.3177 86.6551 46.9146 86.6551C46.6614 86.6551 46.4091 86.5786 46.1825 86.4285L46.1817 86.4278ZM40.072 81.8338C39.5408 81.4049 39.4408 80.5962 39.8947 80.0657C40.3236 79.511 41.1065 79.4344 41.6627 79.8634C42.1932 80.2923 42.294 81.0751 41.8651 81.6314C41.612 81.9346 41.2338 82.1111 40.8799 82.1111C40.6025 82.1111 40.3236 82.0104 40.072 81.8338ZM34.2405 76.8851C33.735 76.4304 33.6842 75.6225 34.1389 75.117C34.6186 74.5865 35.4015 74.5365 35.9312 75.0155C36.4351 75.4702 36.4859 76.278 36.032 76.7835C35.7796 77.0609 35.4257 77.2125 35.0733 77.2125C34.7944 77.2125 34.4913 77.1109 34.2397 76.8843L34.2405 76.8851ZM28.7113 71.6083C28.2058 71.1286 28.2308 70.3215 28.7113 69.8418C29.2152 69.3363 29.9981 69.3363 30.5036 69.8418C30.9833 70.3457 30.9833 71.1286 30.5036 71.6341C30.2512 71.8606 29.9231 71.988 29.5934 71.988C29.2637 71.988 28.9621 71.8614 28.7105 71.6083H28.7113ZM23.4845 66.0283C23.0306 65.4978 23.0813 64.6907 23.6118 64.236C24.1423 63.7821 24.9244 63.8329 25.4041 64.3634C25.858 64.8939 25.8073 65.6759 25.2768 66.1299C25.0502 66.358 24.7463 66.458 24.4431 66.458C24.0908 66.458 23.7368 66.3072 23.4837 66.0291L23.4845 66.0283ZM18.6374 60.121C18.2084 59.5647 18.3092 58.7576 18.8639 58.3529C19.4202 57.924 20.2031 58.0256 20.632 58.5811C21.0609 59.1108 20.9601 59.9186 20.4054 60.3475C20.1773 60.5249 19.8999 60.5999 19.6476 60.5999C19.2694 60.5999 18.8905 60.4233 18.6381 60.1202L18.6374 60.121ZM14.1442 53.9105C13.7645 53.3542 13.916 52.5714 14.4723 52.1682C15.0528 51.7643 15.8357 51.9159 16.2388 52.4964C16.6185 53.0769 16.4912 53.8597 15.9107 54.2387C15.6841 54.3902 15.4567 54.4652 15.2044 54.4652C14.8005 54.4652 14.3957 54.2644 14.1442 53.9105ZM9.92677 47.5993C9.54863 46.9922 9.7002 46.2101 10.3065 45.8312C10.887 45.4531 11.6698 45.6288 12.048 46.2093C12.4261 46.8156 12.2503 47.5985 11.6698 47.9774C11.4683 48.1032 11.2151 48.1798 10.9885 48.1798C10.5581 48.1798 10.1549 47.9532 9.92756 47.5993H9.92677ZM5.96407 41.0349C5.61015 40.4294 5.8125 39.6715 6.44379 39.3176C7.05085 38.9894 7.80714 39.1918 8.16106 39.7981C8.4892 40.4036 8.28685 41.1864 7.68135 41.5138C7.47899 41.6411 7.25242 41.6911 7.05007 41.6911C6.62114 41.6911 6.19065 41.463 5.96407 41.0341V41.0349ZM100.057 41.1607C99.4258 40.8833 99.1227 40.1512 99.4016 39.4949C99.6789 38.8637 100.436 38.5863 101.068 38.8637C101.699 39.141 102 39.8981 101.724 40.5294C101.497 40.9841 101.042 41.2872 100.563 41.2872C100.386 41.2872 100.209 41.2364 100.058 41.1599L100.057 41.1607ZM93.1145 38.1566C92.4833 37.8792 92.1801 37.1222 92.4583 36.4917C92.7356 35.8604 93.4677 35.5572 94.124 35.8346C94.7552 36.112 95.0584 36.844 94.781 37.5011C94.5787 37.9558 94.099 38.2582 93.62 38.2582C93.4427 38.2582 93.2911 38.2332 93.1145 38.1566ZM86.147 35.2025C85.5157 34.9252 85.2126 34.1931 85.4899 33.5376C85.7423 32.9063 86.4994 32.6032 87.1306 32.8555C87.7619 33.1329 88.0909 33.865 87.8119 34.5213C87.6096 35.001 87.1307 35.2791 86.6509 35.2791C86.4744 35.2791 86.3236 35.2533 86.147 35.2025ZM2.48031 34.1689C2.20295 33.5376 2.50531 32.7798 3.13659 32.5024C3.76787 32.225 4.52572 32.5274 4.80308 33.1587C5.08044 33.79 4.77886 34.5478 4.14758 34.8252C3.97022 34.876 3.81865 34.9267 3.64208 34.9267C3.16237 34.9267 2.68266 34.6494 2.48109 34.1697L2.48031 34.1689ZM79.1537 32.2993C78.5224 32.0469 78.1935 31.3141 78.4724 30.6586C78.724 30.0015 79.456 29.6991 80.1131 29.9773C80.7444 30.2304 81.0725 30.9625 80.8194 31.618C80.617 32.0977 80.1381 32.4008 79.6334 32.4008C79.4818 32.4008 79.3303 32.3751 79.1537 32.2993ZM72.1346 29.4976C71.5033 29.2452 71.1759 28.5124 71.4283 27.8569C71.6807 27.2256 72.4119 26.8967 73.069 27.149C73.7003 27.4014 74.0277 28.1342 73.7753 28.7897C73.5745 29.2952 73.094 29.5984 72.5893 29.5984C72.4377 29.5984 72.2862 29.5726 72.1346 29.4976ZM0.0301831 26.7201C-0.121387 26.038 0.333323 25.381 1.01539 25.2309C1.69667 25.1036 2.35296 25.5325 2.50453 26.2404C2.63188 26.8967 2.20217 27.5779 1.52088 27.7053C1.4201 27.7303 1.34353 27.7303 1.26853 27.7303C0.662246 27.7303 0.158315 27.3256 0.0309644 26.7209L0.0301831 26.7201ZM65.0905 26.7951C64.4342 26.5435 64.1068 25.8114 64.3334 25.1544C64.5858 24.5231 65.3186 24.1957 65.9741 24.4223C66.6312 24.6747 66.9593 25.4075 66.7062 26.063C66.5046 26.5685 66.0249 26.8717 65.5194 26.8717C65.3694 26.8717 65.2178 26.8459 65.0905 26.7951ZM57.9964 24.1957C57.3409 23.9684 56.987 23.2613 57.2135 22.6058C57.4417 21.9245 58.1737 21.5948 58.8292 21.823C59.4863 22.0495 59.8387 22.7824 59.5871 23.4395C59.4097 23.9434 58.93 24.2715 58.4003 24.2715C58.2745 24.2715 58.1229 24.2473 57.9956 24.1965L57.9964 24.1957ZM50.8531 21.7464C50.196 21.5456 49.8178 20.8135 50.0444 20.1565C50.271 19.5002 50.9788 19.147 51.6343 19.3486C52.2914 19.576 52.6703 20.283 52.443 20.9635C52.2656 21.469 51.7617 21.823 51.2312 21.823C51.1038 21.823 50.9788 21.7972 50.8531 21.7464ZM1.04039 20.1815C0.409108 19.9291 0.080967 19.1963 0.334105 18.5658C0.586461 17.9087 1.31931 17.5806 1.94981 17.8337C2.60609 18.0861 2.93345 18.8189 2.68188 19.4744C2.47953 19.9541 1.99981 20.283 1.4951 20.283C1.34353 20.283 1.19196 20.2323 1.04039 20.1815ZM43.6574 19.4744C42.9753 19.2721 42.5972 18.5908 42.798 17.9087C43.0003 17.2532 43.7082 16.8743 44.3894 17.0766C45.0457 17.2774 45.4239 17.9595 45.2215 18.6408C45.0707 19.1971 44.5652 19.5502 44.0097 19.5502C43.884 19.5502 43.7832 19.5244 43.6574 19.4736V19.4744ZM36.4109 17.4548C35.7296 17.2774 35.3249 16.5954 35.5023 15.9141C35.6788 15.2336 36.3601 14.8289 37.0414 15.0054C37.6977 15.1828 38.1274 15.8649 37.9501 16.5454C37.7985 17.1016 37.2938 17.4798 36.7141 17.4798C36.6125 17.4798 36.5117 17.4798 36.4109 17.4548ZM29.0895 15.7383C28.4082 15.5867 27.9527 14.9304 28.1042 14.2491C28.2558 13.5679 28.9113 13.1124 29.5934 13.2639C30.2755 13.3897 30.7302 14.071 30.5786 14.7531C30.4528 15.3336 29.9231 15.7641 29.3418 15.7641C29.2652 15.7641 29.1645 15.7641 29.0887 15.7383H29.0895ZM5.71094 14.4757C5.45858 13.8194 5.7875 13.0874 6.44301 12.835C7.07429 12.5827 7.80635 12.91 8.05949 13.5671C8.31185 14.2234 7.98293 14.9554 7.32742 15.2078C7.17585 15.2586 7.02428 15.2828 6.87271 15.2828C6.36878 15.2828 5.88907 14.9804 5.71172 14.4757H5.71094ZM21.718 14.5015C21.0367 14.4007 20.5312 13.7694 20.632 13.0874C20.707 12.4053 21.3383 11.8998 22.0203 12.0014C22.7282 12.0779 23.2079 12.7092 23.1313 13.3897C23.0563 14.0468 22.5001 14.5015 21.8688 14.5015H21.718ZM13.0582 12.835C13.0324 12.1272 13.5887 11.5467 14.295 11.5217C14.9762 11.5217 15.5575 12.0779 15.5833 12.7584C15.6083 13.4663 15.0536 14.0468 14.3457 14.0468C13.6379 14.0468 13.059 13.5171 13.059 12.835H13.0582Z" fill="#BBDBF3"/>
<path id="Vector_10" d="M144.692 70.5739C144.389 69.9426 144.692 69.1847 145.323 68.9074C145.954 68.63 146.714 68.9074 146.989 69.5637C147.268 70.1949 146.989 70.927 146.358 71.2302C146.181 71.3067 146.006 71.3317 145.828 71.3317C145.35 71.3317 144.894 71.0544 144.692 70.5746V70.5739ZM151.433 67.1393C151.055 66.5588 151.206 65.776 151.787 65.3978C152.367 64.9947 153.151 65.1705 153.555 65.7518C153.933 66.3323 153.755 67.1151 153.176 67.494C152.973 67.6456 152.723 67.7206 152.493 67.7206C152.064 67.7206 151.662 67.494 151.433 67.1401V67.1393ZM157.542 62.6703C157.063 62.1399 157.088 61.3578 157.618 60.8781C158.124 60.3984 158.905 60.4491 159.386 60.9546C159.867 61.4586 159.84 62.2672 159.31 62.7469C159.083 62.9735 158.78 63.0751 158.477 63.0751C158.124 63.0751 157.796 62.9235 157.542 62.6703H157.542ZM77.1086 59.3889C76.8562 58.7327 77.1836 58.0006 77.8407 57.7482C78.472 57.4959 79.204 57.799 79.4556 58.4545C79.7345 59.0858 79.4048 59.8436 78.7493 60.0952C78.5977 60.146 78.4462 60.1718 78.2946 60.1718C77.7907 60.1718 77.311 59.8686 77.1086 59.3889ZM162.793 57.2427C162.264 56.8138 162.137 56.0067 162.567 55.4505C162.996 54.9207 163.779 54.795 164.359 55.2239C164.89 55.6528 164.99 56.4357 164.561 56.9904C164.335 57.3193 163.955 57.4959 163.578 57.4959C163.299 57.4959 163.023 57.3951 162.793 57.2435V57.2427ZM84.1769 56.6115C83.9246 55.9552 84.2277 55.2231 84.884 54.9707C85.5395 54.7184 86.2723 55.0457 86.5247 55.7028C86.7771 56.3341 86.4481 57.0912 85.7926 57.3193C85.6411 57.3943 85.4895 57.4201 85.3379 57.4201C84.834 57.4201 84.3527 57.1169 84.1769 56.6115ZM91.2203 53.8847C90.9937 53.2292 91.321 52.4964 91.9523 52.2698C92.6086 52.0175 93.3407 52.3448 93.593 52.9761C93.8454 53.6332 93.518 54.3652 92.861 54.6168C92.7094 54.6676 92.5578 54.6934 92.407 54.6934C91.9015 54.6934 91.4218 54.3902 91.2203 53.8847ZM98.3151 51.2104C98.0628 50.5533 98.4159 49.8213 99.0722 49.5939C99.7035 49.3408 100.436 49.6689 100.688 50.326C100.914 50.9815 100.587 51.7143 99.9308 51.9667C99.8035 52.0175 99.6519 52.0417 99.5004 52.0417C98.9964 52.0417 98.5167 51.7143 98.3144 51.2096L98.3151 51.2104ZM167.086 50.9815C166.48 50.6276 166.28 49.8713 166.657 49.2658C166.985 48.6595 167.769 48.4571 168.373 48.8111C168.979 49.165 169.181 49.9478 168.829 50.5525C168.575 50.9573 168.173 51.1588 167.717 51.1588C167.515 51.1588 167.288 51.1081 167.086 50.9815ZM105.409 48.5845C105.183 47.9532 105.535 47.2211 106.191 46.993C106.822 46.7414 107.554 47.0696 107.78 47.7251C108.034 48.3821 107.679 49.1142 107.023 49.3408C106.898 49.3916 106.748 49.4158 106.594 49.4158C106.089 49.4158 105.611 49.1142 105.408 48.5837L105.409 48.5845ZM112.554 46.0336C112.328 45.3773 112.655 44.6702 113.335 44.4436C113.991 44.2171 114.699 44.5444 114.925 45.2265C115.154 45.8828 114.824 46.5899 114.168 46.8164C114.018 46.8672 113.865 46.8914 113.739 46.8914C113.21 46.8914 112.728 46.5633 112.553 46.0336H112.554ZM119.7 43.585C119.497 42.9037 119.85 42.1959 120.506 41.9693C121.165 41.767 121.869 42.1209 122.099 42.7764C122.326 43.4334 121.971 44.1655 121.315 44.3663C121.165 44.4171 121.037 44.4429 120.911 44.4429C120.38 44.4429 119.875 44.1147 119.701 43.585H119.7ZM170.67 44.3163C170.039 44.0647 169.711 43.3327 169.965 42.6756C170.216 42.0443 170.948 41.7162 171.58 41.9693C172.235 42.2217 172.563 42.9545 172.312 43.585C172.134 44.0889 171.629 44.3929 171.126 44.3929C170.973 44.3929 170.823 44.3671 170.67 44.3163H170.67ZM126.894 41.2115C126.692 40.5552 127.071 39.8497 127.728 39.6215C128.383 39.4192 129.091 39.7731 129.317 40.4552C129.52 41.1122 129.14 41.8185 128.485 42.0451C128.359 42.0709 128.233 42.0959 128.107 42.0959C127.577 42.0959 127.071 41.7435 126.894 41.2122V41.2115ZM134.14 38.9653C133.937 38.3082 134.317 37.6019 134.997 37.3995C135.654 37.223 136.361 37.6019 136.563 38.2574C136.766 38.9387 136.361 39.6208 135.705 39.8231C135.58 39.8739 135.451 39.8739 135.353 39.8739C134.796 39.8739 134.29 39.52 134.14 38.9653ZM141.435 36.9198C141.233 36.2385 141.638 35.5307 142.32 35.3799C143.001 35.2026 143.684 35.6065 143.859 36.2628C144.036 36.9448 143.632 37.6261 142.952 37.8035C142.851 37.8285 142.749 37.8543 142.649 37.8543C142.067 37.8543 141.563 37.4745 141.436 36.9198H141.435ZM170.621 36.4143C170.266 35.8088 170.495 35.051 171.099 34.6986C171.706 34.3697 172.49 34.5713 172.817 35.1783C173.17 35.8096 172.943 36.5667 172.337 36.9198C172.134 37.0206 171.932 37.0714 171.731 37.0714C171.277 37.0714 170.848 36.8433 170.621 36.4143ZM148.758 35.0768C148.632 34.3947 149.061 33.7376 149.741 33.5869C150.424 33.4361 151.08 33.865 151.23 34.5471C151.383 35.2283 150.955 35.9104 150.272 36.062C150.17 36.0862 150.097 36.0862 149.995 36.0862C149.413 36.0862 148.883 35.6823 148.758 35.0768ZM156.206 33.6634C156.105 32.9556 156.583 32.3243 157.291 32.2243C157.974 32.1477 158.605 32.6274 158.706 33.3095C158.804 34.0173 158.326 34.6486 157.618 34.7494H157.443C156.837 34.7494 156.279 34.2947 156.206 33.6634ZM164.941 34.2947C164.233 34.2689 163.704 33.6634 163.728 32.9814C163.779 32.2751 164.359 31.7438 165.067 31.7696C165.747 31.8204 166.28 32.4009 166.253 33.1071C166.229 33.7642 165.673 34.2947 164.99 34.2947H164.941Z" fill="#BBDBF3"/>
<path id="Vector_11" d="M147.824 140C147.143 139.926 146.638 139.32 146.714 138.612C146.789 137.931 147.395 137.426 148.075 137.502C148.783 137.551 149.289 138.183 149.212 138.866C149.138 139.521 148.608 140 147.95 140H147.824ZM140.201 137.35C139.619 136.945 139.493 136.164 139.898 135.582C140.301 135.027 141.084 134.876 141.666 135.279C142.22 135.683 142.371 136.467 141.966 137.047C141.715 137.401 141.31 137.576 140.934 137.576C140.68 137.576 140.428 137.502 140.201 137.35H140.201ZM152.318 135.408C152.343 134.725 152.898 134.17 153.605 134.17C154.312 134.17 154.868 134.75 154.843 135.433C154.843 136.14 154.261 136.695 153.58 136.695C152.9 136.695 152.318 136.113 152.318 135.408L152.318 135.408ZM134.569 131.822C134.14 131.265 134.217 130.484 134.747 130.054C135.301 129.598 136.083 129.699 136.539 130.229C136.968 130.786 136.891 131.568 136.336 131.997C136.11 132.2 135.831 132.3 135.553 132.3C135.175 132.3 134.821 132.123 134.569 131.822ZM150.045 128.942C149.717 128.311 149.944 127.554 150.55 127.227C151.157 126.899 151.914 127.101 152.266 127.732C152.594 128.336 152.367 129.096 151.763 129.424C151.561 129.549 151.358 129.574 151.157 129.574C150.7 129.574 150.272 129.348 150.045 128.943V128.942ZM130.127 125.484C129.747 124.904 129.949 124.12 130.531 123.743C131.11 123.388 131.894 123.566 132.271 124.148C132.626 124.752 132.449 125.536 131.867 125.888C131.664 126.014 131.413 126.091 131.186 126.091C130.781 126.091 130.378 125.864 130.126 125.484L130.127 125.484ZM146.056 122.683C145.627 122.126 145.78 121.319 146.335 120.915C146.889 120.511 147.698 120.637 148.103 121.218C148.507 121.773 148.378 122.554 147.8 122.959C147.597 123.136 147.318 123.212 147.067 123.212C146.688 123.212 146.284 123.035 146.056 122.682L146.056 122.683ZM126.315 118.819C125.984 118.213 126.238 117.431 126.845 117.128C127.477 116.8 128.234 117.027 128.561 117.633C128.889 118.265 128.638 119.022 128.031 119.349C127.829 119.45 127.627 119.5 127.449 119.5C126.995 119.5 126.542 119.248 126.315 118.819ZM122.93 111.978C122.629 111.346 122.905 110.589 123.536 110.286C124.167 110.007 124.924 110.261 125.227 110.892C125.506 111.524 125.227 112.281 124.596 112.584C124.421 112.658 124.244 112.685 124.066 112.685C123.588 112.685 123.132 112.431 122.93 111.978ZM119.825 104.983C119.574 104.352 119.875 103.595 120.506 103.344C121.165 103.065 121.897 103.368 122.172 104C122.426 104.656 122.123 105.388 121.492 105.666C121.339 105.715 121.165 105.767 121.011 105.767C120.506 105.767 120.028 105.464 119.825 104.983ZM116.973 97.9151C116.719 97.2588 117.05 96.5267 117.705 96.2759C118.336 96.022 119.093 96.3502 119.345 97.008C119.574 97.6643 119.271 98.3964 118.613 98.6471C118.462 98.6987 118.312 98.7237 118.159 98.7237C117.653 98.7237 117.175 98.4206 116.973 97.9151ZM114.323 90.7694C114.069 90.1131 114.424 89.4061 115.08 89.1545C115.735 88.9279 116.468 89.2561 116.695 89.9358C116.922 90.5944 116.594 91.2991 115.938 91.5288C115.788 91.6031 115.66 91.603 115.509 91.603C114.979 91.603 114.498 91.2999 114.323 90.7694ZM111.823 83.5753C111.595 82.919 111.973 82.212 112.631 81.9854C113.287 81.7572 113.992 82.1362 114.222 82.7917C114.449 83.4503 114.094 84.155 113.413 84.3847C113.288 84.4339 113.162 84.4589 113.034 84.4589C112.503 84.4589 112.001 84.1066 111.823 83.5761L111.823 83.5753ZM109.5 76.3296C109.273 75.6733 109.651 74.9663 110.334 74.7639C110.99 74.5631 111.697 74.9155 111.899 75.5976C112.099 76.2546 111.746 76.9609 111.066 77.1633C110.938 77.2141 110.812 77.2141 110.711 77.2141C110.156 77.2141 109.651 76.8859 109.501 76.3304L109.5 76.3296ZM107.304 69.059C107.101 68.3777 107.506 67.6698 108.162 67.4932C108.844 67.2909 109.525 67.6698 109.727 68.3511C109.93 69.0082 109.525 69.7145 108.869 69.9168C108.744 69.9426 108.643 69.9676 108.515 69.9676C107.96 69.9676 107.455 69.5894 107.305 69.059H107.304ZM105.258 61.7117C105.083 61.0562 105.46 60.3484 106.143 60.1726C106.823 59.996 107.506 60.3991 107.708 61.0562C107.883 61.7375 107.482 62.4196 106.798 62.5953C106.697 62.6461 106.572 62.6461 106.47 62.6461C105.915 62.6461 105.41 62.268 105.258 61.7117ZM103.364 54.3395C103.189 53.6582 103.593 52.9761 104.273 52.8245C104.956 52.648 105.636 53.0527 105.814 53.7347C105.964 54.4153 105.56 55.0965 104.879 55.2739C104.778 55.2989 104.677 55.2989 104.576 55.2989C104.022 55.2989 103.492 54.9207 103.364 54.3395ZM101.599 46.9422C101.446 46.2602 101.875 45.5789 102.557 45.4281C103.238 45.2765 103.921 45.7054 104.072 46.3875C104.225 47.0688 103.796 47.7251 103.113 47.8766C103.011 47.9024 102.936 47.9274 102.834 47.9274C102.254 47.9274 101.749 47.5227 101.599 46.9422ZM100.033 39.4692C99.9057 38.7871 100.335 38.1316 101.017 38.0043C101.7 37.8535 102.38 38.3074 102.506 38.9895C102.632 39.6708 102.203 40.3286 101.522 40.4802C101.421 40.4802 101.345 40.5044 101.271 40.5044C100.664 40.5044 100.159 40.0755 100.033 39.4692ZM98.6431 31.9719C98.5424 31.2906 98.9971 30.6336 99.6783 30.532C100.385 30.4062 101.016 30.8609 101.142 31.568C101.242 32.2493 100.789 32.9071 100.107 33.0064C100.032 33.0321 99.9557 33.0321 99.9049 33.0321C99.2994 33.0321 98.7439 32.6032 98.6424 31.9719H98.6431ZM97.5329 24.4223C97.4321 23.7411 97.9376 23.1098 98.6189 23.0082C99.3002 22.9332 99.9315 23.4129 100.033 24.0942C100.108 24.8005 99.6291 25.4318 98.9471 25.5083C98.8705 25.5325 98.8213 25.5325 98.7705 25.5325C98.1392 25.5325 97.6079 25.0528 97.5329 24.4223ZM96.7501 16.7977C96.6993 16.0914 97.2298 15.511 97.9376 15.4602C98.6189 15.4094 99.2244 15.9141 99.2752 16.6212C99.326 17.3274 98.7955 17.9079 98.1142 17.9845C97.3571 17.9845 96.8016 17.454 96.7509 16.7977H96.7501ZM114.675 13.2897C114.271 12.7092 114.397 11.9264 114.978 11.5217C115.533 11.1178 116.342 11.2693 116.746 11.8248C117.148 12.4053 116.998 13.1882 116.443 13.5913C116.217 13.7429 115.963 13.8195 115.711 13.8195C115.306 13.8195 114.928 13.6421 114.675 13.289V13.2897ZM97.8103 10.3849C97.104 10.3607 96.5735 9.77942 96.5985 9.07235C96.6243 8.39106 97.2298 7.83635 97.9111 7.86057C98.6189 7.91135 99.1486 8.49185 99.1228 9.1997C99.0978 9.85598 98.5424 10.3857 97.8603 10.3857H97.8095L97.8103 10.3849ZM110.131 7.35664C109.675 6.82692 109.752 6.04407 110.282 5.58858C110.812 5.13543 111.621 5.21044 112.074 5.74015C112.503 6.27065 112.454 7.05272 111.923 7.50821C111.67 7.709 111.393 7.80978 111.09 7.80978C110.737 7.80978 110.382 7.65978 110.13 7.35586L110.131 7.35664ZM98.7447 2.86188C98.1134 2.53374 97.8869 1.77667 98.2142 1.17039C98.5424 0.539108 99.3002 0.312534 99.9315 0.640675C100.537 0.968817 100.765 1.72667 100.435 2.35795C100.209 2.78688 99.7791 3.01345 99.3252 3.01345C99.1229 3.01345 98.9205 2.96267 98.7447 2.86188ZM104.981 2.28138C104.399 1.87824 104.273 1.0696 104.678 0.514888C105.107 -0.0413903 105.888 -0.166397 106.446 0.235967C107.026 0.640675 107.151 1.42275 106.749 2.00402C106.495 2.33217 106.118 2.50952 105.713 2.50952C105.459 2.50952 105.208 2.43295 104.981 2.28138Z" fill="#BBDBF3"/>
</g>
</g>
</g>
</svg>
