<svg width="16" height="16" viewBox="0 0 16 16" fill="none" xmlns="http://www.w3.org/2000/svg">
<path d="M14.2075 4.58529L11.4144 1.79279C11.3216 1.69991 11.2113 1.62623 11.09 1.57596C10.9686 1.52569 10.8386 1.49982 10.7072 1.49982C10.5759 1.49982 10.4458 1.52569 10.3245 1.57596C10.2032 1.62623 10.0929 1.69991 10 1.79279L2.29317 9.49967C2.19991 9.59219 2.12597 9.70233 2.07565 9.82368C2.02533 9.94503 1.99963 10.0752 2.00005 10.2065V12.9997C2.00005 13.2649 2.1054 13.5192 2.29294 13.7068C2.48048 13.8943 2.73483 13.9997 3.00005 13.9997H13.5C13.6327 13.9997 13.7598 13.947 13.8536 13.8532C13.9474 13.7595 14 13.6323 14 13.4997C14 13.3671 13.9474 13.2399 13.8536 13.1461C13.7598 13.0523 13.6327 12.9997 13.5 12.9997H7.20755L14.2075 5.99967C14.3004 5.9068 14.3741 5.79655 14.4244 5.67521C14.4746 5.55387 14.5005 5.42382 14.5005 5.29248C14.5005 5.16114 14.4746 5.03108 14.4244 4.90974C14.3741 4.7884 14.3004 4.67815 14.2075 4.58529ZM5.79317 12.9997H3.00005V10.2065L8.50005 4.70654L11.2932 7.49967L5.79317 12.9997ZM12 6.79279L9.20755 3.99967L10.7075 2.49967L13.5 5.29279L12 6.79279Z" fill="#F1282E"/>
</svg>
