<svg width="101" height="100" viewBox="0 0 101 100" fill="none" xmlns="http://www.w3.org/2000/svg">
<g id="Polygon Icon">
<g id="Group">
<path id="Vector" fill-rule="evenodd" clip-rule="evenodd" d="M24.2053 53.0099C31.1351 53.0099 36.7862 50.3403 36.7862 47.0673C36.7862 43.7935 31.1351 41.124 24.2053 41.124C17.2763 41.124 11.6244 43.7935 11.6244 47.0673C11.6244 50.3403 17.2763 53.0099 24.2053 53.0099Z" fill="#D94841"/>
<path id="Vector_2" fill-rule="evenodd" clip-rule="evenodd" d="M24.2053 1.95312C31.9041 1.95312 38.145 8.19397 38.145 15.8928C38.145 17.8856 37.7261 19.7807 36.9723 21.4958L24.2053 47.0673L11.4383 21.4958C10.6852 19.7807 10.2656 17.8864 10.2656 15.8928C10.2656 8.19397 16.5065 1.95312 24.2053 1.95312Z" fill="#FF5D5D"/>
<path id="Vector_3" fill-rule="evenodd" clip-rule="evenodd" d="M24.2053 21.9605C27.547 21.9605 30.2729 19.2345 30.2729 15.8928C30.2729 12.5511 27.547 9.82593 24.2053 9.82593C20.8636 9.82593 18.1384 12.5511 18.1384 15.8928C18.1384 19.2345 20.8636 21.9605 24.2053 21.9605Z" fill="#45A845"/>
<path id="Vector_4" fill-rule="evenodd" clip-rule="evenodd" d="M78.11 65.0123C85.0398 65.0123 90.6909 62.342 90.6909 59.069C90.6909 55.7953 85.0398 53.1257 78.11 53.1257C71.181 53.1257 65.5291 55.7953 65.5291 59.069C65.5291 62.342 71.181 65.0123 78.11 65.0123Z" fill="#D94841"/>
<path id="Vector_5" fill-rule="evenodd" clip-rule="evenodd" d="M46.0017 98.0469C52.9307 98.0469 58.5826 95.3766 58.5826 92.1036C58.5826 88.8306 52.9307 86.1603 46.0017 86.1603C39.0719 86.1603 33.4208 88.8306 33.4208 92.1036C33.4208 95.3766 39.0719 98.0469 46.0017 98.0469Z" fill="#D94841"/>
<path id="Vector_6" fill-rule="evenodd" clip-rule="evenodd" d="M32.2261 15.8928C32.2261 11.4708 28.6281 7.8728 24.2053 7.8728C19.7833 7.8728 16.1853 11.4708 16.1853 15.8928C16.1853 20.3156 19.7833 23.9128 24.2053 23.9128C28.6281 23.9136 32.2261 20.3156 32.2261 15.8928ZM20.0915 15.8928C20.0915 13.6246 21.9371 11.7791 24.2053 11.7791C26.4743 11.7791 28.3198 13.6246 28.3198 15.8928C28.3198 18.161 26.4743 20.0066 24.2053 20.0066C21.9371 20.0074 20.0915 18.161 20.0915 15.8928Z" fill="black"/>
<path id="Vector_7" fill-rule="evenodd" clip-rule="evenodd" d="M78.11 51.1726C73.0769 51.1726 68.7991 52.4269 66.2135 54.4197L59.209 52.8602C58.1584 52.626 57.1132 53.289 56.8782 54.3419C56.6439 55.3947 57.3069 56.4384 58.3606 56.6726L63.7294 57.8682C63.6294 58.258 63.576 58.6593 63.576 59.069C63.576 61.7225 65.7481 63.99 69.2271 65.406L66.0998 68.6233C65.3483 69.3969 65.3659 70.6337 66.1395 71.3852C66.5187 71.7544 67.01 71.9375 67.5006 71.9375C68.0095 71.9375 68.5183 71.7399 68.9013 71.3463L73.5217 66.5924C74.953 66.8342 76.4918 66.9655 78.11 66.9655C86.3955 66.9655 92.644 63.5704 92.644 59.069C92.644 54.5677 86.3955 51.1726 78.11 51.1726ZM78.11 63.0592C71.7212 63.0592 67.4823 60.6575 67.4823 59.069C67.4823 58.7364 67.6699 58.3687 68.0217 57.9948C68.0819 57.9422 68.1392 57.8865 68.1918 57.8254C69.6498 56.4636 73.2585 55.0789 78.11 55.0789C84.4989 55.0789 88.7378 57.4806 88.7378 59.069C88.7378 60.6575 84.4989 63.0592 78.11 63.0592Z" fill="black"/>
<path id="Vector_8" fill-rule="evenodd" clip-rule="evenodd" d="M54.8846 85.7673L58.0119 82.5492C58.7634 81.7756 58.7458 80.5396 57.9722 79.7874C57.1994 79.0359 55.9626 79.0534 55.2104 79.8271L50.59 84.5802C49.1588 84.3383 47.6199 84.2071 46.0017 84.2071C37.7162 84.2071 31.4677 87.6022 31.4677 92.1035C31.4677 96.6049 37.7162 99.9999 46.0017 99.9999C54.2872 99.9999 60.5357 96.6049 60.5357 92.1035C60.5357 89.45 58.3636 87.1826 54.8846 85.7673ZM46.0017 96.0937C39.6129 96.0937 35.374 93.692 35.374 92.1035C35.374 90.5151 39.6129 88.1133 46.0017 88.1133C52.3906 88.1133 56.6295 90.5151 56.6295 92.1035C56.6295 93.692 52.3906 96.0937 46.0017 96.0937Z" fill="black"/>
<path id="Vector_9" fill-rule="evenodd" clip-rule="evenodd" d="M43.1064 53.2761C43.2498 53.3081 43.3917 53.3234 43.5328 53.3234C44.4278 53.3234 45.235 52.7039 45.4371 51.7944C45.6714 50.7416 45.0084 49.6979 43.9555 49.4637L38.5859 48.2674C38.6866 47.8775 38.7393 47.477 38.7393 47.0665C38.7393 43.4067 34.6682 40.9348 30.0052 39.8232L38.7202 22.3679C38.7339 22.3396 38.7477 22.3106 38.7607 22.2816C39.6479 20.2621 40.0981 18.1129 40.0981 15.8928C40.0981 7.12967 32.9692 0 24.2053 0C15.4422 0 8.3125 7.12967 8.3125 15.8928C8.3125 18.1122 8.76263 20.2614 9.6507 22.2816C9.6629 22.3106 9.67664 22.3396 9.69113 22.3679L18.4146 39.8407C13.7393 40.979 9.6713 43.4517 9.6713 47.0673C9.6713 51.5686 15.9198 54.9629 24.2053 54.9629C29.2384 54.9629 33.517 53.7086 36.1026 51.7166L43.1064 53.2761ZM12.2188 15.8928C12.2188 9.28345 17.5959 3.90625 24.2053 3.90625C30.8146 3.90625 36.1918 9.28345 36.1918 15.8928C36.1918 17.5529 35.8592 19.1589 35.2031 20.6673L24.2053 42.6949L13.2083 20.6673C12.5514 19.1582 12.2188 17.5522 12.2188 15.8928ZM13.5775 47.0673C13.5775 46.0411 16.1212 44.2574 20.2128 43.4425L22.4582 47.9393C22.7885 48.6015 23.4652 49.0196 24.2053 49.0196C24.9453 49.0196 25.6221 48.6015 25.9532 47.9393L28.2039 43.4303C32.342 44.2154 34.833 45.9946 34.833 47.0665C34.833 47.3999 34.6438 47.7692 34.2906 48.1445C34.2311 48.1972 34.1746 48.2521 34.122 48.3116C32.664 49.6727 29.0553 51.0567 24.2053 51.0567C17.8164 51.0567 13.5775 48.6557 13.5775 47.0673Z" fill="black"/>
<path id="Vector_10" fill-rule="evenodd" clip-rule="evenodd" d="M62.0555 73.6335C60.9797 73.6335 60.1024 74.5102 60.1024 75.5867C60.1024 76.6624 60.9797 77.5398 62.0555 77.5398C63.1312 77.5398 64.0086 76.6624 64.0086 75.5867C64.0086 74.5102 63.1312 73.6335 62.0555 73.6335Z" fill="black"/>
<path id="Vector_11" fill-rule="evenodd" clip-rule="evenodd" d="M51.1577 55.0209C52.2334 55.0209 53.1108 54.1435 53.1108 53.0677C53.1108 51.992 52.2334 51.1146 51.1577 51.1146C50.0819 51.1146 49.2045 51.992 49.2045 53.0677C49.2045 54.1435 50.0819 55.0209 51.1577 55.0209Z" fill="black"/>
</g>
</g>
</svg>
