<svg width="16" height="16" viewBox="0 0 16 16" fill="none" xmlns="http://www.w3.org/2000/svg">
<path d="M14.3537 13.6462L11.2244 10.5175C12.1314 9.42856 12.5837 8.03186 12.4871 6.61795C12.3906 5.20404 11.7527 3.88178 10.7061 2.92622C9.65948 1.97067 8.28477 1.4554 6.86793 1.4876C5.4511 1.5198 4.10122 2.09699 3.0991 3.0991C2.09699 4.10122 1.5198 5.4511 1.4876 6.86793C1.4554 8.28477 1.97067 9.65948 2.92622 10.7061C3.88178 11.7527 5.20404 12.3906 6.61795 12.4871C8.03186 12.5837 9.42856 12.1314 10.5175 11.2244L13.6462 14.3537C13.6927 14.4002 13.7478 14.437 13.8085 14.4622C13.8692 14.4873 13.9343 14.5003 14 14.5003C14.0657 14.5003 14.1307 14.4873 14.1914 14.4622C14.2521 14.437 14.3073 14.4002 14.3537 14.3537C14.4002 14.3073 14.437 14.2521 14.4622 14.1914C14.4873 14.1307 14.5003 14.0657 14.5003 14C14.5003 13.9343 14.4873 13.8692 14.4622 13.8085C14.437 13.7478 14.4002 13.6927 14.3537 13.6462ZM2.49999 6.99999C2.49999 6.10997 2.76391 5.23995 3.25838 4.49992C3.75284 3.7599 4.45565 3.18313 5.27791 2.84253C6.10018 2.50194 7.00498 2.41282 7.8779 2.58646C8.75081 2.76009 9.55264 3.18867 10.182 3.81801C10.8113 4.44735 11.2399 5.24917 11.4135 6.12208C11.5872 6.995 11.498 7.8998 11.1574 8.72207C10.8169 9.54433 10.2401 10.2471 9.50006 10.7416C8.76004 11.2361 7.89001 11.5 6.99999 11.5C5.80692 11.4987 4.6631 11.0241 3.81947 10.1805C2.97584 9.33688 2.50131 8.19306 2.49999 6.99999Z" fill="black"/>
</svg>
