<svg xmlns="http://www.w3.org/2000/svg" width="20" height="21" viewBox="0 0 20 21" fill="none">
  <path d="M13.4097 15.3822C11.7399 16.6799 9.63851 17.2922 7.53338 17.0942C5.42824 16.8963 3.47766 15.903 2.07881 14.3166C0.679961 12.7303 -0.0619809 10.6701 0.00405863 8.55565C0.0700982 6.44118 0.939153 4.4314 2.43427 2.93552C3.92939 1.43963 5.93814 0.570134 8.05152 0.504061C10.1649 0.437987 12.224 1.18031 13.8096 2.57987C15.3951 3.97944 16.3879 5.93102 16.5857 8.03723C16.7836 10.1434 16.1717 12.2459 14.8745 13.9166L19.6936 18.7201C20.1016 19.1267 20.1022 19.7872 19.695 20.1946C19.2878 20.6021 18.6273 20.6017 18.2204 20.1939L13.4201 15.3822H13.4097ZM8.31916 15.0495C9.13773 15.0495 9.94829 14.8882 10.7045 14.5748C11.4608 14.2614 12.148 13.802 12.7268 13.2229C13.3056 12.6438 13.7647 11.9563 14.078 11.1996C14.3913 10.443 14.5525 9.63201 14.5525 8.81302C14.5525 7.99403 14.3913 7.18306 14.078 6.42641C13.7647 5.66976 13.3056 4.98225 12.7268 4.40314C12.148 3.82402 11.4608 3.36465 10.7045 3.05123C9.94829 2.73782 9.13773 2.57651 8.31916 2.57651C6.66598 2.57651 5.08051 3.23356 3.91153 4.40314C2.74256 5.57271 2.08583 7.159 2.08583 8.81302C2.08583 10.467 2.74256 12.0533 3.91153 13.2229C5.08051 14.3925 6.66598 15.0495 8.31916 15.0495Z" fill="#6A7185"/>
</svg>