<svg width="86" height="18" viewBox="0 0 86 18" fill="none" xmlns="http://www.w3.org/2000/svg">
<path id="Vector" d="M8.57849 17.4216H1.16358C0.856589 17.4216 0.707031 17.2661 0.707031 16.9467V1.97159C0.707031 1.66046 0.856589 1.49671 1.16358 1.49671H3.7218C4.02879 1.49671 4.15473 1.66046 4.15473 1.97159V15.0554H8.57849C8.88548 15.0554 9.01142 15.211 9.01142 15.5303V16.9467C9.01142 17.2661 8.87761 17.4216 8.57849 17.4216ZM18.5438 16.9959C18.0006 17.3561 16.4657 17.7164 15.0095 17.7164C12.4749 17.7164 10.0426 16.9058 10.0426 14.4905C10.0426 11.4037 13.6398 10.6832 16.3319 10.1592V8.66906C16.3319 7.70293 15.7651 7.13798 14.9859 7.13798C13.9704 7.13798 13.5375 7.90762 13.3171 8.55444C13.081 9.29951 12.6008 9.59427 11.9081 9.59427C11.1525 9.59427 10.5227 9.11938 10.5227 8.28425C10.5227 7.17892 11.8924 5.44314 15.4267 5.44314C17.6385 5.44314 19.3939 6.57304 19.3939 8.9802V15.1373C19.3939 16.1198 19.1971 16.5701 18.5438 16.9959ZM16.3319 11.5839C14.6631 11.9195 13.081 12.4436 13.081 14.2203C13.081 15.2355 13.75 15.997 14.9229 15.997C15.6392 15.997 16.3319 15.7268 16.3319 14.8916V11.5839ZM30.9413 17.4216H28.6192C28.3122 17.4216 28.1863 17.2661 28.1863 16.9467V9.05388C28.1863 8.07956 27.7534 7.20347 26.368 7.20347C24.959 7.20347 24.7622 7.88305 24.7622 8.579V16.9467C24.7622 17.2661 24.6127 17.4216 24.3057 17.4216H22.0072C21.7002 17.4216 21.5743 17.2661 21.5743 16.9467V7.56373C21.5743 6.77772 21.7711 6.45841 22.4637 6.12271C23.243 5.7379 24.7858 5.45133 26.4546 5.45133C29.1624 5.45133 31.3742 6.37653 31.3742 8.89832V16.9467C31.3742 17.2661 31.2483 17.4216 30.9413 17.4216ZM42.473 16.9304C41.8905 17.3316 40.3241 17.7246 38.8521 17.7246C34.7117 17.7246 33.1296 15.1782 33.1296 11.8868C33.1296 8.54624 34.8455 5.48408 38.1594 5.48408C39.1827 5.48408 39.8754 5.84433 40.1509 6.02446V0.661575C40.1509 0.342258 40.2847 0.186691 40.5838 0.186691H42.8587C43.1657 0.186691 43.3152 0.342258 43.3152 0.661575V15.2273C43.3152 16.0707 43.1027 16.4964 42.473 16.9304ZM40.1509 7.61285C39.8675 7.41635 39.4818 7.18711 38.8049 7.18711C37.3329 7.18711 36.3333 8.78369 36.3333 11.4938C36.3333 14.3103 37.5691 15.7595 38.8442 15.7595C39.7101 15.7595 40.143 15.3993 40.143 14.7443V7.61285H40.1509ZM50.1004 17.7164C47.3927 17.7164 45.0706 15.7514 45.0706 11.6084C45.0706 7.75205 47.0227 5.45133 50.2106 5.45133C53.0758 5.45133 54.414 7.27716 54.414 8.40705C54.414 9.26676 53.9575 9.82352 53.0444 9.82352C52.3044 9.82352 51.9187 9.42232 51.6354 8.62812C51.4622 8.15324 51.1159 7.21167 50.0296 7.21167C48.9433 7.21167 48.0145 8.43162 48.0145 10.7078C48.0145 13.0085 48.904 15.0636 50.8797 15.0636C52.0919 15.0636 52.6587 14.2285 53.0916 13.5325C53.2648 13.2623 53.5009 13.1068 53.8079 13.1068C54.2015 13.1068 54.4612 13.4179 54.4612 13.8518C54.4534 15.5549 52.7452 17.7164 50.1004 17.7164ZM63.9857 16.9959C63.4426 17.3561 61.9076 17.7164 60.4514 17.7164C57.9168 17.7164 55.4845 16.9058 55.4845 14.4905C55.4845 11.4037 59.0818 10.6832 61.7738 10.1592V8.66906C61.7738 7.70293 61.2071 7.13798 60.4278 7.13798C59.4124 7.13798 58.9794 7.90762 58.759 8.55444C58.5229 9.29951 58.0427 9.59427 57.35 9.59427C56.5944 9.59427 55.9647 9.11938 55.9647 8.28425C55.9647 7.17892 57.3264 5.44314 60.8607 5.44314C63.0726 5.44314 64.8279 6.57304 64.8279 8.9802V15.1373C64.8358 16.1198 64.639 16.5701 63.9857 16.9959ZM61.7817 11.5839C60.1129 11.9195 58.5308 12.4436 58.5308 14.2203C58.5308 15.2355 59.1998 15.997 60.3727 15.997C61.089 15.997 61.7817 15.7268 61.7817 14.8916V11.5839ZM73.5889 8.78369C72.1563 8.78369 72.5262 7.22804 71.314 7.22804C70.6449 7.22804 70.212 7.5883 70.212 8.19418V16.9467C70.212 17.2661 70.0625 17.4216 69.7555 17.4216H67.457C67.1579 17.4216 67.0241 17.2661 67.0241 16.9467V7.56373C67.0241 6.77772 67.2366 6.45841 67.9372 6.12271C68.6535 5.78702 70.0625 5.45133 71.621 5.45133C73.9195 5.45133 74.8483 6.28647 74.8483 7.36724C74.8483 8.22694 74.4154 8.78369 73.5889 8.78369ZM80.7204 17.7164C77.8158 17.7164 75.4701 15.866 75.4701 11.4938C75.4701 7.30173 77.9182 5.45133 80.6968 5.45133C83.4046 5.45133 85.1599 7.54736 85.1599 10.0282C85.1599 10.6832 84.9002 10.8633 84.357 10.9534L78.3983 11.9687C78.5951 13.7044 79.5082 15.1537 81.3501 15.1537C82.6096 15.1537 83.4754 14.253 83.9083 13.598C84.0579 13.3688 84.2783 13.1968 84.5774 13.1968C84.9238 13.1968 85.2071 13.508 85.2071 13.9173C85.2071 15.5794 83.3888 17.7164 80.7204 17.7164ZM80.3504 7.21167C78.8313 7.21167 78.2488 8.85738 78.2015 10.3721L82.1924 9.67614C82.153 8.448 81.6965 7.21167 80.3504 7.21167Z" fill="#75A237"/>
</svg>
