<svg width="27" height="28" viewBox="0 0 27 28" fill="none" xmlns="http://www.w3.org/2000/svg">
<path d="M26.3181 25.306L20.0594 19.0485C21.8734 16.8706 22.778 14.0772 22.5849 11.2494C22.3919 8.42157 21.116 5.77704 19.0228 3.86593C16.9296 1.95483 14.1802 0.924286 11.3465 0.988686C8.51285 1.05309 5.81309 2.20747 3.80886 4.2117C1.80464 6.21592 0.650254 8.91568 0.585854 11.7494C0.521454 14.583 1.552 17.3324 3.4631 19.4256C5.37421 21.5189 8.01873 22.7947 10.8466 22.9878C13.6744 23.1808 16.4678 22.2763 18.6456 20.4622L24.9031 26.721C24.996 26.8139 25.1063 26.8876 25.2277 26.9379C25.3491 26.9881 25.4792 27.014 25.6106 27.014C25.742 27.014 25.8721 26.9881 25.9935 26.9379C26.1149 26.8876 26.2252 26.8139 26.3181 26.721C26.411 26.6281 26.4847 26.5178 26.535 26.3964C26.5853 26.275 26.6112 26.1449 26.6112 26.0135C26.6112 25.8821 26.5853 25.752 26.535 25.6306C26.4847 25.5092 26.411 25.3989 26.3181 25.306ZM2.61064 12.0135C2.61064 10.2334 3.13848 8.49338 4.12741 7.01334C5.11634 5.53329 6.52195 4.37974 8.16649 3.69855C9.81102 3.01736 11.6206 2.83913 13.3664 3.1864C15.1123 3.53367 16.7159 4.39083 17.9746 5.64951C19.2333 6.90818 20.0904 8.51183 20.4377 10.2577C20.785 12.0035 20.6067 13.8131 19.9256 15.4576C19.2444 17.1022 18.0908 18.5078 16.6108 19.4967C15.1307 20.4856 13.3907 21.0135 11.6106 21.0135C9.2245 21.0108 6.93685 20.0618 5.2496 18.3745C3.56235 16.6873 2.61328 14.3996 2.61064 12.0135Z" fill="white"/>
</svg>
