<svg width="30" height="30" viewBox="0 0 68 100" fill="none" xmlns="http://www.w3.org/2000/svg">
<path d="M33.9999 0C15.6202 0 0.666504 14.9537 0.666504 33.3334C0.666504 38.851 2.046 44.3217 4.66846 49.174L32.1771 98.9258C32.5433 99.5891 33.2411 100 33.9999 100C34.7587 100 35.4565 99.5891 35.8228 98.9258L63.3415 49.1576C65.9538 44.3217 67.3333 38.8508 67.3333 33.3332C67.3333 14.9537 52.3796 0 33.9999 0ZM33.9999 50C24.8101 50 17.3333 42.5232 17.3333 33.3334C17.3333 24.1436 24.8101 16.6668 33.9999 16.6668C43.1897 16.6668 50.6665 24.1436 50.6665 33.3334C50.6665 42.5232 43.1897 50 33.9999 50Z" fill="#FF0000"/>
</svg>
