<svg width="40" height="40" viewBox="0 0 12 12" fill="none" xmlns="http://www.w3.org/2000/svg">
<g id="pin 1" clip-path="url(#clip0_474_625)">
<g id="Group">
<g id="Group_2">
<path id="Vector" d="M6.00196 0C3.7964 0 2.00195 1.79445 2.00195 4.00001C2.00195 4.66212 2.16749 5.3186 2.48219 5.90088L5.78322 11.8711C5.82716 11.9507 5.91091 12 6.00196 12C6.09302 12 6.17676 11.9507 6.2207 11.8711L9.52295 5.89891C9.83643 5.3186 10.002 4.66209 10.002 3.99998C10.002 1.79445 8.20752 0 6.00196 0ZM6.00196 6C4.89918 6 4.00197 5.10279 4.00197 4.00001C4.00197 2.89723 4.89918 2.00002 6.00196 2.00002C7.10474 2.00002 8.00195 2.89723 8.00195 4.00001C8.00195 5.10279 7.10474 6 6.00196 6Z" fill="#0000FF"/>
</g>
</g>
</g>
<defs>
<clipPath id="clip0_474_625">
<rect width="12" height="12" fill="white"/>
</clipPath>
</defs>
</svg>
