<svg width="16" height="16" viewBox="0 0 16 16" fill="none" xmlns="http://www.w3.org/2000/svg">
<path d="M14.2076 4.58523L11.4144 1.79273C11.3216 1.69985 11.2113 1.62617 11.09 1.5759C10.9686 1.52563 10.8386 1.49976 10.7073 1.49976C10.5759 1.49976 10.4459 1.52563 10.3245 1.5759C10.2032 1.62617 10.0929 1.69985 10.0001 1.79273L2.29319 9.4996C2.19993 9.59213 2.12599 9.70226 2.07567 9.82362C2.02534 9.94497 1.99965 10.0751 2.00007 10.2065V12.9996C2.00007 13.2648 2.10542 13.5192 2.29296 13.7067C2.4805 13.8942 2.73485 13.9996 3.00007 13.9996H13.5001C13.6327 13.9996 13.7599 13.9469 13.8536 13.8532C13.9474 13.7594 14.0001 13.6322 14.0001 13.4996C14.0001 13.367 13.9474 13.2398 13.8536 13.1461C13.7599 13.0523 13.6327 12.9996 13.5001 12.9996H7.20757L14.2076 5.9996C14.3004 5.90674 14.3741 5.79649 14.4244 5.67515C14.4747 5.55381 14.5005 5.42376 14.5005 5.29242C14.5005 5.16108 14.4747 5.03102 14.4244 4.90968C14.3741 4.78834 14.3004 4.67809 14.2076 4.58523ZM5.79319 12.9996H3.00007V10.2065L8.50007 4.70648L11.2932 7.4996L5.79319 12.9996ZM12.0001 6.79273L9.20757 3.9996L10.7076 2.4996L13.5001 5.29273L12.0001 6.79273Z" fill="#F1282E"/>
</svg>
