<svg width="22" height="22" viewBox="0 0 22 22" fill="none" xmlns="http://www.w3.org/2000/svg">
<rect width="22" height="22" rx="4" fill="white"/>
<path d="M17.5 10.5H16.9788C16.8588 9.08715 16.243 7.76225 15.2404 6.75962C14.2377 5.75699 12.9128 5.14123 11.5 5.02125V4.5C11.5 4.36739 11.4473 4.24021 11.3536 4.14645C11.2598 4.05268 11.1326 4 11 4C10.8674 4 10.7402 4.05268 10.6464 4.14645C10.5527 4.24021 10.5 4.36739 10.5 4.5V5.02125C9.08715 5.14123 7.76225 5.75699 6.75962 6.75962C5.75699 7.76225 5.14123 9.08715 5.02125 10.5H4.5C4.36739 10.5 4.24021 10.5527 4.14645 10.6464C4.05268 10.7402 4 10.8674 4 11C4 11.1326 4.05268 11.2598 4.14645 11.3536C4.24021 11.4473 4.36739 11.5 4.5 11.5H5.02125C5.14123 12.9128 5.75699 14.2377 6.75962 15.2404C7.76225 16.243 9.08715 16.8588 10.5 16.9788V17.5C10.5 17.6326 10.5527 17.7598 10.6464 17.8536C10.7402 17.9473 10.8674 18 11 18C11.1326 18 11.2598 17.9473 11.3536 17.8536C11.4473 17.7598 11.5 17.6326 11.5 17.5V16.9788C12.9128 16.8588 14.2377 16.243 15.2404 15.2404C16.243 14.2377 16.8588 12.9128 16.9788 11.5H17.5C17.6326 11.5 17.7598 11.4473 17.8536 11.3536C17.9473 11.2598 18 11.1326 18 11C18 10.8674 17.9473 10.7402 17.8536 10.6464C17.7598 10.5527 17.6326 10.5 17.5 10.5ZM11.5 15.975V15.5C11.5 15.3674 11.4473 15.2402 11.3536 15.1464C11.2598 15.0527 11.1326 15 11 15C10.8674 15 10.7402 15.0527 10.6464 15.1464C10.5527 15.2402 10.5 15.3674 10.5 15.5V15.975C9.35305 15.858 8.28157 15.3489 7.46634 14.5337C6.65111 13.7184 6.14203 12.647 6.025 11.5H6.5C6.63261 11.5 6.75979 11.4473 6.85355 11.3536C6.94732 11.2598 7 11.1326 7 11C7 10.8674 6.94732 10.7402 6.85355 10.6464C6.75979 10.5527 6.63261 10.5 6.5 10.5H6.025C6.14203 9.35305 6.65111 8.28157 7.46634 7.46634C8.28157 6.65111 9.35305 6.14203 10.5 6.025V6.5C10.5 6.63261 10.5527 6.75979 10.6464 6.85355C10.7402 6.94732 10.8674 7 11 7C11.1326 7 11.2598 6.94732 11.3536 6.85355C11.4473 6.75979 11.5 6.63261 11.5 6.5V6.025C12.647 6.14203 13.7184 6.65111 14.5337 7.46634C15.3489 8.28157 15.858 9.35305 15.975 10.5H15.5C15.3674 10.5 15.2402 10.5527 15.1464 10.6464C15.0527 10.7402 15 10.8674 15 11C15 11.1326 15.0527 11.2598 15.1464 11.3536C15.2402 11.4473 15.3674 11.5 15.5 11.5H15.975C15.858 12.647 15.3489 13.7184 14.5337 14.5337C13.7184 15.3489 12.647 15.858 11.5 15.975ZM11 8.5C10.5055 8.5 10.0222 8.64662 9.61107 8.92133C9.19995 9.19603 8.87952 9.58648 8.6903 10.0433C8.50108 10.5001 8.45157 11.0028 8.54804 11.4877C8.6445 11.9727 8.8826 12.4181 9.23223 12.7678C9.58186 13.1174 10.0273 13.3555 10.5123 13.452C10.9972 13.5484 11.4999 13.4989 11.9567 13.3097C12.4135 13.1205 12.804 12.8 13.0787 12.3889C13.3534 11.9778 13.5 11.4945 13.5 11C13.5 10.337 13.2366 9.70107 12.7678 9.23223C12.2989 8.76339 11.663 8.5 11 8.5ZM11 12.5C10.7033 12.5 10.4133 12.412 10.1666 12.2472C9.91997 12.0824 9.72771 11.8481 9.61418 11.574C9.50065 11.2999 9.47094 10.9983 9.52882 10.7074C9.5867 10.4164 9.72956 10.1491 9.93934 9.93934C10.1491 9.72956 10.4164 9.5867 10.7074 9.52882C10.9983 9.47094 11.2999 9.50065 11.574 9.61418C11.8481 9.72771 12.0824 9.91997 12.2472 10.1666C12.412 10.4133 12.5 10.7033 12.5 11C12.5 11.3978 12.342 11.7794 12.0607 12.0607C11.7794 12.342 11.3978 12.5 11 12.5Z" fill="#D94841"/>
</svg>
