<svg width="30" height="30" viewBox="0 0 35 35" fill="none" xmlns="http://www.w3.org/2000/svg">
<path d="M17.4999 0C11.0671 0 5.83325 5.2338 5.83325 11.6667C5.83325 13.5978 6.31607 15.5126 7.23394 17.2109L16.8619 34.624C16.9901 34.8562 17.2344 35 17.4999 35C17.7655 35 18.0098 34.8562 18.1379 34.624L27.7695 17.2052C28.6838 15.5126 29.1666 13.5978 29.1666 11.6666C29.1666 5.2338 23.9328 0 17.4999 0ZM17.4999 17.5C14.2835 17.5 11.6666 14.8831 11.6666 11.6667C11.6666 8.45024 14.2835 5.83338 17.4999 5.83338C20.7164 5.83338 23.3333 8.45024 23.3333 11.6667C23.3333 14.8831 20.7164 17.5 17.4999 17.5Z" fill="#ECCD43"/>
</svg>
