<svg xmlns="http://www.w3.org/2000/svg" width="18" height="18" viewBox="0 0 18 18" fill="none">
  <path d="M11.25 0.937622H3.75C2.61091 0.937622 1.6875 1.86103 1.6875 3.00012V12.0001C1.6875 13.1392 2.61091 14.0626 3.75 14.0626H11.25C12.3891 14.0626 13.3125 13.1392 13.3125 12.0001V3.00012C13.3125 1.86103 12.3891 0.937622 11.25 0.937622Z" fill="black"/>
  <path d="M14.248 17.0625H6.74805C6.20116 17.0621 5.67679 16.8447 5.29008 16.458C4.90337 16.0713 4.68594 15.5469 4.68555 15V6C4.68594 5.45311 4.90337 4.92874 5.29008 4.54203C5.67679 4.15532 6.20116 3.9379 6.74805 3.9375H14.248C14.7949 3.9379 15.3193 4.15532 15.706 4.54203C16.0927 4.92874 16.3101 5.45311 16.3105 6V15C16.3101 15.5469 16.0927 16.0713 15.706 16.458C15.3193 16.8447 14.7949 17.0621 14.248 17.0625ZM6.74805 5.0625C6.49953 5.0629 6.2613 5.1618 6.08557 5.33753C5.90984 5.51326 5.81094 5.75148 5.81055 6V15C5.81094 15.2485 5.90984 15.4867 6.08557 15.6625C6.2613 15.8382 6.49953 15.9371 6.74805 15.9375H14.248C14.4966 15.9371 14.7348 15.8382 14.9105 15.6625C15.0863 15.4867 15.1852 15.2485 15.1855 15V6C15.1852 5.75148 15.0863 5.51326 14.9105 5.33753C14.7348 5.1618 14.4966 5.0629 14.248 5.0625H6.74805Z" fill="black"/>
</svg>