<svg xmlns="http://www.w3.org/2000/svg" width="15" height="16" viewBox="0 0 15 16" fill="none">
  <path d="M13.8043 12.05C13.8091 12.3729 13.7442 12.6932 13.6141 12.9889C13.4841 13.2846 13.2919 13.5488 13.0506 13.7636C12.8093 13.9783 12.5246 14.1387 12.2159 14.2336C11.9071 14.3285 11.5815 14.3559 11.2612 14.3138C10.941 14.2716 10.6335 14.1611 10.3598 13.9895C10.0861 13.818 9.85248 13.5895 9.67493 13.3197C9.49738 13.0498 9.38002 12.7449 9.33082 12.4256C9.28163 12.1064 9.30175 11.7802 9.38983 11.4695L5.21383 9.38595C4.92532 9.7549 4.52886 10.0246 4.07975 10.1575C3.63063 10.2904 3.15123 10.2798 2.70842 10.1272C2.26561 9.97463 1.88145 9.68767 1.60951 9.30634C1.33757 8.92501 1.19141 8.46832 1.19141 7.99995C1.19141 7.53159 1.33757 7.0749 1.60951 6.69357C1.88145 6.31224 2.26561 6.02527 2.70842 5.87269C3.15123 5.72011 3.63063 5.70953 4.07975 5.8424C4.52886 5.97528 4.92532 6.245 5.21383 6.61395L9.38983 4.53045C9.33612 4.34151 9.30737 4.14636 9.30433 3.94995C9.29818 3.41068 9.48364 2.88673 9.82768 2.47141C10.1717 2.05609 10.652 1.77637 11.183 1.68206C11.714 1.58775 12.2612 1.68498 12.7273 1.95643C13.1933 2.22787 13.5478 2.65591 13.7277 3.16432C13.9077 3.67273 13.9013 4.2285 13.7097 4.73265C13.5182 5.2368 13.154 5.6566 12.6818 5.91729C12.2097 6.17798 11.6604 6.26263 11.1317 6.15617C10.603 6.04971 10.1293 5.75905 9.79483 5.33595L5.61883 7.41945C5.73295 7.79804 5.73295 8.20187 5.61883 8.58045L9.79483 10.664C10.0848 10.3002 10.4803 10.0352 10.9271 9.90547C11.3738 9.77577 11.8498 9.78774 12.2895 9.93972C12.7292 10.0917 13.1109 10.3762 13.3822 10.7541C13.6535 11.1321 13.801 11.5848 13.8043 12.05Z" fill="black"/>
</svg>