<svg xmlns="http://www.w3.org/2000/svg" width="18" height="18" viewBox="0 0 18 18" fill="none">
  <path d="M8.99965 11.7727C10.5301 11.7727 11.7708 10.5321 11.7708 9.0016C11.7708 7.47115 10.5301 6.23047 8.99965 6.23047C7.46919 6.23047 6.22852 7.47115 6.22852 9.0016C6.22852 10.5321 7.46919 11.7727 8.99965 11.7727Z" fill="black"/>
  <path d="M17.7239 8.23403C15.5938 5.65999 12.3694 3.18225 9.00003 3.18225C5.62999 3.18225 2.40484 5.66172 0.276161 8.23403C-0.0920536 8.67879 -0.0920536 9.32447 0.276161 9.76924C0.811336 10.4159 1.9333 11.6643 3.43179 12.7551C7.20569 15.5024 10.7861 15.5085 14.5683 12.7551C16.0668 11.6643 17.1887 10.4159 17.7239 9.76924C18.091 9.32533 18.093 8.68025 17.7239 8.23403ZM9.00003 5.12204C11.1393 5.12204 12.8796 6.86232 12.8796 9.00163C12.8796 11.1409 11.1393 12.8812 9.00003 12.8812C6.86072 12.8812 5.12045 11.1409 5.12045 9.00163C5.12045 6.86232 6.86072 5.12204 9.00003 5.12204Z" fill="black"/>
</svg>